<mxfile host="Electron" modified="2023-11-08T15:06:37.569Z" agent="Mozilla/5.0 (Macintosh; Intel Mac OS X 10_15_7) AppleWebKit/537.36 (KHTML, like Gecko) draw.io/22.0.2 Chrome/114.0.5735.289 Electron/25.8.4 Safari/537.36" etag="GaPWfClK4ptcyJ3aWHab" version="22.0.2" type="device" pages="4">
  <diagram name="Default" id="SQJIlgXJgG9Gz-tQ9WX_">
    <mxGraphModel dx="1378" dy="1020" grid="1" gridSize="10" guides="1" tooltips="1" connect="1" arrows="1" fold="1" page="1" pageScale="1" pageWidth="1600" pageHeight="900" background="#32373C" math="0" shadow="0">
      <root>
        <mxCell id="0" />
        <mxCell id="1" parent="0" />
        <mxCell id="ZJPlwpbBXmnmXC0Qw4BI-3" value="" style="shape=image;verticalLabelPosition=bottom;labelBackgroundColor=default;verticalAlign=top;aspect=fixed;imageAspect=0;image=data:image/png,iVBORw0KGgoAAAANSUhEUgAAAZAAAAA/CAYAAADOgp5DAAAACXBIWXMAAAxOAAAMTgF/d4wjAAAKT2lDQ1BQaG90b3Nob3AgSUNDIHByb2ZpbGUAAHjanVNnVFPpFj333vRCS4iAlEtvUhUIIFJCi4AUkSYqIQkQSoghodkVUcERRUUEG8igiAOOjoCMFVEsDIoK2AfkIaKOg6OIisr74Xuja9a89+bN/rXXPues852zzwfACAyWSDNRNYAMqUIeEeCDx8TG4eQuQIEKJHAAEAizZCFz/SMBAPh+PDwrIsAHvgABeNMLCADATZvAMByH/w/qQplcAYCEAcB0kThLCIAUAEB6jkKmAEBGAYCdmCZTAKAEAGDLY2LjAFAtAGAnf+bTAICd+Jl7AQBblCEVAaCRACATZYhEAGg7AKzPVopFAFgwABRmS8Q5ANgtADBJV2ZIALC3AMDOEAuyAAgMADBRiIUpAAR7AGDIIyN4AISZABRG8lc88SuuEOcqAAB4mbI8uSQ5RYFbCC1xB1dXLh4ozkkXKxQ2YQJhmkAuwnmZGTKBNA/g88wAAKCRFRHgg/P9eM4Ors7ONo62Dl8t6r8G/yJiYuP+5c+rcEAAAOF0ftH+LC+zGoA7BoBt/qIl7gRoXgugdfeLZrIPQLUAoOnaV/Nw+H48PEWhkLnZ2eXk5NhKxEJbYcpXff5nwl/AV/1s+X48/Pf14L7iJIEyXYFHBPjgwsz0TKUcz5IJhGLc5o9H/LcL//wd0yLESWK5WCoU41EScY5EmozzMqUiiUKSKcUl0v9k4t8s+wM+3zUAsGo+AXuRLahdYwP2SycQWHTA4vcAAPK7b8HUKAgDgGiD4c93/+8//UegJQCAZkmScQAAXkQkLlTKsz/HCAAARKCBKrBBG/TBGCzABhzBBdzBC/xgNoRCJMTCQhBCCmSAHHJgKayCQiiGzbAdKmAv1EAdNMBRaIaTcA4uwlW4Dj1wD/phCJ7BKLyBCQRByAgTYSHaiAFiilgjjggXmYX4IcFIBBKLJCDJiBRRIkuRNUgxUopUIFVIHfI9cgI5h1xGupE7yAAygvyGvEcxlIGyUT3UDLVDuag3GoRGogvQZHQxmo8WoJvQcrQaPYw2oefQq2gP2o8+Q8cwwOgYBzPEbDAuxsNCsTgsCZNjy7EirAyrxhqwVqwDu4n1Y8+xdwQSgUXACTYEd0IgYR5BSFhMWE7YSKggHCQ0EdoJNwkDhFHCJyKTqEu0JroR+cQYYjIxh1hILCPWEo8TLxB7iEPENyQSiUMyJ7mQAkmxpFTSEtJG0m5SI+ksqZs0SBojk8naZGuyBzmULCAryIXkneTD5DPkG+Qh8lsKnWJAcaT4U+IoUspqShnlEOU05QZlmDJBVaOaUt2ooVQRNY9aQq2htlKvUYeoEzR1mjnNgxZJS6WtopXTGmgXaPdpr+h0uhHdlR5Ol9BX0svpR+iX6AP0dwwNhhWDx4hnKBmbGAcYZxl3GK+YTKYZ04sZx1QwNzHrmOeZD5lvVVgqtip8FZHKCpVKlSaVGyovVKmqpqreqgtV81XLVI+pXlN9rkZVM1PjqQnUlqtVqp1Q61MbU2epO6iHqmeob1Q/pH5Z/YkGWcNMw09DpFGgsV/jvMYgC2MZs3gsIWsNq4Z1gTXEJrHN2Xx2KruY/R27iz2qqaE5QzNKM1ezUvOUZj8H45hx+Jx0TgnnKKeX836K3hTvKeIpG6Y0TLkxZVxrqpaXllirSKtRq0frvTau7aedpr1Fu1n7gQ5Bx0onXCdHZ4/OBZ3nU9lT3acKpxZNPTr1ri6qa6UbobtEd79up+6Ynr5egJ5Mb6feeb3n+hx9L/1U/W36p/VHDFgGswwkBtsMzhg8xTVxbzwdL8fb8VFDXcNAQ6VhlWGX4YSRudE8o9VGjUYPjGnGXOMk423GbcajJgYmISZLTepN7ppSTbmmKaY7TDtMx83MzaLN1pk1mz0x1zLnm+eb15vft2BaeFostqi2uGVJsuRaplnutrxuhVo5WaVYVVpds0atna0l1rutu6cRp7lOk06rntZnw7Dxtsm2qbcZsOXYBtuutm22fWFnYhdnt8Wuw+6TvZN9un2N/T0HDYfZDqsdWh1+c7RyFDpWOt6azpzuP33F9JbpL2dYzxDP2DPjthPLKcRpnVOb00dnF2e5c4PziIuJS4LLLpc+Lpsbxt3IveRKdPVxXeF60vWdm7Obwu2o26/uNu5p7ofcn8w0nymeWTNz0MPIQ+BR5dE/C5+VMGvfrH5PQ0+BZ7XnIy9jL5FXrdewt6V3qvdh7xc+9j5yn+M+4zw33jLeWV/MN8C3yLfLT8Nvnl+F30N/I/9k/3r/0QCngCUBZwOJgUGBWwL7+Hp8Ib+OPzrbZfay2e1BjKC5QRVBj4KtguXBrSFoyOyQrSH355jOkc5pDoVQfujW0Adh5mGLw34MJ4WHhVeGP45wiFga0TGXNXfR3ENz30T6RJZE3ptnMU85ry1KNSo+qi5qPNo3ujS6P8YuZlnM1VidWElsSxw5LiquNm5svt/87fOH4p3iC+N7F5gvyF1weaHOwvSFpxapLhIsOpZATIhOOJTwQRAqqBaMJfITdyWOCnnCHcJnIi/RNtGI2ENcKh5O8kgqTXqS7JG8NXkkxTOlLOW5hCepkLxMDUzdmzqeFpp2IG0yPTq9MYOSkZBxQqohTZO2Z+pn5mZ2y6xlhbL+xW6Lty8elQfJa7OQrAVZLQq2QqboVFoo1yoHsmdlV2a/zYnKOZarnivN7cyzytuQN5zvn//tEsIS4ZK2pYZLVy0dWOa9rGo5sjxxedsK4xUFK4ZWBqw8uIq2Km3VT6vtV5eufr0mek1rgV7ByoLBtQFr6wtVCuWFfevc1+1dT1gvWd+1YfqGnRs+FYmKrhTbF5cVf9go3HjlG4dvyr+Z3JS0qavEuWTPZtJm6ebeLZ5bDpaql+aXDm4N2dq0Dd9WtO319kXbL5fNKNu7g7ZDuaO/PLi8ZafJzs07P1SkVPRU+lQ27tLdtWHX+G7R7ht7vPY07NXbW7z3/T7JvttVAVVN1WbVZftJ+7P3P66Jqun4lvttXa1ObXHtxwPSA/0HIw6217nU1R3SPVRSj9Yr60cOxx++/p3vdy0NNg1VjZzG4iNwRHnk6fcJ3/ceDTradox7rOEH0x92HWcdL2pCmvKaRptTmvtbYlu6T8w+0dbq3nr8R9sfD5w0PFl5SvNUyWna6YLTk2fyz4ydlZ19fi753GDborZ752PO32oPb++6EHTh0kX/i+c7vDvOXPK4dPKy2+UTV7hXmq86X23qdOo8/pPTT8e7nLuarrlca7nuer21e2b36RueN87d9L158Rb/1tWeOT3dvfN6b/fF9/XfFt1+cif9zsu72Xcn7q28T7xf9EDtQdlD3YfVP1v+3Njv3H9qwHeg89HcR/cGhYPP/pH1jw9DBY+Zj8uGDYbrnjg+OTniP3L96fynQ89kzyaeF/6i/suuFxYvfvjV69fO0ZjRoZfyl5O/bXyl/erA6xmv28bCxh6+yXgzMV70VvvtwXfcdx3vo98PT+R8IH8o/2j5sfVT0Kf7kxmTk/8EA5jz/GMzLdsAAAAgY0hSTQAAeiUAAICDAAD5/wAAgOkAAHUwAADqYAAAOpgAABdvkl/FRgAAC+lJREFUeNrsnUFS474Sxj9RHCBvm83fnABzAsIJJlQOMMkJBlZZAsusAicgHCBF5gTjOQGeE+DZZPv8TtBvkfZMij9YSmzZMvl+VVlMhYntbqm/bkmWDAghhJB3mC77twBuPvr+iCYihBCyDxQQQgghFBBCCCEUEEIIIRQQQgghFBBCCCGEAkIIIaQKxzQBIaQJpsu+lHydzEbrC1opOBYAEgoIIYSQnZiN1hmA7KPvOYRFCCFkLygghBBCKCCEEEIoIIQQQigghBBCKCCEEEIIBYQQQkgV9n4PRERiAD0AkX7qJgWQA8iMMVkXjCkig61/Fvapm1xtAwCpMSYP2B69LTvEHi6R6QfGmKTLHXG67G/bqK6286cP6Xp+Eo6/Cx8PKrT7fDZap20+h9khGAwBnOsDxy3ca6qfnwBWbQZOEYnUDqdqC19i4UpS2MYYs2rZLkMAX1qySbbVRhJjTNpAEJh/9H3Zm9X6f7f7lG+KxOM7gFWdgjJd9scAvjr86cAxMWqSp9lovfDtd00Qir4x9BQbv89G61XNbbzUt8cOGeQVgG8tB0hsBeoxgEcRWQF4ajJgishYbREjLAb6uRKRHMADgPumRDYguxTV8FDvK1NbLDzZYucMUjvkjaeq3eVeBwDm02U/AfBQU8CJahDBHpoR0rf89H2veiyszxj6JzZOl/0//X82Wue+fXtUEhSuALxqY29bPN5jCOBZRF61OvIZIIci8grgMUDxeK9x3wB4fTOk5sMusYi8BGyXSDPFVxG51YSorSGLaLrsF7aKArDNAMDzdNn/MV32IxAfPu+pz5uMoX/6/3TZH/q+2NF7VYeI/NCO1+uAnyIVkmcfAUJE5gCeA+n0uzakH1od+Ko6XjogqNud6kXn7poOJHHAthoAeGki2ByaeAD40aLPe5ogjH1e5OiteOhDDzros6EGzNpERKuwq4635bnOTdQtHo8dtEXkU1QtgSTkZKwINhSR+ngOJGF49OnXt3MgVYcikpruK96zw8UaIC6qjnlr0J0HYIv3MsZdg8McwGVN4jGsKB4pNhOmdYjBPsLYw2YOLWto5dZzRfFwtVcdSd/jdNlPuWKrctIwdvRHhpKdbmuIh9t+TWqaE3lfQDTbHu7QqBNsJqBSX8tsNYhH6owvjuIWa4CrGjBvHP9uVdgBDS6r1fmNGJvJOVsgHYpIVNVPWt25ike+ZRuvwXrLFsWKJpfO9iwiJz795RhIir70uxCLKkszt5YDR9isEhzuILSFf3c9lyOpoU9lAJ5aiPc+2uVNia+fsDn7JN3Tv4Vv4x1iYk9HUm7rflCzFRheHTpeAuCurTX3Kijf4DasdFllhZaI/NdijxTAxPdSUcd7vXKolibGmEXF6zxiswrOJhzXVa9V8T7HcFvptDLG7J1oTJf9ATbDU2W26H2QdBTLab0nHBp0vjn4ruBiNlonHu7jUxwo5eD392LFtSebFiMltuQ/n43W/9nj92/LhL+YAxk7iMfCGHPR5gtbxpjMGHMN4AT2NePzCgHIpWQMQjzULvcA7i1/dlqDeI8dOspJm+Kh9lgAOMPmNDVbZTbweCu9dxKwk9lofTkbrRdNiAcAzEbrdDZaT9QmLm32G0hdLHwJsvo2m43WlwCubW1Rha9WjhwbTGKMmYTiER2KubB0hqjC8l6beKxCEY8t7izfxxV/36XyuAzlzXhjTK5t1taxvjYVSGaj9UWb8ws6bHIB+5zKEKQO0tloPWkiUZiN1vewD8fVLyCabdtK/UlontFAdWnpDL6Cw69A7eGzOrTZ8iHELWe0Oiuzy7iB90NWWgG0jgYzm6jCR7Z6YBTxqUkeLN+f+6hAbA1lFepeVHpfiyYVt8gsQs14fPzo1mKGMu4D7sy2gOkzWOahJWC6dYetT8cgVSvOrGG/riwJde2J0pGDKj0F7qiy++t5GuPOA7XF/zz9ri2YrELe1FGHG9MmM7PtrLCpuY5dqyLL9z0Qn9WAL5Imk4Jjh8wyCdlLxphURGzBLzmQRrsoedYqQczW8L53wDZpyXPEnn0SIj/R/ZdkQ6XN3Y9/ocE5rGNL5wl6u3DH4OAjkwpSlHRIz0fD/cfB/qHzu8nMLIBA0tUq+lMIyKFc++iTNLKy+/QxPHF6YB0islWBHX++nqffDdYuvpaVkj/VHQWkZUOEnEEM695firSLp5VYv2hZ8pmxnUh4LiK3Xc+Qd8UYk+lZElFJxvosIpNPkH3XEXy70EZslWiMw5krI6QRARmgmzvz1kGC8pfnYmy2B0+xmURO8XcoLT8wYblhV2p/OIGQ0ATkkHmA295BMd6ZhLWsDKs7SGUqYL+w2TWAgYsCQggFpC10efAK4W/rEOHNsZNaFT3B31GuhJBwk5a7pi5GASlngr9bJ3eJoir6JiLXTZ4bTwhpD102ftvU9Y5o8tIqJId908bQq5PnJk/gI4QcDrYKJEP3x3ErBX8VkTNdafQV3TsbHdicwJd7rESST9AXcoYDQuoVkCdjzC3NBKgdbnWL+HP8HSbqdUhEEh9zIsaYC7YQEjolhyN15jCrrgkI+XewXOHNRnT6Elrc8K1E+Hts6cBByHrwdKwlIYQCQvYXlRwtD+PoPMfcIiRfKSCEkLrgJPrnEbEFNhP+pVULt2AhhDRVgZweolEsW3MsAj5gKxWRBexv0Gds+oQQ3wLSO1C7lG3NkQQegL87CMiqZsGN+PY7IRSQtww6UjHEJWJ3aPtS+QjkqaUtBF/VOBzLm/Kt/VaJaYJuCkha5jwRiTsQgF8sFcPBLNFzOKFxH2xH5Z7XXdV4YGypLC/A3XibSG4+EvFeA9c/pwvq5cghc/wWeGbpo+HlXc2UPNnDFljHHWjrDB6BV8fTZX/g+fo9uqB+AbEdGjUOfOWOj0ZXVnH9E7hP44btAQA9EbnquF1ShoPW+dLBvnHwAuJStj8G/Ay2CqnuwDA8NAHRuQGbHW90LirEqmxsyT5zzn80QtpW35ou+2W//ZOu2VNAdH4js2X5IvIYYGAYOlQg+xwrWtagIr1uqHy1fJ/s+btPDsMDP0ITER3Su/FkE7Ibtr4YTZd9X5VsWaKZ0TX7VyCA2/7xYxF5EZFBIIEhdqiMcuw3uWvLlB5DzLZ1GCmu+Gwf4WLHQkSuArFHD8AP2DfA/M5Q0AgubWg+XfbHNVcfY0uiyQSiooCsHFU41gDxIiJXbcyNiEik1dAL7JNiD/sMTeh+V7lDoByH4MQtm8xtHXjfoRp9z+PeUUTmIvIqIvM2Eg4R6alvXh0ENdO3+IlnZqO1a0L3OF32n6fLfqUkbbrsR9Nl/9GSaGZ6hgbZg2MNDrmIXAN4dvx/sX7mIpJrVvtzK8PNa77PATaT1zHcx/hdA15ZtjS2BMpHEZnr3/5uMJMpgvKp2sNVyB8qXvdObdJz+NsIm80br3RZcaI++a3tI63ZJrHe1zl2W1hxzTDQKA9wm+sYAhhOl/1sq3+lHmLFA11SUUCKrNthG4yPAukAYb10mAO4rDgxeqeNuOfw/IXNbgL29coYU0ngNNG4xGZYaF/RC4l7ntbYeBWSTJf9e00uXIh2+Nt94gSrzwocvQkQk09g0BzARdWXH3XI5rNkpyk2x/NWRkVo8glscmeMYfXRku0RxrLpiQ6rkToEZEtE7jr6PAmAs7renNex8a4Hy1QFtbaOonY5QzdXr2Rand6y+7dWheRo/83/yWy0ZvVZt4BogLgFcNKhaiTRIHlR96Z+GiwvOxgsc82yzzydQpiqiNyhG8fBZnqvZxy2CkNE9BTA64bbTwbgYjZaL+gFTwKiASLTauQEm8no0AJoqvd1psLhLZsxxqyMMSdajaSB+zTR+zzxnWUbY/KtZGOC8JZD5poEXRpjTowxt3xhMDghudf2c+05xiRadZzMRuuElq+HY4cgkalzr3XZ7gB/V//04H97gGzrU6x0amXnVK1GFmqHWD/nDdkhZLsUgXqh714M1B6n+LvIognhBDarATO1RdqAD+4s34fMnYM9G6lGNBm8ny77ETaLV06xmUAv4sw+fSPF5uXFVc1zHVkotmuwX73L/wcAwNKbc4jATbYAAAAASUVORK5CYII=;" parent="1" vertex="1">
          <mxGeometry x="100" y="830" width="130" height="20.39" as="geometry" />
        </mxCell>
      </root>
    </mxGraphModel>
  </diagram>
  <diagram name="Headerline" id="NJhi06rIuQQIIxOT3ORP">
    <mxGraphModel dx="1378" dy="1020" grid="1" gridSize="10" guides="1" tooltips="1" connect="1" arrows="1" fold="1" page="1" pageScale="1" pageWidth="1600" pageHeight="900" background="#32373C" math="0" shadow="0">
      <root>
        <mxCell id="PbSv6ICrvSJmGgequ3rP-0" />
        <mxCell id="PbSv6ICrvSJmGgequ3rP-1" parent="PbSv6ICrvSJmGgequ3rP-0" />
        <mxCell id="PbSv6ICrvSJmGgequ3rP-2" value="" style="shape=image;verticalLabelPosition=bottom;labelBackgroundColor=default;verticalAlign=top;aspect=fixed;imageAspect=0;image=data:image/png,iVBORw0KGgoAAAANSUhEUgAAAZAAAAA/CAYAAADOgp5DAAAACXBIWXMAAAxOAAAMTgF/d4wjAAAKT2lDQ1BQaG90b3Nob3AgSUNDIHByb2ZpbGUAAHjanVNnVFPpFj333vRCS4iAlEtvUhUIIFJCi4AUkSYqIQkQSoghodkVUcERRUUEG8igiAOOjoCMFVEsDIoK2AfkIaKOg6OIisr74Xuja9a89+bN/rXXPues852zzwfACAyWSDNRNYAMqUIeEeCDx8TG4eQuQIEKJHAAEAizZCFz/SMBAPh+PDwrIsAHvgABeNMLCADATZvAMByH/w/qQplcAYCEAcB0kThLCIAUAEB6jkKmAEBGAYCdmCZTAKAEAGDLY2LjAFAtAGAnf+bTAICd+Jl7AQBblCEVAaCRACATZYhEAGg7AKzPVopFAFgwABRmS8Q5ANgtADBJV2ZIALC3AMDOEAuyAAgMADBRiIUpAAR7AGDIIyN4AISZABRG8lc88SuuEOcqAAB4mbI8uSQ5RYFbCC1xB1dXLh4ozkkXKxQ2YQJhmkAuwnmZGTKBNA/g88wAAKCRFRHgg/P9eM4Ors7ONo62Dl8t6r8G/yJiYuP+5c+rcEAAAOF0ftH+LC+zGoA7BoBt/qIl7gRoXgugdfeLZrIPQLUAoOnaV/Nw+H48PEWhkLnZ2eXk5NhKxEJbYcpXff5nwl/AV/1s+X48/Pf14L7iJIEyXYFHBPjgwsz0TKUcz5IJhGLc5o9H/LcL//wd0yLESWK5WCoU41EScY5EmozzMqUiiUKSKcUl0v9k4t8s+wM+3zUAsGo+AXuRLahdYwP2SycQWHTA4vcAAPK7b8HUKAgDgGiD4c93/+8//UegJQCAZkmScQAAXkQkLlTKsz/HCAAARKCBKrBBG/TBGCzABhzBBdzBC/xgNoRCJMTCQhBCCmSAHHJgKayCQiiGzbAdKmAv1EAdNMBRaIaTcA4uwlW4Dj1wD/phCJ7BKLyBCQRByAgTYSHaiAFiilgjjggXmYX4IcFIBBKLJCDJiBRRIkuRNUgxUopUIFVIHfI9cgI5h1xGupE7yAAygvyGvEcxlIGyUT3UDLVDuag3GoRGogvQZHQxmo8WoJvQcrQaPYw2oefQq2gP2o8+Q8cwwOgYBzPEbDAuxsNCsTgsCZNjy7EirAyrxhqwVqwDu4n1Y8+xdwQSgUXACTYEd0IgYR5BSFhMWE7YSKggHCQ0EdoJNwkDhFHCJyKTqEu0JroR+cQYYjIxh1hILCPWEo8TLxB7iEPENyQSiUMyJ7mQAkmxpFTSEtJG0m5SI+ksqZs0SBojk8naZGuyBzmULCAryIXkneTD5DPkG+Qh8lsKnWJAcaT4U+IoUspqShnlEOU05QZlmDJBVaOaUt2ooVQRNY9aQq2htlKvUYeoEzR1mjnNgxZJS6WtopXTGmgXaPdpr+h0uhHdlR5Ol9BX0svpR+iX6AP0dwwNhhWDx4hnKBmbGAcYZxl3GK+YTKYZ04sZx1QwNzHrmOeZD5lvVVgqtip8FZHKCpVKlSaVGyovVKmqpqreqgtV81XLVI+pXlN9rkZVM1PjqQnUlqtVqp1Q61MbU2epO6iHqmeob1Q/pH5Z/YkGWcNMw09DpFGgsV/jvMYgC2MZs3gsIWsNq4Z1gTXEJrHN2Xx2KruY/R27iz2qqaE5QzNKM1ezUvOUZj8H45hx+Jx0TgnnKKeX836K3hTvKeIpG6Y0TLkxZVxrqpaXllirSKtRq0frvTau7aedpr1Fu1n7gQ5Bx0onXCdHZ4/OBZ3nU9lT3acKpxZNPTr1ri6qa6UbobtEd79up+6Ynr5egJ5Mb6feeb3n+hx9L/1U/W36p/VHDFgGswwkBtsMzhg8xTVxbzwdL8fb8VFDXcNAQ6VhlWGX4YSRudE8o9VGjUYPjGnGXOMk423GbcajJgYmISZLTepN7ppSTbmmKaY7TDtMx83MzaLN1pk1mz0x1zLnm+eb15vft2BaeFostqi2uGVJsuRaplnutrxuhVo5WaVYVVpds0atna0l1rutu6cRp7lOk06rntZnw7Dxtsm2qbcZsOXYBtuutm22fWFnYhdnt8Wuw+6TvZN9un2N/T0HDYfZDqsdWh1+c7RyFDpWOt6azpzuP33F9JbpL2dYzxDP2DPjthPLKcRpnVOb00dnF2e5c4PziIuJS4LLLpc+Lpsbxt3IveRKdPVxXeF60vWdm7Obwu2o26/uNu5p7ofcn8w0nymeWTNz0MPIQ+BR5dE/C5+VMGvfrH5PQ0+BZ7XnIy9jL5FXrdewt6V3qvdh7xc+9j5yn+M+4zw33jLeWV/MN8C3yLfLT8Nvnl+F30N/I/9k/3r/0QCngCUBZwOJgUGBWwL7+Hp8Ib+OPzrbZfay2e1BjKC5QRVBj4KtguXBrSFoyOyQrSH355jOkc5pDoVQfujW0Adh5mGLw34MJ4WHhVeGP45wiFga0TGXNXfR3ENz30T6RJZE3ptnMU85ry1KNSo+qi5qPNo3ujS6P8YuZlnM1VidWElsSxw5LiquNm5svt/87fOH4p3iC+N7F5gvyF1weaHOwvSFpxapLhIsOpZATIhOOJTwQRAqqBaMJfITdyWOCnnCHcJnIi/RNtGI2ENcKh5O8kgqTXqS7JG8NXkkxTOlLOW5hCepkLxMDUzdmzqeFpp2IG0yPTq9MYOSkZBxQqohTZO2Z+pn5mZ2y6xlhbL+xW6Lty8elQfJa7OQrAVZLQq2QqboVFoo1yoHsmdlV2a/zYnKOZarnivN7cyzytuQN5zvn//tEsIS4ZK2pYZLVy0dWOa9rGo5sjxxedsK4xUFK4ZWBqw8uIq2Km3VT6vtV5eufr0mek1rgV7ByoLBtQFr6wtVCuWFfevc1+1dT1gvWd+1YfqGnRs+FYmKrhTbF5cVf9go3HjlG4dvyr+Z3JS0qavEuWTPZtJm6ebeLZ5bDpaql+aXDm4N2dq0Dd9WtO319kXbL5fNKNu7g7ZDuaO/PLi8ZafJzs07P1SkVPRU+lQ27tLdtWHX+G7R7ht7vPY07NXbW7z3/T7JvttVAVVN1WbVZftJ+7P3P66Jqun4lvttXa1ObXHtxwPSA/0HIw6217nU1R3SPVRSj9Yr60cOxx++/p3vdy0NNg1VjZzG4iNwRHnk6fcJ3/ceDTradox7rOEH0x92HWcdL2pCmvKaRptTmvtbYlu6T8w+0dbq3nr8R9sfD5w0PFl5SvNUyWna6YLTk2fyz4ydlZ19fi753GDborZ752PO32oPb++6EHTh0kX/i+c7vDvOXPK4dPKy2+UTV7hXmq86X23qdOo8/pPTT8e7nLuarrlca7nuer21e2b36RueN87d9L158Rb/1tWeOT3dvfN6b/fF9/XfFt1+cif9zsu72Xcn7q28T7xf9EDtQdlD3YfVP1v+3Njv3H9qwHeg89HcR/cGhYPP/pH1jw9DBY+Zj8uGDYbrnjg+OTniP3L96fynQ89kzyaeF/6i/suuFxYvfvjV69fO0ZjRoZfyl5O/bXyl/erA6xmv28bCxh6+yXgzMV70VvvtwXfcdx3vo98PT+R8IH8o/2j5sfVT0Kf7kxmTk/8EA5jz/GMzLdsAAAAgY0hSTQAAeiUAAICDAAD5/wAAgOkAAHUwAADqYAAAOpgAABdvkl/FRgAAC+lJREFUeNrsnUFS474Sxj9RHCBvm83fnABzAsIJJlQOMMkJBlZZAsusAicgHCBF5gTjOQGeE+DZZPv8TtBvkfZMij9YSmzZMvl+VVlMhYntbqm/bkmWDAghhJB3mC77twBuPvr+iCYihBCyDxQQQgghFBBCCCEUEEIIIRQQQgghFBBCCCGEAkIIIaQKxzQBIaQJpsu+lHydzEbrC1opOBYAEgoIIYSQnZiN1hmA7KPvOYRFCCFkLygghBBCKCCEEEIoIIQQQigghBBCKCCEEEIIBYQQQkgV9n4PRERiAD0AkX7qJgWQA8iMMVkXjCkig61/Fvapm1xtAwCpMSYP2B69LTvEHi6R6QfGmKTLHXG67G/bqK6286cP6Xp+Eo6/Cx8PKrT7fDZap20+h9khGAwBnOsDxy3ca6qfnwBWbQZOEYnUDqdqC19i4UpS2MYYs2rZLkMAX1qySbbVRhJjTNpAEJh/9H3Zm9X6f7f7lG+KxOM7gFWdgjJd9scAvjr86cAxMWqSp9lovfDtd00Qir4x9BQbv89G61XNbbzUt8cOGeQVgG8tB0hsBeoxgEcRWQF4ajJgishYbREjLAb6uRKRHMADgPumRDYguxTV8FDvK1NbLDzZYucMUjvkjaeq3eVeBwDm02U/AfBQU8CJahDBHpoR0rf89H2veiyszxj6JzZOl/0//X82Wue+fXtUEhSuALxqY29bPN5jCOBZRF61OvIZIIci8grgMUDxeK9x3wB4fTOk5sMusYi8BGyXSDPFVxG51YSorSGLaLrsF7aKArDNAMDzdNn/MV32IxAfPu+pz5uMoX/6/3TZH/q+2NF7VYeI/NCO1+uAnyIVkmcfAUJE5gCeA+n0uzakH1od+Ko6XjogqNud6kXn7poOJHHAthoAeGki2ByaeAD40aLPe5ogjH1e5OiteOhDDzros6EGzNpERKuwq4635bnOTdQtHo8dtEXkU1QtgSTkZKwINhSR+ngOJGF49OnXt3MgVYcikpruK96zw8UaIC6qjnlr0J0HYIv3MsZdg8McwGVN4jGsKB4pNhOmdYjBPsLYw2YOLWto5dZzRfFwtVcdSd/jdNlPuWKrctIwdvRHhpKdbmuIh9t+TWqaE3lfQDTbHu7QqBNsJqBSX8tsNYhH6owvjuIWa4CrGjBvHP9uVdgBDS6r1fmNGJvJOVsgHYpIVNVPWt25ike+ZRuvwXrLFsWKJpfO9iwiJz795RhIir70uxCLKkszt5YDR9isEhzuILSFf3c9lyOpoU9lAJ5aiPc+2uVNia+fsDn7JN3Tv4Vv4x1iYk9HUm7rflCzFRheHTpeAuCurTX3Kijf4DasdFllhZaI/NdijxTAxPdSUcd7vXKolibGmEXF6zxiswrOJhzXVa9V8T7HcFvptDLG7J1oTJf9ATbDU2W26H2QdBTLab0nHBp0vjn4ruBiNlonHu7jUxwo5eD392LFtSebFiMltuQ/n43W/9nj92/LhL+YAxk7iMfCGHPR5gtbxpjMGHMN4AT2NePzCgHIpWQMQjzULvcA7i1/dlqDeI8dOspJm+Kh9lgAOMPmNDVbZTbweCu9dxKwk9lofTkbrRdNiAcAzEbrdDZaT9QmLm32G0hdLHwJsvo2m43WlwCubW1Rha9WjhwbTGKMmYTiER2KubB0hqjC8l6beKxCEY8t7izfxxV/36XyuAzlzXhjTK5t1taxvjYVSGaj9UWb8ws6bHIB+5zKEKQO0tloPWkiUZiN1vewD8fVLyCabdtK/UlontFAdWnpDL6Cw69A7eGzOrTZ8iHELWe0Oiuzy7iB90NWWgG0jgYzm6jCR7Z6YBTxqUkeLN+f+6hAbA1lFepeVHpfiyYVt8gsQs14fPzo1mKGMu4D7sy2gOkzWOahJWC6dYetT8cgVSvOrGG/riwJde2J0pGDKj0F7qiy++t5GuPOA7XF/zz9ri2YrELe1FGHG9MmM7PtrLCpuY5dqyLL9z0Qn9WAL5Imk4Jjh8wyCdlLxphURGzBLzmQRrsoedYqQczW8L53wDZpyXPEnn0SIj/R/ZdkQ6XN3Y9/ocE5rGNL5wl6u3DH4OAjkwpSlHRIz0fD/cfB/qHzu8nMLIBA0tUq+lMIyKFc++iTNLKy+/QxPHF6YB0islWBHX++nqffDdYuvpaVkj/VHQWkZUOEnEEM695firSLp5VYv2hZ8pmxnUh4LiK3Xc+Qd8UYk+lZElFJxvosIpNPkH3XEXy70EZslWiMw5krI6QRARmgmzvz1kGC8pfnYmy2B0+xmURO8XcoLT8wYblhV2p/OIGQ0ATkkHmA295BMd6ZhLWsDKs7SGUqYL+w2TWAgYsCQggFpC10efAK4W/rEOHNsZNaFT3B31GuhJBwk5a7pi5GASlngr9bJ3eJoir6JiLXTZ4bTwhpD102ftvU9Y5o8tIqJId908bQq5PnJk/gI4QcDrYKJEP3x3ErBX8VkTNdafQV3TsbHdicwJd7rESST9AXcoYDQuoVkCdjzC3NBKgdbnWL+HP8HSbqdUhEEh9zIsaYC7YQEjolhyN15jCrrgkI+XewXOHNRnT6Elrc8K1E+Hts6cBByHrwdKwlIYQCQvYXlRwtD+PoPMfcIiRfKSCEkLrgJPrnEbEFNhP+pVULt2AhhDRVgZweolEsW3MsAj5gKxWRBexv0Gds+oQQ3wLSO1C7lG3NkQQegL87CMiqZsGN+PY7IRSQtww6UjHEJWJ3aPtS+QjkqaUtBF/VOBzLm/Kt/VaJaYJuCkha5jwRiTsQgF8sFcPBLNFzOKFxH2xH5Z7XXdV4YGypLC/A3XibSG4+EvFeA9c/pwvq5cghc/wWeGbpo+HlXc2UPNnDFljHHWjrDB6BV8fTZX/g+fo9uqB+AbEdGjUOfOWOj0ZXVnH9E7hP44btAQA9EbnquF1ShoPW+dLBvnHwAuJStj8G/Ay2CqnuwDA8NAHRuQGbHW90LirEqmxsyT5zzn80QtpW35ou+2W//ZOu2VNAdH4js2X5IvIYYGAYOlQg+xwrWtagIr1uqHy1fJ/s+btPDsMDP0ITER3Su/FkE7Ibtr4YTZd9X5VsWaKZ0TX7VyCA2/7xYxF5EZFBIIEhdqiMcuw3uWvLlB5DzLZ1GCmu+Gwf4WLHQkSuArFHD8AP2DfA/M5Q0AgubWg+XfbHNVcfY0uiyQSiooCsHFU41gDxIiJXbcyNiEik1dAL7JNiD/sMTeh+V7lDoByH4MQtm8xtHXjfoRp9z+PeUUTmIvIqIvM2Eg4R6alvXh0ENdO3+IlnZqO1a0L3OF32n6fLfqUkbbrsR9Nl/9GSaGZ6hgbZg2MNDrmIXAN4dvx/sX7mIpJrVvtzK8PNa77PATaT1zHcx/hdA15ZtjS2BMpHEZnr3/5uMJMpgvKp2sNVyB8qXvdObdJz+NsIm80br3RZcaI++a3tI63ZJrHe1zl2W1hxzTDQKA9wm+sYAhhOl/1sq3+lHmLFA11SUUCKrNthG4yPAukAYb10mAO4rDgxeqeNuOfw/IXNbgL29coYU0ngNNG4xGZYaF/RC4l7ntbYeBWSTJf9e00uXIh2+Nt94gSrzwocvQkQk09g0BzARdWXH3XI5rNkpyk2x/NWRkVo8glscmeMYfXRku0RxrLpiQ6rkToEZEtE7jr6PAmAs7renNex8a4Hy1QFtbaOonY5QzdXr2Rand6y+7dWheRo/83/yWy0ZvVZt4BogLgFcNKhaiTRIHlR96Z+GiwvOxgsc82yzzydQpiqiNyhG8fBZnqvZxy2CkNE9BTA64bbTwbgYjZaL+gFTwKiASLTauQEm8no0AJoqvd1psLhLZsxxqyMMSdajaSB+zTR+zzxnWUbY/KtZGOC8JZD5poEXRpjTowxt3xhMDghudf2c+05xiRadZzMRuuElq+HY4cgkalzr3XZ7gB/V//04H97gGzrU6x0amXnVK1GFmqHWD/nDdkhZLsUgXqh714M1B6n+LvIognhBDarATO1RdqAD+4s34fMnYM9G6lGNBm8ny77ETaLV06xmUAv4sw+fSPF5uXFVc1zHVkotmuwX73L/wcAwNKbc4jATbYAAAAASUVORK5CYII=;" parent="PbSv6ICrvSJmGgequ3rP-1" vertex="1">
          <mxGeometry x="100" y="830" width="130" height="20.39" as="geometry" />
        </mxCell>
        <mxCell id="gHKghs6dW3MUxUpLncbN-0" value="" style="endArrow=none;html=1;rounded=0;strokeWidth=6;strokeColor=#82B941;" parent="PbSv6ICrvSJmGgequ3rP-1" edge="1">
          <mxGeometry width="50" height="50" relative="1" as="geometry">
            <mxPoint x="100" y="50" as="sourcePoint" />
            <mxPoint x="320" y="50" as="targetPoint" />
          </mxGeometry>
        </mxCell>
      </root>
    </mxGraphModel>
  </diagram>
  <diagram name="Headerline-White" id="3Ob_sJFByfaHHAdXJgp4">
    <mxGraphModel dx="1378" dy="1020" grid="1" gridSize="10" guides="1" tooltips="1" connect="1" arrows="1" fold="1" page="1" pageScale="1" pageWidth="1600" pageHeight="900" background="none" math="0" shadow="0">
      <root>
        <mxCell id="zFPFfLbI-kDsFVuQKsyc-0" />
        <mxCell id="zFPFfLbI-kDsFVuQKsyc-1" parent="zFPFfLbI-kDsFVuQKsyc-0" />
        <mxCell id="zFPFfLbI-kDsFVuQKsyc-3" value="" style="endArrow=none;html=1;rounded=0;strokeWidth=6;strokeColor=#82B941;" parent="zFPFfLbI-kDsFVuQKsyc-1" edge="1">
          <mxGeometry width="50" height="50" relative="1" as="geometry">
            <mxPoint x="100" y="50" as="sourcePoint" />
            <mxPoint x="320" y="50" as="targetPoint" />
          </mxGeometry>
        </mxCell>
        <mxCell id="ZganEGPtSy-8KwqqTywr-0" value="" style="shape=image;verticalLabelPosition=bottom;labelBackgroundColor=default;verticalAlign=top;aspect=fixed;imageAspect=0;image=data:image/jpeg,/9j/4QpPRXhpZgAATU0AKgAAAAgABwESAAMAAAABAAEAAAEaAAUAAAABAAAAYgEbAAUAAAABAAAAagEoAAMAAAABAAIAAAExAAIAAAAeAAAAcgEyAAIAAAAUAAAAkIdpAAQAAAABAAAApAAAANAALmMAAAAnEAAuYwAAACcQQWRvYmUgUGhvdG9zaG9wIENTNSBNYWNpbnRvc2gAMjAxMTowODoyMiAyMjowNzoyNwAAA6ABAAMAAAABAAEAAKACAAQAAAABAAACdKADAAQAAAABAAAAeAAAAAAAAAAGAQMAAwAAAAEABgAAARoABQAAAAEAAAEeARsABQAAAAEAAAEmASgAAwAAAAEAAgAAAgEABAAAAAEAAAEuAgIABAAAAAEAAAkZAAAAAAAAAEgAAAABAAAASAAAAAH/2P/tAAxBZG9iZV9DTQAB/+4ADkFkb2JlAGSAAAAAAf/bAIQADAgICAkIDAkJDBELCgsRFQ8MDA8VGBMTFRMTGBEMDAwMDAwRDAwMDAwMDAwMDAwMDAwMDAwMDAwMDAwMDAwMDAENCwsNDg0QDg4QFA4ODhQUDg4ODhQRDAwMDAwREQwMDAwMDBEMDAwMDAwMDAwMDAwMDAwMDAwMDAwMDAwMDAwM/8AAEQgAHwCgAwEiAAIRAQMRAf/dAAQACv/EAT8AAAEFAQEBAQEBAAAAAAAAAAMAAQIEBQYHCAkKCwEAAQUBAQEBAQEAAAAAAAAAAQACAwQFBgcICQoLEAABBAEDAgQCBQcGCAUDDDMBAAIRAwQhEjEFQVFhEyJxgTIGFJGhsUIjJBVSwWIzNHKC0UMHJZJT8OHxY3M1FqKygyZEk1RkRcKjdDYX0lXiZfKzhMPTdePzRieUpIW0lcTU5PSltcXV5fVWZnaGlqa2xtbm9jdHV2d3h5ent8fX5/cRAAICAQIEBAMEBQYHBwYFNQEAAhEDITESBEFRYXEiEwUygZEUobFCI8FS0fAzJGLhcoKSQ1MVY3M08SUGFqKygwcmNcLSRJNUoxdkRVU2dGXi8rOEw9N14/NGlKSFtJXE1OT0pbXF1eX1VmZ2hpamtsbW5vYnN0dXZ3eHl6e3x//aAAwDAQACEQMRAD8A9VSXP/W36wZfSa8TE6dU27qXUrPSxhZ9BsFjXWOEs3e+2qtvvr+n6r/5pVWdJ/xgObus69j1vPLGYrHtH9V7m1ud/mJKeqSXG9Qv+vfQKHdRvysbrGHTDsin0vQsDJ9zmOq+j/xn6X0/p+jYt3O69VR9XH9dx2G2s44yKa3e0neAamWRu2e57fUSU6qS4/p9X196th09RHVsbBrymC2qlmMLIY8bq93quc5vs/4SxFt6X/jBqrdZT1ujIsaJbS7FZWHR+b6g3bUlPVpLJ+rHVM7qvR6srqGM7Ey9zmW1vrfVJaYbYyq/9I1ljNrlg4/V/rX9ZczKPQ76OndMxLTS3Isr9Wywj86HhzPo7bdn6L067qv53/BJT2iS5c9H+voEj6wUk9gcRgB+fuUuhdd6wzrNn1e+sDKvtoq9fGyaJDLWTtPsd+f9L9z+au/R/o/UvSnpklg9V6r1LG63Vh4YFotomuggQbXG0Cyyz6baq2V+pZt/cU24P1qdq/qVNZP5rKQ4D5vDXKH3wZSjGE5mJ4ZcIj+cpRW8W9AmnbTOIaC46ACSVzl+f17o19L+pWV5mHc8VuexuxzZ/qhvu2/pP8J6mz/BrU6tV1WxrD0++uhjQ/1xY3du+js26O+j+kSGcETqMuKFcUCPX6vl68KuLfQ6dGzh5uLnU+viWC2qS3c2YkfFHXIfV6jrlvTg7puTVRj73eyxm506bvdtK2cLG+sTMqt2bl024wn1K2Mhx0OyHbf303DzEpxgTjl6q9QA4Nf8L5VRkSBodXWSWD1XqfVKOt04OFteLqZZU8AN9Qm39LY/+c9OplfqPYxTOB9adsjqlW7930Wx/nQXJ3vgmQjCc+A8MuER3/wpRVxb0CadtUcHJ6jbmZdWVjinHpcBjW/6QEu3O5/ksVXofU82/Iyun9RDPtWIRNjNA5rvL/pbv3LP5tLpGfl5PVep497w6rGe1tLQ0CATZPuH0voIDNGRxkGQ45SjVfpQEuKM/wDFVxA1vqX/0N76/MY7rfQBbc/FqsfbW7JrcGPr3PxW+pXaf5t7f31o/wDMq3/54Osf+xP/AKjV/wCsuF0HOwW4/W7a6Ki+abX2Nqc2wNdrVY87d3pepvZ9D0v5xZOP9Sj6LPsP1i6kMUgekK7wWbfzdhY3Zt/qIKYdT+qmLiYF2R1L6wdVOExv6cWXeo0tJ27XU+jZ6u9x2+nsVux/Q8T6ijc6/N6P9mbWHhsXvrsIqZY1jxjbH/pN/wBGtVcr6ndLrYx/X+uZuTih4215eUK6i7s38x2//i7GWLocivo9vRnVXmkdIfQGk7gyn0C3azZa0tYyr0/5p9b/APi0VPM9M+qnU3dPx7el/WLLx8G6tttFLq2OLWWD1WtO1/pt+l/gv0asn6q/WcCWfWfI3j6O6lhE/wAr3oeJ9S6DQ09J+sHUGYRJ9NtGQ11YMnfsdU0M+miP+pVux32n6xdUdRB9QG8NG387c5zS3agps/Ufred1fpdzuoObZk4l7qHXNAAeA1ljX+zazd+l2exjN/8AOLmfqT0P9p4OSB1XO6fdjXllmNiXek2C1m26yva79I57bad//Af8Gu0+rmH0TC6cMbolld2Mx53212C0usIa5zrbGE/pNnp/1K/T9P8ARbFi5n1a+rfUOr239O6o/A6o5z/WZhZDA/eHRkOdT77a3+p/PtZ6f6b+dZ6qSmx/zKt/+eDrH/sT/wCo1VwekdF6f9bMau3q+bm9YZU51VOSfVHpubbo/IFH6Pb+lsZV9oZ/4Kj/APMrN/8Anj6r/wBvf7FY6B0b6u9L6jf9mzPtvV3hwvsyL225IaDX6gcxu3Z7vR9R3p7/AOZ9T/BIqXzP/Fng/wDhc/kyl0CzrsLBf1ujMfkbcyustrx9zBub+l9/pkeq7+cs+i78xaKiw45QOUn9PIZj+7wxREVfm8/9dP8Ak2j/AMMs/wCotW7cCangaktMD5Kj1zDwczFrrzsj7NW20Pa/cxkuDXtDJuDm/Rc5aKEcZGXLI/LMQA/weLiUBqT3pwfqWQeigA6i1wPlo13/AFJV7O6jbjdS6fh1ta5uY6wWEzuaGNDmlkLPr6F0y+623pXULMfcZsrxLWlonjRkua36W3/wNHwuk9Ow+otsuzH5XUC0ioZFgc8Ah0+nX9P6Hqf+CKPHHNHHDFwgcJiDk4v0Iy/d/rxWgSAArbqgzP8AxZYP/hc/kyV0CzrsLBf1ujMfkbcyustrx9zBub+l9/pkeq76dn0XfmLRUuHHKByX+nkMx/d4Yroir82vXgYlWXdm1sjIyABa/c4yGja32F2xv0fzWrH6B/y31r/jGfluXQLO6fhYNGfnX4+R6197gcircx3pkF+0bWAPZ9J384hPHc8RiABCUpS/woy/7qSCNRXQv//Z/+0RXlBob3Rvc2hvcCAzLjAAOEJJTQQEAAAAAAAZHAFaAAMbJUccAgAAAgAAHAIFAAVEcnVjawA4QklNBCUAAAAAABAkoLuA59gpfuUpb3Wop2Z6OEJJTQQ6AAAAAACTAAAAEAAAAAEAAAAAAAtwcmludE91dHB1dAAAAAUAAAAAQ2xyU2VudW0AAAAAQ2xyUwAAAABSR0JDAAAAAEludGVlbnVtAAAAAEludGUAAAAAQ2xybQAAAABNcEJsYm9vbAEAAAAPcHJpbnRTaXh0ZWVuQml0Ym9vbAAAAAALcHJpbnRlck5hbWVURVhUAAAAAQAAADhCSU0EOwAAAAABsgAAABAAAAABAAAAAAAScHJpbnRPdXRwdXRPcHRpb25zAAAAEgAAAABDcHRuYm9vbAAAAAAAQ2xicmJvb2wAAAAAAFJnc01ib29sAAAAAABDcm5DYm9vbAAAAAAAQ250Q2Jvb2wAAAAAAExibHNib29sAAAAAABOZ3R2Ym9vbAAAAAAARW1sRGJvb2wAAAAAAEludHJib29sAAAAAABCY2tnT2JqYwAAAAEAAAAAAABSR0JDAAAAAwAAAABSZCAgZG91YkBv4AAAAAAAAAAAAEdybiBkb3ViQG/gAAAAAAAAAAAAQmwgIGRvdWJAb+AAAAAAAAAAAABCcmRUVW50RiNSbHQAAAAAAAAAAAAAAABCbGQgVW50RiNSbHQAAAAAAAAAAAAAAABSc2x0VW50RiNQeGxAcwAAAAAAAAAAAAp2ZWN0b3JEYXRhYm9vbAEAAAAAUGdQc2VudW0AAAAAUGdQcwAAAABQZ1BDAAAAAExlZnRVbnRGI1JsdAAAAAAAAAAAAAAAAFRvcCBVbnRGI1JsdAAAAAAAAAAAAAAAAFNjbCBVbnRGI1ByY0BZAAAAAAAAOEJJTQPtAAAAAAAQATAAAAABAAIBMAAAAAEAAjhCSU0EJgAAAAAADgAAAAAAAAAAAAA/gAAAOEJJTQQNAAAAAAAEAAAAHjhCSU0EGQAAAAAABAAAAB44QklNA/MAAAAAAAkAAAAAAAAAAAEAOEJJTScQAAAAAAAKAAEAAAAAAAAAAjhCSU0D9QAAAAAASAAvZmYAAQBsZmYABgAAAAAAAQAvZmYAAQChmZoABgAAAAAAAQAyAAAAAQBaAAAABgAAAAAAAQA1AAAAAQAtAAAABgAAAAAAAThCSU0D+AAAAAAAcAAA/////////////////////////////wPoAAAAAP////////////////////////////8D6AAAAAD/////////////////////////////A+gAAAAA/////////////////////////////wPoAAA4QklNBAgAAAAAABAAAAABAAACQAAAAkAAAAAAOEJJTQQeAAAAAAAEAAAAADhCSU0EGgAAAAADQwAAAAYAAAAAAAAAAAAAAHgAAAJ0AAAABwBFAHMAZQBuAHQAcgBpAAAAAQAAAAAAAAAAAAAAAAAAAAAAAAABAAAAAAAAAAAAAAJ0AAAAeAAAAAAAAAAAAAAAAAAAAAABAAAAAAAAAAAAAAAAAAAAAAAAABAAAAABAAAAAAAAbnVsbAAAAAIAAAAGYm91bmRzT2JqYwAAAAEAAAAAAABSY3QxAAAABAAAAABUb3AgbG9uZwAAAAAAAAAATGVmdGxvbmcAAAAAAAAAAEJ0b21sb25nAAAAeAAAAABSZ2h0bG9uZwAAAnQAAAAGc2xpY2VzVmxMcwAAAAFPYmpjAAAAAQAAAAAABXNsaWNlAAAAEgAAAAdzbGljZUlEbG9uZwAAAAAAAAAHZ3JvdXBJRGxvbmcAAAAAAAAABm9yaWdpbmVudW0AAAAMRVNsaWNlT3JpZ2luAAAADWF1dG9HZW5lcmF0ZWQAAAAAVHlwZWVudW0AAAAKRVNsaWNlVHlwZQAAAABJbWcgAAAABmJvdW5kc09iamMAAAABAAAAAAAAUmN0MQAAAAQAAAAAVG9wIGxvbmcAAAAAAAAAAExlZnRsb25nAAAAAAAAAABCdG9tbG9uZwAAAHgAAAAAUmdodGxvbmcAAAJ0AAAAA3VybFRFWFQAAAABAAAAAAAAbnVsbFRFWFQAAAABAAAAAAAATXNnZVRFWFQAAAABAAAAAAAGYWx0VGFnVEVYVAAAAAEAAAAAAA5jZWxsVGV4dElzSFRNTGJvb2wBAAAACGNlbGxUZXh0VEVYVAAAAAEAAAAAAAlob3J6QWxpZ25lbnVtAAAAD0VTbGljZUhvcnpBbGlnbgAAAAdkZWZhdWx0AAAACXZlcnRBbGlnbmVudW0AAAAPRVNsaWNlVmVydEFsaWduAAAAB2RlZmF1bHQAAAALYmdDb2xvclR5cGVlbnVtAAAAEUVTbGljZUJHQ29sb3JUeXBlAAAAAE5vbmUAAAAJdG9wT3V0c2V0bG9uZwAAAAAAAAAKbGVmdE91dHNldGxvbmcAAAAAAAAADGJvdHRvbU91dHNldGxvbmcAAAAAAAAAC3JpZ2h0T3V0c2V0bG9uZwAAAAAAOEJJTQQoAAAAAAAMAAAAAj/wAAAAAAAAOEJJTQQUAAAAAAAEAAAAAjhCSU0EDAAAAAAJNQAAAAEAAACgAAAAHwAAAeAAADogAAAJGQAYAAH/2P/tAAxBZG9iZV9DTQAB/+4ADkFkb2JlAGSAAAAAAf/bAIQADAgICAkIDAkJDBELCgsRFQ8MDA8VGBMTFRMTGBEMDAwMDAwRDAwMDAwMDAwMDAwMDAwMDAwMDAwMDAwMDAwMDAENCwsNDg0QDg4QFA4ODhQUDg4ODhQRDAwMDAwREQwMDAwMDBEMDAwMDAwMDAwMDAwMDAwMDAwMDAwMDAwMDAwM/8AAEQgAHwCgAwEiAAIRAQMRAf/dAAQACv/EAT8AAAEFAQEBAQEBAAAAAAAAAAMAAQIEBQYHCAkKCwEAAQUBAQEBAQEAAAAAAAAAAQACAwQFBgcICQoLEAABBAEDAgQCBQcGCAUDDDMBAAIRAwQhEjEFQVFhEyJxgTIGFJGhsUIjJBVSwWIzNHKC0UMHJZJT8OHxY3M1FqKygyZEk1RkRcKjdDYX0lXiZfKzhMPTdePzRieUpIW0lcTU5PSltcXV5fVWZnaGlqa2xtbm9jdHV2d3h5ent8fX5/cRAAICAQIEBAMEBQYHBwYFNQEAAhEDITESBEFRYXEiEwUygZEUobFCI8FS0fAzJGLhcoKSQ1MVY3M08SUGFqKygwcmNcLSRJNUoxdkRVU2dGXi8rOEw9N14/NGlKSFtJXE1OT0pbXF1eX1VmZ2hpamtsbW5vYnN0dXZ3eHl6e3x//aAAwDAQACEQMRAD8A9VSXP/W36wZfSa8TE6dU27qXUrPSxhZ9BsFjXWOEs3e+2qtvvr+n6r/5pVWdJ/xgObus69j1vPLGYrHtH9V7m1ud/mJKeqSXG9Qv+vfQKHdRvysbrGHTDsin0vQsDJ9zmOq+j/xn6X0/p+jYt3O69VR9XH9dx2G2s44yKa3e0neAamWRu2e57fUSU6qS4/p9X196th09RHVsbBrymC2qlmMLIY8bq93quc5vs/4SxFt6X/jBqrdZT1ujIsaJbS7FZWHR+b6g3bUlPVpLJ+rHVM7qvR6srqGM7Ey9zmW1vrfVJaYbYyq/9I1ljNrlg4/V/rX9ZczKPQ76OndMxLTS3Isr9Wywj86HhzPo7bdn6L067qv53/BJT2iS5c9H+voEj6wUk9gcRgB+fuUuhdd6wzrNn1e+sDKvtoq9fGyaJDLWTtPsd+f9L9z+au/R/o/UvSnpklg9V6r1LG63Vh4YFotomuggQbXG0Cyyz6baq2V+pZt/cU24P1qdq/qVNZP5rKQ4D5vDXKH3wZSjGE5mJ4ZcIj+cpRW8W9AmnbTOIaC46ACSVzl+f17o19L+pWV5mHc8VuexuxzZ/qhvu2/pP8J6mz/BrU6tV1WxrD0++uhjQ/1xY3du+js26O+j+kSGcETqMuKFcUCPX6vl68KuLfQ6dGzh5uLnU+viWC2qS3c2YkfFHXIfV6jrlvTg7puTVRj73eyxm506bvdtK2cLG+sTMqt2bl024wn1K2Mhx0OyHbf303DzEpxgTjl6q9QA4Nf8L5VRkSBodXWSWD1XqfVKOt04OFteLqZZU8AN9Qm39LY/+c9OplfqPYxTOB9adsjqlW7930Wx/nQXJ3vgmQjCc+A8MuER3/wpRVxb0CadtUcHJ6jbmZdWVjinHpcBjW/6QEu3O5/ksVXofU82/Iyun9RDPtWIRNjNA5rvL/pbv3LP5tLpGfl5PVep497w6rGe1tLQ0CATZPuH0voIDNGRxkGQ45SjVfpQEuKM/wDFVxA1vqX/0N76/MY7rfQBbc/FqsfbW7JrcGPr3PxW+pXaf5t7f31o/wDMq3/54Osf+xP/AKjV/wCsuF0HOwW4/W7a6Ki+abX2Nqc2wNdrVY87d3pepvZ9D0v5xZOP9Sj6LPsP1i6kMUgekK7wWbfzdhY3Zt/qIKYdT+qmLiYF2R1L6wdVOExv6cWXeo0tJ27XU+jZ6u9x2+nsVux/Q8T6ijc6/N6P9mbWHhsXvrsIqZY1jxjbH/pN/wBGtVcr6ndLrYx/X+uZuTih4215eUK6i7s38x2//i7GWLocivo9vRnVXmkdIfQGk7gyn0C3azZa0tYyr0/5p9b/APi0VPM9M+qnU3dPx7el/WLLx8G6tttFLq2OLWWD1WtO1/pt+l/gv0asn6q/WcCWfWfI3j6O6lhE/wAr3oeJ9S6DQ09J+sHUGYRJ9NtGQ11YMnfsdU0M+miP+pVux32n6xdUdRB9QG8NG387c5zS3agps/Ufred1fpdzuoObZk4l7qHXNAAeA1ljX+zazd+l2exjN/8AOLmfqT0P9p4OSB1XO6fdjXllmNiXek2C1m26yva79I57bad//Af8Gu0+rmH0TC6cMbolld2Mx53212C0usIa5zrbGE/pNnp/1K/T9P8ARbFi5n1a+rfUOr239O6o/A6o5z/WZhZDA/eHRkOdT77a3+p/PtZ6f6b+dZ6qSmx/zKt/+eDrH/sT/wCo1VwekdF6f9bMau3q+bm9YZU51VOSfVHpubbo/IFH6Pb+lsZV9oZ/4Kj/APMrN/8Anj6r/wBvf7FY6B0b6u9L6jf9mzPtvV3hwvsyL225IaDX6gcxu3Z7vR9R3p7/AOZ9T/BIqXzP/Fng/wDhc/kyl0CzrsLBf1ujMfkbcyustrx9zBub+l9/pkeq7+cs+i78xaKiw45QOUn9PIZj+7wxREVfm8/9dP8Ak2j/AMMs/wCotW7cCangaktMD5Kj1zDwczFrrzsj7NW20Pa/cxkuDXtDJuDm/Rc5aKEcZGXLI/LMQA/weLiUBqT3pwfqWQeigA6i1wPlo13/AFJV7O6jbjdS6fh1ta5uY6wWEzuaGNDmlkLPr6F0y+623pXULMfcZsrxLWlonjRkua36W3/wNHwuk9Ow+otsuzH5XUC0ioZFgc8Ah0+nX9P6Hqf+CKPHHNHHDFwgcJiDk4v0Iy/d/rxWgSAArbqgzP8AxZYP/hc/kyV0CzrsLBf1ujMfkbcyustrx9zBub+l9/pkeq76dn0XfmLRUuHHKByX+nkMx/d4Yroir82vXgYlWXdm1sjIyABa/c4yGja32F2xv0fzWrH6B/y31r/jGfluXQLO6fhYNGfnX4+R6197gcircx3pkF+0bWAPZ9J384hPHc8RiABCUpS/woy/7qSCNRXQv//ZADhCSU0EIQAAAAAAVQAAAAEBAAAADwBBAGQAbwBiAGUAIABQAGgAbwB0AG8AcwBoAG8AcAAAABMAQQBkAG8AYgBlACAAUABoAG8AdABvAHMAaABvAHAAIABDAFMANQAAAAEAOEJJTQQGAAAAAAAHAAgAAAABAQD/4T8paHR0cDovL25zLmFkb2JlLmNvbS94YXAvMS4wLwA8P3hwYWNrZXQgYmVnaW49Iu+7vyIgaWQ9Ilc1TTBNcENlaGlIenJlU3pOVGN6a2M5ZCI/PiA8eDp4bXBtZXRhIHhtbG5zOng9ImFkb2JlOm5zOm1ldGEvIiB4OnhtcHRrPSJBZG9iZSBYTVAgQ29yZSA1LjAtYzA2MCA2MS4xMzQ3NzcsIDIwMTAvMDIvMTItMTc6MzI6MDAgICAgICAgICI+IDxyZGY6UkRGIHhtbG5zOnJkZj0iaHR0cDovL3d3dy53My5vcmcvMTk5OS8wMi8yMi1yZGYtc3ludGF4LW5zIyI+IDxyZGY6RGVzY3JpcHRpb24gcmRmOmFib3V0PSIiIHhtbG5zOmRjPSJodHRwOi8vcHVybC5vcmcvZGMvZWxlbWVudHMvMS4xLyIgeG1sbnM6eG1wPSJodHRwOi8vbnMuYWRvYmUuY29tL3hhcC8xLjAvIiB4bWxuczp4bXBNTT0iaHR0cDovL25zLmFkb2JlLmNvbS94YXAvMS4wL21tLyIgeG1sbnM6c3RSZWY9Imh0dHA6Ly9ucy5hZG9iZS5jb20veGFwLzEuMC9zVHlwZS9SZXNvdXJjZVJlZiMiIHhtbG5zOnN0RXZ0PSJodHRwOi8vbnMuYWRvYmUuY29tL3hhcC8xLjAvc1R5cGUvUmVzb3VyY2VFdmVudCMiIHhtbG5zOmlsbHVzdHJhdG9yPSJodHRwOi8vbnMuYWRvYmUuY29tL2lsbHVzdHJhdG9yLzEuMC8iIHhtbG5zOnhtcFRQZz0iaHR0cDovL25zLmFkb2JlLmNvbS94YXAvMS4wL3QvcGcvIiB4bWxuczpzdERpbT0iaHR0cDovL25zLmFkb2JlLmNvbS94YXAvMS4wL3NUeXBlL0RpbWVuc2lvbnMjIiB4bWxuczp4bXBHPSJodHRwOi8vbnMuYWRvYmUuY29tL3hhcC8xLjAvZy8iIHhtbG5zOnBkZj0iaHR0cDovL25zLmFkb2JlLmNvbS9wZGYvMS4zLyIgeG1sbnM6cGhvdG9zaG9wPSJodHRwOi8vbnMuYWRvYmUuY29tL3Bob3Rvc2hvcC8xLjAvIiBkYzpmb3JtYXQ9ImltYWdlL2pwZWciIHhtcDpNZXRhZGF0YURhdGU9IjIwMTEtMDgtMjJUMjI6MDc6MjcrMDI6MDAiIHhtcDpNb2RpZnlEYXRlPSIyMDExLTA4LTIyVDIyOjA3OjI3KzAyOjAwIiB4bXA6Q3JlYXRlRGF0ZT0iMjAxMS0wOC0yMlQyMjowMToyMyswMjowMCIgeG1wOkNyZWF0b3JUb29sPSJBZG9iZSBJbGx1c3RyYXRvciBDUzUiIHhtcE1NOkluc3RhbmNlSUQ9InhtcC5paWQ6MDg4MzZGQ0IwOTIwNjgxMTkyQjBERDE0RTM3N0M2QjYiIHhtcE1NOkRvY3VtZW50SUQ9InhtcC5kaWQ6MDc4MzZGQ0IwOTIwNjgxMTkyQjBERDE0RTM3N0M2QjYiIHhtcE1NOk9yaWdpbmFsRG9jdW1lbnRJRD0idXVpZDo1RDIwODkyNDkzQkZEQjExOTE0QTg1OTBEMzE1MDhDOCIgeG1wTU06UmVuZGl0aW9uQ2xhc3M9InByb29mOnBkZiIgaWxsdXN0cmF0b3I6U3RhcnR1cFByb2ZpbGU9IlByaW50IiB4bXBUUGc6SGFzVmlzaWJsZU92ZXJwcmludD0iRmFsc2UiIHhtcFRQZzpIYXNWaXNpYmxlVHJhbnNwYXJlbmN5PSJGYWxzZSIgeG1wVFBnOk5QYWdlcz0iMSIgcGRmOlByb2R1Y2VyPSJBZG9iZSBQREYgbGlicmFyeSA5LjkwIiBwaG90b3Nob3A6Q29sb3JNb2RlPSIzIiBwaG90b3Nob3A6SUNDUHJvZmlsZT0ic1JHQiBJRUM2MTk2Ni0yLjEiPiA8ZGM6dGl0bGU+IDxyZGY6QWx0PiA8cmRmOmxpIHhtbDpsYW5nPSJ4LWRlZmF1bHQiPkRydWNrPC9yZGY6bGk+IDwvcmRmOkFsdD4gPC9kYzp0aXRsZT4gPHhtcE1NOkRlcml2ZWRGcm9tIHN0UmVmOmluc3RhbmNlSUQ9InhtcC5paWQ6MDc4MzZGQ0IwOTIwNjgxMTkyQjBERDE0RTM3N0M2QjYiIHN0UmVmOmRvY3VtZW50SUQ9InhtcC5kaWQ6MDc4MzZGQ0IwOTIwNjgxMTkyQjBERDE0RTM3N0M2QjYiIHN0UmVmOm9yaWdpbmFsRG9jdW1lbnRJRD0idXVpZDo1RDIwODkyNDkzQkZEQjExOTE0QTg1OTBEMzE1MDhDOCIgc3RSZWY6cmVuZGl0aW9uQ2xhc3M9InByb29mOnBkZiIvPiA8eG1wTU06SGlzdG9yeT4gPHJkZjpTZXE+IDxyZGY6bGkgc3RFdnQ6YWN0aW9uPSJzYXZlZCIgc3RFdnQ6aW5zdGFuY2VJRD0ieG1wLmlpZDpGNzdGMTE3NDA3MjA2ODExODA4M0NCNjA5RTczNUM2MCIgc3RFdnQ6d2hlbj0iMjAxMS0wOC0yMlQyMTo1MzoyMSswMjowMCIgc3RFdnQ6c29mdHdhcmVBZ2VudD0iQWRvYmUgSWxsdXN0cmF0b3IgQ1M1IiBzdEV2dDpjaGFuZ2VkPSIvIi8+IDxyZGY6bGkgc3RFdnQ6YWN0aW9uPSJzYXZlZCIgc3RFdnQ6aW5zdGFuY2VJRD0ieG1wLmlpZDpGODdGMTE3NDA3MjA2ODExODA4M0NCNjA5RTczNUM2MCIgc3RFdnQ6d2hlbj0iMjAxMS0wOC0yMlQyMTo1NTo0NCswMjowMCIgc3RFdnQ6c29mdHdhcmVBZ2VudD0iQWRvYmUgSWxsdXN0cmF0b3IgQ1M1IiBzdEV2dDpjaGFuZ2VkPSIvIi8+IDxyZGY6bGkgc3RFdnQ6YWN0aW9uPSJjb252ZXJ0ZWQiIHN0RXZ0OnBhcmFtZXRlcnM9ImZyb20gYXBwbGljYXRpb24vcG9zdHNjcmlwdCB0byBhcHBsaWNhdGlvbi92bmQuYWRvYmUuaWxsdXN0cmF0b3IiLz4gPHJkZjpsaSBzdEV2dDphY3Rpb249InNhdmVkIiBzdEV2dDppbnN0YW5jZUlEPSJ4bXAuaWlkOkZEN0YxMTc0MDcyMDY4MTE4MDgzQ0I2MDlFNzM1QzYwIiBzdEV2dDp3aGVuPSIyMDExLTA4LTIyVDIyOjAxOjIzKzAyOjAwIiBzdEV2dDpzb2Z0d2FyZUFnZW50PSJBZG9iZSBJbGx1c3RyYXRvciBDUzUiIHN0RXZ0OmNoYW5nZWQ9Ii8iLz4gPHJkZjpsaSBzdEV2dDphY3Rpb249ImNvbnZlcnRlZCIgc3RFdnQ6cGFyYW1ldGVycz0iZnJvbSBhcHBsaWNhdGlvbi9wb3N0c2NyaXB0IHRvIGFwcGxpY2F0aW9uL3ZuZC5hZG9iZS5waG90b3Nob3AiLz4gPHJkZjpsaSBzdEV2dDphY3Rpb249InNhdmVkIiBzdEV2dDppbnN0YW5jZUlEPSJ4bXAuaWlkOjA3ODM2RkNCMDkyMDY4MTE5MkIwREQxNEUzNzdDNkI2IiBzdEV2dDp3aGVuPSIyMDExLTA4LTIyVDIyOjA3OjI3KzAyOjAwIiBzdEV2dDpzb2Z0d2FyZUFnZW50PSJBZG9iZSBQaG90b3Nob3AgQ1M1IE1hY2ludG9zaCIgc3RFdnQ6Y2hhbmdlZD0iLyIvPiA8cmRmOmxpIHN0RXZ0OmFjdGlvbj0iY29udmVydGVkIiBzdEV2dDpwYXJhbWV0ZXJzPSJmcm9tIGFwcGxpY2F0aW9uL3Bvc3RzY3JpcHQgdG8gaW1hZ2UvanBlZyIvPiA8cmRmOmxpIHN0RXZ0OmFjdGlvbj0iZGVyaXZlZCIgc3RFdnQ6cGFyYW1ldGVycz0iY29udmVydGVkIGZyb20gYXBwbGljYXRpb24vdm5kLmFkb2JlLnBob3Rvc2hvcCB0byBpbWFnZS9qcGVnIi8+IDxyZGY6bGkgc3RFdnQ6YWN0aW9uPSJzYXZlZCIgc3RFdnQ6aW5zdGFuY2VJRD0ieG1wLmlpZDowODgzNkZDQjA5MjA2ODExOTJCMEREMTRFMzc3QzZCNiIgc3RFdnQ6d2hlbj0iMjAxMS0wOC0yMlQyMjowNzoyNyswMjowMCIgc3RFdnQ6c29mdHdhcmVBZ2VudD0iQWRvYmUgUGhvdG9zaG9wIENTNSBNYWNpbnRvc2giIHN0RXZ0OmNoYW5nZWQ9Ii8iLz4gPC9yZGY6U2VxPiA8L3htcE1NOkhpc3Rvcnk+IDx4bXBUUGc6TWF4UGFnZVNpemUgc3REaW06dz0iNTIuNTAwNDk5IiBzdERpbTpoPSIxNy41MDE0MzAiIHN0RGltOnVuaXQ9Ik1pbGxpbWV0ZXJzIi8+IDx4bXBUUGc6UGxhdGVOYW1lcz4gPHJkZjpTZXE+IDxyZGY6bGk+Q3lhbjwvcmRmOmxpPiA8cmRmOmxpPlllbGxvdzwvcmRmOmxpPiA8cmRmOmxpPkJsYWNrPC9yZGY6bGk+IDwvcmRmOlNlcT4gPC94bXBUUGc6UGxhdGVOYW1lcz4gPHhtcFRQZzpTd2F0Y2hHcm91cHM+IDxyZGY6U2VxPiA8cmRmOmxpPiA8cmRmOkRlc2NyaXB0aW9uIHhtcEc6Z3JvdXBOYW1lPSJTdGFuZGFyZC1GYXJiZmVsZGdydXBwZSIgeG1wRzpncm91cFR5cGU9IjAiPiA8eG1wRzpDb2xvcmFudHM+IDxyZGY6U2VxPiA8cmRmOmxpIHhtcEc6c3dhdGNoTmFtZT0iV2Vpw58iIHhtcEc6bW9kZT0iQ01ZSyIgeG1wRzp0eXBlPSJQUk9DRVNTIiB4bXBHOmN5YW49IjAuMDAwMDAwIiB4bXBHOm1hZ2VudGE9IjAuMDAwMDAwIiB4bXBHOnllbGxvdz0iMC4wMDAwMDAiIHhtcEc6YmxhY2s9IjAuMDAwMDAwIi8+IDxyZGY6bGkgeG1wRzpzd2F0Y2hOYW1lPSJTY2h3YXJ6IiB4bXBHOm1vZGU9IkNNWUsiIHhtcEc6dHlwZT0iUFJPQ0VTUyIgeG1wRzpjeWFuPSIwLjAwMDAwMCIgeG1wRzptYWdlbnRhPSIwLjAwMDAwMCIgeG1wRzp5ZWxsb3c9IjAuMDAwMDAwIiB4bXBHOmJsYWNrPSIxMDAuMDAwMDAwIi8+IDxyZGY6bGkgeG1wRzpzd2F0Y2hOYW1lPSJDTVlLIFJvdCIgeG1wRzptb2RlPSJDTVlLIiB4bXBHOnR5cGU9IlBST0NFU1MiIHhtcEc6Y3lhbj0iMC4wMDAwMDAiIHhtcEc6bWFnZW50YT0iMTAwLjAwMDAwMCIgeG1wRzp5ZWxsb3c9IjEwMC4wMDAwMDAiIHhtcEc6YmxhY2s9IjAuMDAwMDAwIi8+IDxyZGY6bGkgeG1wRzpzd2F0Y2hOYW1lPSJDTVlLIEdlbGIiIHhtcEc6bW9kZT0iQ01ZSyIgeG1wRzp0eXBlPSJQUk9DRVNTIiB4bXBHOmN5YW49IjAuMDAwMDAwIiB4bXBHOm1hZ2VudGE9IjAuMDAwMDAwIiB4bXBHOnllbGxvdz0iMTAwLjAwMDAwMCIgeG1wRzpibGFjaz0iMC4wMDAwMDAiLz4gPHJkZjpsaSB4bXBHOnN3YXRjaE5hbWU9IkNNWUsgR3LDvG4iIHhtcEc6bW9kZT0iQ01ZSyIgeG1wRzp0eXBlPSJQUk9DRVNTIiB4bXBHOmN5YW49IjEwMC4wMDAwMDAiIHhtcEc6bWFnZW50YT0iMC4wMDAwMDAiIHhtcEc6eWVsbG93PSIxMDAuMDAwMDAwIiB4bXBHOmJsYWNrPSIwLjAwMDAwMCIvPiA8cmRmOmxpIHhtcEc6c3dhdGNoTmFtZT0iQ01ZSyBDeWFuIiB4bXBHOm1vZGU9IkNNWUsiIHhtcEc6dHlwZT0iUFJPQ0VTUyIgeG1wRzpjeWFuPSIxMDAuMDAwMDAwIiB4bXBHOm1hZ2VudGE9IjAuMDAwMDAwIiB4bXBHOnllbGxvdz0iMC4wMDAwMDAiIHhtcEc6YmxhY2s9IjAuMDAwMDAwIi8+IDxyZGY6bGkgeG1wRzpzd2F0Y2hOYW1lPSJDTVlLIEJsYXUiIHhtcEc6bW9kZT0iQ01ZSyIgeG1wRzp0eXBlPSJQUk9DRVNTIiB4bXBHOmN5YW49IjEwMC4wMDAwMDAiIHhtcEc6bWFnZW50YT0iMTAwLjAwMDAwMCIgeG1wRzp5ZWxsb3c9IjAuMDAwMDAwIiB4bXBHOmJsYWNrPSIwLjAwMDAwMCIvPiA8cmRmOmxpIHhtcEc6c3dhdGNoTmFtZT0iQ01ZSyBNYWdlbnRhIiB4bXBHOm1vZGU9IkNNWUsiIHhtcEc6dHlwZT0iUFJPQ0VTUyIgeG1wRzpjeWFuPSIwLjAwMDAwMCIgeG1wRzptYWdlbnRhPSIxMDAuMDAwMDAwIiB4bXBHOnllbGxvdz0iMC4wMDAwMDAiIHhtcEc6YmxhY2s9IjAuMDAwMDAwIi8+IDxyZGY6bGkgeG1wRzpzd2F0Y2hOYW1lPSJDPTE1IE09MTAwIFk9OTAgSz0xMCIgeG1wRzptb2RlPSJDTVlLIiB4bXBHOnR5cGU9IlBST0NFU1MiIHhtcEc6Y3lhbj0iMTQuOTk5OTk4IiB4bXBHOm1hZ2VudGE9IjEwMC4wMDAwMDAiIHhtcEc6eWVsbG93PSI5MC4wMDAwMDAiIHhtcEc6YmxhY2s9IjEwLjAwMDAwMiIvPiA8cmRmOmxpIHhtcEc6c3dhdGNoTmFtZT0iQz0wIE09OTAgWT04NSBLPTAiIHhtcEc6bW9kZT0iQ01ZSyIgeG1wRzp0eXBlPSJQUk9DRVNTIiB4bXBHOmN5YW49IjAuMDAwMDAwIiB4bXBHOm1hZ2VudGE9IjkwLjAwMDAwMCIgeG1wRzp5ZWxsb3c9Ijg1LjAwMDAwMCIgeG1wRzpibGFjaz0iMC4wMDAwMDAiLz4gPHJkZjpsaSB4bXBHOnN3YXRjaE5hbWU9IkM9MCBNPTgwIFk9OTUgSz0wIiB4bXBHOm1vZGU9IkNNWUsiIHhtcEc6dHlwZT0iUFJPQ0VTUyIgeG1wRzpjeWFuPSIwLjAwMDAwMCIgeG1wRzptYWdlbnRhPSI4MC4wMDAwMDAiIHhtcEc6eWVsbG93PSI5NS4wMDAwMDAiIHhtcEc6YmxhY2s9IjAuMDAwMDAwIi8+IDxyZGY6bGkgeG1wRzpzd2F0Y2hOYW1lPSJDPTAgTT01MCBZPTEwMCBLPTAiIHhtcEc6bW9kZT0iQ01ZSyIgeG1wRzp0eXBlPSJQUk9DRVNTIiB4bXBHOmN5YW49IjAuMDAwMDAwIiB4bXBHOm1hZ2VudGE9IjUwLjAwMDAwMCIgeG1wRzp5ZWxsb3c9IjEwMC4wMDAwMDAiIHhtcEc6YmxhY2s9IjAuMDAwMDAwIi8+IDxyZGY6bGkgeG1wRzpzd2F0Y2hOYW1lPSJDPTAgTT0zNSBZPTg1IEs9MCIgeG1wRzptb2RlPSJDTVlLIiB4bXBHOnR5cGU9IlBST0NFU1MiIHhtcEc6Y3lhbj0iMC4wMDAwMDAiIHhtcEc6bWFnZW50YT0iMzUuMDAwMDA0IiB4bXBHOnllbGxvdz0iODUuMDAwMDAwIiB4bXBHOmJsYWNrPSIwLjAwMDAwMCIvPiA8cmRmOmxpIHhtcEc6c3dhdGNoTmFtZT0iQz01IE09MCBZPTkwIEs9MCIgeG1wRzptb2RlPSJDTVlLIiB4bXBHOnR5cGU9IlBST0NFU1MiIHhtcEc6Y3lhbj0iNS4wMDAwMDEiIHhtcEc6bWFnZW50YT0iMC4wMDAwMDAiIHhtcEc6eWVsbG93PSI5MC4wMDAwMDAiIHhtcEc6YmxhY2s9IjAuMDAwMDAwIi8+IDxyZGY6bGkgeG1wRzpzd2F0Y2hOYW1lPSJDPTIwIE09MCBZPTEwMCBLPTAiIHhtcEc6bW9kZT0iQ01ZSyIgeG1wRzp0eXBlPSJQUk9DRVNTIiB4bXBHOmN5YW49IjE5Ljk5OTk5OCIgeG1wRzptYWdlbnRhPSIwLjAwMDAwMCIgeG1wRzp5ZWxsb3c9IjEwMC4wMDAwMDAiIHhtcEc6YmxhY2s9IjAuMDAwMDAwIi8+IDxyZGY6bGkgeG1wRzpzd2F0Y2hOYW1lPSJDPTUwIE09MCBZPTEwMCBLPTAiIHhtcEc6bW9kZT0iQ01ZSyIgeG1wRzp0eXBlPSJQUk9DRVNTIiB4bXBHOmN5YW49IjUwLjAwMDAwMCIgeG1wRzptYWdlbnRhPSIwLjAwMDAwMCIgeG1wRzp5ZWxsb3c9IjEwMC4wMDAwMDAiIHhtcEc6YmxhY2s9IjAuMDAwMDAwIi8+IDxyZGY6bGkgeG1wRzpzd2F0Y2hOYW1lPSJDPTc1IE09MCBZPTEwMCBLPTAiIHhtcEc6bW9kZT0iQ01ZSyIgeG1wRzp0eXBlPSJQUk9DRVNTIiB4bXBHOmN5YW49Ijc1LjAwMDAwMCIgeG1wRzptYWdlbnRhPSIwLjAwMDAwMCIgeG1wRzp5ZWxsb3c9IjEwMC4wMDAwMDAiIHhtcEc6YmxhY2s9IjAuMDAwMDAwIi8+IDxyZGY6bGkgeG1wRzpzd2F0Y2hOYW1lPSJDPTg1IE09MTAgWT0xMDAgSz0xMCIgeG1wRzptb2RlPSJDTVlLIiB4bXBHOnR5cGU9IlBST0NFU1MiIHhtcEc6Y3lhbj0iODUuMDAwMDAwIiB4bXBHOm1hZ2VudGE9IjEwLjAwMDAwMiIgeG1wRzp5ZWxsb3c9IjEwMC4wMDAwMDAiIHhtcEc6YmxhY2s9IjEwLjAwMDAwMiIvPiA8cmRmOmxpIHhtcEc6c3dhdGNoTmFtZT0iQz05MCBNPTMwIFk9OTUgSz0zMCIgeG1wRzptb2RlPSJDTVlLIiB4bXBHOnR5cGU9IlBST0NFU1MiIHhtcEc6Y3lhbj0iOTAuMDAwMDAwIiB4bXBHOm1hZ2VudGE9IjMwLjAwMDAwMiIgeG1wRzp5ZWxsb3c9Ijk1LjAwMDAwMCIgeG1wRzpibGFjaz0iMzAuMDAwMDAyIi8+IDxyZGY6bGkgeG1wRzpzd2F0Y2hOYW1lPSJDPTc1IE09MCBZPTc1IEs9MCIgeG1wRzptb2RlPSJDTVlLIiB4bXBHOnR5cGU9IlBST0NFU1MiIHhtcEc6Y3lhbj0iNzUuMDAwMDAwIiB4bXBHOm1hZ2VudGE9IjAuMDAwMDAwIiB4bXBHOnllbGxvdz0iNzUuMDAwMDAwIiB4bXBHOmJsYWNrPSIwLjAwMDAwMCIvPiA8cmRmOmxpIHhtcEc6c3dhdGNoTmFtZT0iQz04MCBNPTEwIFk9NDUgSz0wIiB4bXBHOm1vZGU9IkNNWUsiIHhtcEc6dHlwZT0iUFJPQ0VTUyIgeG1wRzpjeWFuPSI4MC4wMDAwMDAiIHhtcEc6bWFnZW50YT0iMTAuMDAwMDAyIiB4bXBHOnllbGxvdz0iNDUuMDAwMDAwIiB4bXBHOmJsYWNrPSIwLjAwMDAwMCIvPiA8cmRmOmxpIHhtcEc6c3dhdGNoTmFtZT0iQz03MCBNPTE1IFk9MCBLPTAiIHhtcEc6bW9kZT0iQ01ZSyIgeG1wRzp0eXBlPSJQUk9DRVNTIiB4bXBHOmN5YW49IjcwLjAwMDAwMCIgeG1wRzptYWdlbnRhPSIxNC45OTk5OTgiIHhtcEc6eWVsbG93PSIwLjAwMDAwMCIgeG1wRzpibGFjaz0iMC4wMDAwMDAiLz4gPHJkZjpsaSB4bXBHOnN3YXRjaE5hbWU9IkM9ODUgTT01MCBZPTAgSz0wIiB4bXBHOm1vZGU9IkNNWUsiIHhtcEc6dHlwZT0iUFJPQ0VTUyIgeG1wRzpjeWFuPSI4NS4wMDAwMDAiIHhtcEc6bWFnZW50YT0iNTAuMDAwMDAwIiB4bXBHOnllbGxvdz0iMC4wMDAwMDAiIHhtcEc6YmxhY2s9IjAuMDAwMDAwIi8+IDxyZGY6bGkgeG1wRzpzd2F0Y2hOYW1lPSJDPTEwMCBNPTk1IFk9NSBLPTAiIHhtcEc6bW9kZT0iQ01ZSyIgeG1wRzp0eXBlPSJQUk9DRVNTIiB4bXBHOmN5YW49IjEwMC4wMDAwMDAiIHhtcEc6bWFnZW50YT0iOTUuMDAwMDAwIiB4bXBHOnllbGxvdz0iNS4wMDAwMDEiIHhtcEc6YmxhY2s9IjAuMDAwMDAwIi8+IDxyZGY6bGkgeG1wRzpzd2F0Y2hOYW1lPSJDPTEwMCBNPTEwMCBZPTI1IEs9MjUiIHhtcEc6bW9kZT0iQ01ZSyIgeG1wRzp0eXBlPSJQUk9DRVNTIiB4bXBHOmN5YW49IjEwMC4wMDAwMDAiIHhtcEc6bWFnZW50YT0iMTAwLjAwMDAwMCIgeG1wRzp5ZWxsb3c9IjI1LjAwMDAwMCIgeG1wRzpibGFjaz0iMjUuMDAwMDAwIi8+IDxyZGY6bGkgeG1wRzpzd2F0Y2hOYW1lPSJDPTc1IE09MTAwIFk9MCBLPTAiIHhtcEc6bW9kZT0iQ01ZSyIgeG1wRzp0eXBlPSJQUk9DRVNTIiB4bXBHOmN5YW49Ijc1LjAwMDAwMCIgeG1wRzptYWdlbnRhPSIxMDAuMDAwMDAwIiB4bXBHOnllbGxvdz0iMC4wMDAwMDAiIHhtcEc6YmxhY2s9IjAuMDAwMDAwIi8+IDxyZGY6bGkgeG1wRzpzd2F0Y2hOYW1lPSJDPTUwIE09MTAwIFk9MCBLPTAiIHhtcEc6bW9kZT0iQ01ZSyIgeG1wRzp0eXBlPSJQUk9DRVNTIiB4bXBHOmN5YW49IjUwLjAwMDAwMCIgeG1wRzptYWdlbnRhPSIxMDAuMDAwMDAwIiB4bXBHOnllbGxvdz0iMC4wMDAwMDAiIHhtcEc6YmxhY2s9IjAuMDAwMDAwIi8+IDxyZGY6bGkgeG1wRzpzd2F0Y2hOYW1lPSJDPTM1IE09MTAwIFk9MzUgSz0xMCIgeG1wRzptb2RlPSJDTVlLIiB4bXBHOnR5cGU9IlBST0NFU1MiIHhtcEc6Y3lhbj0iMzUuMDAwMDA0IiB4bXBHOm1hZ2VudGE9IjEwMC4wMDAwMDAiIHhtcEc6eWVsbG93PSIzNS4wMDAwMDQiIHhtcEc6YmxhY2s9IjEwLjAwMDAwMiIvPiA8cmRmOmxpIHhtcEc6c3dhdGNoTmFtZT0iQz0xMCBNPTEwMCBZPTUwIEs9MCIgeG1wRzptb2RlPSJDTVlLIiB4bXBHOnR5cGU9IlBST0NFU1MiIHhtcEc6Y3lhbj0iMTAuMDAwMDAyIiB4bXBHOm1hZ2VudGE9IjEwMC4wMDAwMDAiIHhtcEc6eWVsbG93PSI1MC4wMDAwMDAiIHhtcEc6YmxhY2s9IjAuMDAwMDAwIi8+IDxyZGY6bGkgeG1wRzpzd2F0Y2hOYW1lPSJDPTAgTT05NSBZPTIwIEs9MCIgeG1wRzptb2RlPSJDTVlLIiB4bXBHOnR5cGU9IlBST0NFU1MiIHhtcEc6Y3lhbj0iMC4wMDAwMDAiIHhtcEc6bWFnZW50YT0iOTUuMDAwMDAwIiB4bXBHOnllbGxvdz0iMTkuOTk5OTk4IiB4bXBHOmJsYWNrPSIwLjAwMDAwMCIvPiA8cmRmOmxpIHhtcEc6c3dhdGNoTmFtZT0iQz0yNSBNPTI1IFk9NDAgSz0wIiB4bXBHOm1vZGU9IkNNWUsiIHhtcEc6dHlwZT0iUFJPQ0VTUyIgeG1wRzpjeWFuPSIyNS4wMDAwMDAiIHhtcEc6bWFnZW50YT0iMjUuMDAwMDAwIiB4bXBHOnllbGxvdz0iMzkuOTk5OTk2IiB4bXBHOmJsYWNrPSIwLjAwMDAwMCIvPiA8cmRmOmxpIHhtcEc6c3dhdGNoTmFtZT0iQz00MCBNPTQ1IFk9NTAgSz01IiB4bXBHOm1vZGU9IkNNWUsiIHhtcEc6dHlwZT0iUFJPQ0VTUyIgeG1wRzpjeWFuPSIzOS45OTk5OTYiIHhtcEc6bWFnZW50YT0iNDUuMDAwMDAwIiB4bXBHOnllbGxvdz0iNTAuMDAwMDAwIiB4bXBHOmJsYWNrPSI1LjAwMDAwMSIvPiA8cmRmOmxpIHhtcEc6c3dhdGNoTmFtZT0iQz01MCBNPTUwIFk9NjAgSz0yNSIgeG1wRzptb2RlPSJDTVlLIiB4bXBHOnR5cGU9IlBST0NFU1MiIHhtcEc6Y3lhbj0iNTAuMDAwMDAwIiB4bXBHOm1hZ2VudGE9IjUwLjAwMDAwMCIgeG1wRzp5ZWxsb3c9IjYwLjAwMDAwNCIgeG1wRzpibGFjaz0iMjUuMDAwMDAwIi8+IDxyZGY6bGkgeG1wRzpzd2F0Y2hOYW1lPSJDPTU1IE09NjAgWT02NSBLPTQwIiB4bXBHOm1vZGU9IkNNWUsiIHhtcEc6dHlwZT0iUFJPQ0VTUyIgeG1wRzpjeWFuPSI1NS4wMDAwMDAiIHhtcEc6bWFnZW50YT0iNjAuMDAwMDA0IiB4bXBHOnllbGxvdz0iNjUuMDAwMDAwIiB4bXBHOmJsYWNrPSIzOS45OTk5OTYiLz4gPHJkZjpsaSB4bXBHOnN3YXRjaE5hbWU9IkM9MjUgTT00MCBZPTY1IEs9MCIgeG1wRzptb2RlPSJDTVlLIiB4bXBHOnR5cGU9IlBST0NFU1MiIHhtcEc6Y3lhbj0iMjUuMDAwMDAwIiB4bXBHOm1hZ2VudGE9IjM5Ljk5OTk5NiIgeG1wRzp5ZWxsb3c9IjY1LjAwMDAwMCIgeG1wRzpibGFjaz0iMC4wMDAwMDAiLz4gPHJkZjpsaSB4bXBHOnN3YXRjaE5hbWU9IkM9MzAgTT01MCBZPTc1IEs9MTAiIHhtcEc6bW9kZT0iQ01ZSyIgeG1wRzp0eXBlPSJQUk9DRVNTIiB4bXBHOmN5YW49IjMwLjAwMDAwMiIgeG1wRzptYWdlbnRhPSI1MC4wMDAwMDAiIHhtcEc6eWVsbG93PSI3NS4wMDAwMDAiIHhtcEc6YmxhY2s9IjEwLjAwMDAwMiIvPiA8cmRmOmxpIHhtcEc6c3dhdGNoTmFtZT0iQz0zNSBNPTYwIFk9ODAgSz0yNSIgeG1wRzptb2RlPSJDTVlLIiB4bXBHOnR5cGU9IlBST0NFU1MiIHhtcEc6Y3lhbj0iMzUuMDAwMDA0IiB4bXBHOm1hZ2VudGE9IjYwLjAwMDAwNCIgeG1wRzp5ZWxsb3c9IjgwLjAwMDAwMCIgeG1wRzpibGFjaz0iMjUuMDAwMDAwIi8+IDxyZGY6bGkgeG1wRzpzd2F0Y2hOYW1lPSJDPTQwIE09NjUgWT05MCBLPTM1IiB4bXBHOm1vZGU9IkNNWUsiIHhtcEc6dHlwZT0iUFJPQ0VTUyIgeG1wRzpjeWFuPSIzOS45OTk5OTYiIHhtcEc6bWFnZW50YT0iNjUuMDAwMDAwIiB4bXBHOnllbGxvdz0iOTAuMDAwMDAwIiB4bXBHOmJsYWNrPSIzNS4wMDAwMDQiLz4gPHJkZjpsaSB4bXBHOnN3YXRjaE5hbWU9IkM9NDAgTT03MCBZPTEwMCBLPTUwIiB4bXBHOm1vZGU9IkNNWUsiIHhtcEc6dHlwZT0iUFJPQ0VTUyIgeG1wRzpjeWFuPSIzOS45OTk5OTYiIHhtcEc6bWFnZW50YT0iNzAuMDAwMDAwIiB4bXBHOnllbGxvdz0iMTAwLjAwMDAwMCIgeG1wRzpibGFjaz0iNTAuMDAwMDAwIi8+IDxyZGY6bGkgeG1wRzpzd2F0Y2hOYW1lPSJDPTUwIE09NzAgWT04MCBLPTcwIiB4bXBHOm1vZGU9IkNNWUsiIHhtcEc6dHlwZT0iUFJPQ0VTUyIgeG1wRzpjeWFuPSI1MC4wMDAwMDAiIHhtcEc6bWFnZW50YT0iNzAuMDAwMDAwIiB4bXBHOnllbGxvdz0iODAuMDAwMDAwIiB4bXBHOmJsYWNrPSI3MC4wMDAwMDAiLz4gPC9yZGY6U2VxPiA8L3htcEc6Q29sb3JhbnRzPiA8L3JkZjpEZXNjcmlwdGlvbj4gPC9yZGY6bGk+IDxyZGY6bGk+IDxyZGY6RGVzY3JpcHRpb24geG1wRzpncm91cE5hbWU9IkdyYXV0w7ZuZSIgeG1wRzpncm91cFR5cGU9IjEiPiA8eG1wRzpDb2xvcmFudHM+IDxyZGY6U2VxPiA8cmRmOmxpIHhtcEc6c3dhdGNoTmFtZT0iQz0wIE09MCBZPTAgSz0xMDAiIHhtcEc6bW9kZT0iQ01ZSyIgeG1wRzp0eXBlPSJQUk9DRVNTIiB4bXBHOmN5YW49IjAuMDAwMDAwIiB4bXBHOm1hZ2VudGE9IjAuMDAwMDAwIiB4bXBHOnllbGxvdz0iMC4wMDAwMDAiIHhtcEc6YmxhY2s9IjEwMC4wMDAwMDAiLz4gPHJkZjpsaSB4bXBHOnN3YXRjaE5hbWU9IkM9MCBNPTAgWT0wIEs9OTAiIHhtcEc6bW9kZT0iQ01ZSyIgeG1wRzp0eXBlPSJQUk9DRVNTIiB4bXBHOmN5YW49IjAuMDAwMDAwIiB4bXBHOm1hZ2VudGE9IjAuMDAwMDAwIiB4bXBHOnllbGxvdz0iMC4wMDAwMDAiIHhtcEc6YmxhY2s9Ijg5Ljk5OTQwNSIvPiA8cmRmOmxpIHhtcEc6c3dhdGNoTmFtZT0iQz0wIE09MCBZPTAgSz04MCIgeG1wRzptb2RlPSJDTVlLIiB4bXBHOnR5cGU9IlBST0NFU1MiIHhtcEc6Y3lhbj0iMC4wMDAwMDAiIHhtcEc6bWFnZW50YT0iMC4wMDAwMDAiIHhtcEc6eWVsbG93PSIwLjAwMDAwMCIgeG1wRzpibGFjaz0iNzkuOTk4Nzk1Ii8+IDxyZGY6bGkgeG1wRzpzd2F0Y2hOYW1lPSJDPTAgTT0wIFk9MCBLPTcwIiB4bXBHOm1vZGU9IkNNWUsiIHhtcEc6dHlwZT0iUFJPQ0VTUyIgeG1wRzpjeWFuPSIwLjAwMDAwMCIgeG1wRzptYWdlbnRhPSIwLjAwMDAwMCIgeG1wRzp5ZWxsb3c9IjAuMDAwMDAwIiB4bXBHOmJsYWNrPSI2OS45OTk3MDIiLz4gPHJkZjpsaSB4bXBHOnN3YXRjaE5hbWU9IkM9MCBNPTAgWT0wIEs9NjAiIHhtcEc6bW9kZT0iQ01ZSyIgeG1wRzp0eXBlPSJQUk9DRVNTIiB4bXBHOmN5YW49IjAuMDAwMDAwIiB4bXBHOm1hZ2VudGE9IjAuMDAwMDAwIiB4bXBHOnllbGxvdz0iMC4wMDAwMDAiIHhtcEc6YmxhY2s9IjU5Ljk5OTEwNCIvPiA8cmRmOmxpIHhtcEc6c3dhdGNoTmFtZT0iQz0wIE09MCBZPTAgSz01MCIgeG1wRzptb2RlPSJDTVlLIiB4bXBHOnR5cGU9IlBST0NFU1MiIHhtcEc6Y3lhbj0iMC4wMDAwMDAiIHhtcEc6bWFnZW50YT0iMC4wMDAwMDAiIHhtcEc6eWVsbG93PSIwLjAwMDAwMCIgeG1wRzpibGFjaz0iNTAuMDAwMDAwIi8+IDxyZGY6bGkgeG1wRzpzd2F0Y2hOYW1lPSJDPTAgTT0wIFk9MCBLPTQwIiB4bXBHOm1vZGU9IkNNWUsiIHhtcEc6dHlwZT0iUFJPQ0VTUyIgeG1wRzpjeWFuPSIwLjAwMDAwMCIgeG1wRzptYWdlbnRhPSIwLjAwMDAwMCIgeG1wRzp5ZWxsb3c9IjAuMDAwMDAwIiB4bXBHOmJsYWNrPSIzOS45OTk0MDEiLz4gPHJkZjpsaSB4bXBHOnN3YXRjaE5hbWU9IkM9MCBNPTAgWT0wIEs9MzAiIHhtcEc6bW9kZT0iQ01ZSyIgeG1wRzp0eXBlPSJQUk9DRVNTIiB4bXBHOmN5YW49IjAuMDAwMDAwIiB4bXBHOm1hZ2VudGE9IjAuMDAwMDAwIiB4bXBHOnllbGxvdz0iMC4wMDAwMDAiIHhtcEc6YmxhY2s9IjI5Ljk5ODgwMiIvPiA8cmRmOmxpIHhtcEc6c3dhdGNoTmFtZT0iQz0wIE09MCBZPTAgSz0yMCIgeG1wRzptb2RlPSJDTVlLIiB4bXBHOnR5cGU9IlBST0NFU1MiIHhtcEc6Y3lhbj0iMC4wMDAwMDAiIHhtcEc6bWFnZW50YT0iMC4wMDAwMDAiIHhtcEc6eWVsbG93PSIwLjAwMDAwMCIgeG1wRzpibGFjaz0iMTkuOTk5NzAxIi8+IDxyZGY6bGkgeG1wRzpzd2F0Y2hOYW1lPSJDPTAgTT0wIFk9MCBLPTEwIiB4bXBHOm1vZGU9IkNNWUsiIHhtcEc6dHlwZT0iUFJPQ0VTUyIgeG1wRzpjeWFuPSIwLjAwMDAwMCIgeG1wRzptYWdlbnRhPSIwLjAwMDAwMCIgeG1wRzp5ZWxsb3c9IjAuMDAwMDAwIiB4bXBHOmJsYWNrPSI5Ljk5OTEwMyIvPiA8cmRmOmxpIHhtcEc6c3dhdGNoTmFtZT0iQz0wIE09MCBZPTAgSz01IiB4bXBHOm1vZGU9IkNNWUsiIHhtcEc6dHlwZT0iUFJPQ0VTUyIgeG1wRzpjeWFuPSIwLjAwMDAwMCIgeG1wRzptYWdlbnRhPSIwLjAwMDAwMCIgeG1wRzp5ZWxsb3c9IjAuMDAwMDAwIiB4bXBHOmJsYWNrPSI0Ljk5ODgwMyIvPiA8L3JkZjpTZXE+IDwveG1wRzpDb2xvcmFudHM+IDwvcmRmOkRlc2NyaXB0aW9uPiA8L3JkZjpsaT4gPHJkZjpsaT4gPHJkZjpEZXNjcmlwdGlvbiB4bXBHOmdyb3VwTmFtZT0iTGV1Y2h0ZW5kZSBGYXJiZW4iIHhtcEc6Z3JvdXBUeXBlPSIxIj4gPHhtcEc6Q29sb3JhbnRzPiA8cmRmOlNlcT4gPHJkZjpsaSB4bXBHOnN3YXRjaE5hbWU9IkM9MCBNPTEwMCBZPTEwMCBLPTAiIHhtcEc6bW9kZT0iQ01ZSyIgeG1wRzp0eXBlPSJQUk9DRVNTIiB4bXBHOmN5YW49IjAuMDAwMDAwIiB4bXBHOm1hZ2VudGE9IjEwMC4wMDAwMDAiIHhtcEc6eWVsbG93PSIxMDAuMDAwMDAwIiB4bXBHOmJsYWNrPSIwLjAwMDAwMCIvPiA8cmRmOmxpIHhtcEc6c3dhdGNoTmFtZT0iQz0wIE09NzUgWT0xMDAgSz0wIiB4bXBHOm1vZGU9IkNNWUsiIHhtcEc6dHlwZT0iUFJPQ0VTUyIgeG1wRzpjeWFuPSIwLjAwMDAwMCIgeG1wRzptYWdlbnRhPSI3NS4wMDAwMDAiIHhtcEc6eWVsbG93PSIxMDAuMDAwMDAwIiB4bXBHOmJsYWNrPSIwLjAwMDAwMCIvPiA8cmRmOmxpIHhtcEc6c3dhdGNoTmFtZT0iQz0wIE09MTAgWT05NSBLPTAiIHhtcEc6bW9kZT0iQ01ZSyIgeG1wRzp0eXBlPSJQUk9DRVNTIiB4bXBHOmN5YW49IjAuMDAwMDAwIiB4bXBHOm1hZ2VudGE9IjEwLjAwMDAwMiIgeG1wRzp5ZWxsb3c9Ijk1LjAwMDAwMCIgeG1wRzpibGFjaz0iMC4wMDAwMDAiLz4gPHJkZjpsaSB4bXBHOnN3YXRjaE5hbWU9IkM9ODUgTT0xMCBZPTEwMCBLPTAiIHhtcEc6bW9kZT0iQ01ZSyIgeG1wRzp0eXBlPSJQUk9DRVNTIiB4bXBHOmN5YW49Ijg1LjAwMDAwMCIgeG1wRzptYWdlbnRhPSIxMC4wMDAwMDIiIHhtcEc6eWVsbG93PSIxMDAuMDAwMDAwIiB4bXBHOmJsYWNrPSIwLjAwMDAwMCIvPiA8cmRmOmxpIHhtcEc6c3dhdGNoTmFtZT0iQz0xMDAgTT05MCBZPTAgSz0wIiB4bXBHOm1vZGU9IkNNWUsiIHhtcEc6dHlwZT0iUFJPQ0VTUyIgeG1wRzpjeWFuPSIxMDAuMDAwMDAwIiB4bXBHOm1hZ2VudGE9IjkwLjAwMDAwMCIgeG1wRzp5ZWxsb3c9IjAuMDAwMDAwIiB4bXBHOmJsYWNrPSIwLjAwMDAwMCIvPiA8cmRmOmxpIHhtcEc6c3dhdGNoTmFtZT0iQz02MCBNPTkwIFk9MCBLPTAiIHhtcEc6bW9kZT0iQ01ZSyIgeG1wRzp0eXBlPSJQUk9DRVNTIiB4bXBHOmN5YW49IjYwLjAwMDAwNCIgeG1wRzptYWdlbnRhPSI5MC4wMDAwMDAiIHhtcEc6eWVsbG93PSIwLjAwMzA5OSIgeG1wRzpibGFjaz0iMC4wMDMwOTkiLz4gPC9yZGY6U2VxPiA8L3htcEc6Q29sb3JhbnRzPiA8L3JkZjpEZXNjcmlwdGlvbj4gPC9yZGY6bGk+IDwvcmRmOlNlcT4gPC94bXBUUGc6U3dhdGNoR3JvdXBzPiA8L3JkZjpEZXNjcmlwdGlvbj4gPC9yZGY6UkRGPiA8L3g6eG1wbWV0YT4gICAgICAgICAgICAgICAgICAgICAgICAgICAgICAgICAgICAgICAgICAgICAgICAgICAgICAgICAgICAgICAgICAgICAgICAgICAgICAgICAgICAgICAgICAgICAgICAgICAgICAgICAgICAgICAgICAgICAgICAgICAgICAgICAgICAgICAgICAgICAgICAgICAgICAgICAgICAgICAgICAgICAgICAgICAgICAgICAgICAgICAgICAgICAgICAgICAgICAgICAgICAgICAgICAgICAgICAgICAgICAgICAgICAgICAgICAgICAgICAgICAgICAgICAgICAgICAgICAgICAgICAgICAgICAgICAgICAgICAgICAgICAgICAgICAgICAgICAgICAgICAgICAgICAgICAgICAgICAgICAgICAgICAgICAgICAgICAgICAgICAgICAgICAgICAgICAgICAgICAgICAgICAgICAgICAgICAgICAgICAgICAgICAgICAgICAgICAgICAgICAgICAgICAgICAgICAgICAgICAgICAgICAgICAgICAgICAgICAgICAgICAgICAgICAgICAgICAgICAgICAgICAgICAgICAgICAgICAgICAgICAgICAgICAgICAgICAgICAgICAgICAgICAgICAgICAgICAgICAgICAgICAgICAgICAgICAgICAgICAgICAgICAgICAgICAgICAgICAgICAgICAgICAgICAgICAgICAgICAgICAgICAgICAgICAgICAgICAgICAgICAgICAgICAgICAgICAgICAgICAgICAgICAgICAgICAgICAgICAgICAgICAgICAgICAgICAgICAgICAgICAgICAgICAgICAgICAgICAgICAgICAgICAgICAgICAgICAgICAgICAgICAgICAgICAgICAgICAgICAgICAgICAgICAgICAgICAgICAgICAgICAgICAgICAgICAgICAgICAgICAgICAgICAgICAgICAgICAgICAgICAgICAgICAgICAgICAgICAgICAgICAgICAgICAgICAgICAgICAgICAgICAgICAgICAgICAgICAgICAgICAgICAgICAgICAgICAgICAgICAgICAgICAgICAgICAgICAgICAgICAgICAgICAgICAgICAgICAgICAgICAgICAgICAgICAgICAgICAgICAgICAgICAgICAgICAgICAgICAgICAgICAgICAgICAgICAgICAgICAgICAgICAgICAgICAgICAgICAgICAgICAgICAgICAgICAgICAgICAgICAgICAgICAgICAgICAgICAgICAgICAgICAgICAgICAgICAgICAgICAgICAgICAgICAgICAgICAgICAgICAgICAgICAgICAgICAgICAgICAgICAgICAgICAgICAgICAgICAgICAgICAgICAgICAgICAgICAgICAgICAgICAgICAgICAgICAgICAgICAgICAgICAgICAgICAgICAgICAgICAgICAgICAgICAgICAgICAgICAgICAgICAgICAgICAgICAgICAgICAgICAgICAgICAgICAgICAgICAgICAgICAgICAgICAgICAgICAgICAgICAgICAgICAgICAgICAgICAgICAgICAgICAgICAgICAgICAgICAgICAgICAgICAgICAgICAgICAgICAgICAgICAgICAgICAgICAgICAgICAgICAgICAgICAgICAgICAgICAgICAgICAgICAgICAgICAgICAgICAgICAgICAgICAgICAgICAgICAgICAgICAgICAgICAgICAgICAgICAgICAgICAgICAgICAgICAgICAgICAgICAgICAgICAgICAgICAgICAgICAgICAgICAgICAgICAgICAgICAgICAgICAgICAgICAgICAgICAgICAgICAgICAgICAgICAgICAgICAgICAgICAgICAgICAgICAgICAgICAgICAgICAgICAgICAgICAgICAgICAgICAgICAgICAgICAgICAgICAgICAgICAgICAgICAgICAgICAgICAgICAgICAgICAgICAgICAgICAgICAgICAgICAgICAgICAgICAgICAgICAgICAgICAgICAgICAgICAgICAgICAgICAgICAgICAgICAgICAgICAgICAgICAgICAgICAgICAgICAgICAgICAgICAgICAgICAgICAgICAgICAgICAgICAgICAgICAgICAgICAgICAgICAgICAgICAgICAgICAgICAgICAgICAgICAgICAgICAgICAgICAgICAgICAgICAgICAgICAgICAgICAgICAgICAgICAgICAgICAgICAgICAgICAgICAgICAgICAgICAgICAgICAgICAgICAgICAgICAgICAgICAgICAgICAgICAgICAgICAgICAgICAgICAgICAgICAgICAgICAgICAgICAgICAgICAgICAgICAgICAgICAgICAgICAgICAgICAgICAgICAgICAgICAgICAgICAgICAgICAgICAgICAgICAgICAgICAgICAgICAgICAgICAgICAgICAgICAgICAgICAgICAgICAgICAgICAgICAgICAgICAgICAgICAgICAgICAgICAgICAgICAgICAgICAgICAgICAgICAgICAgICAgICAgICA8P3hwYWNrZXQgZW5kPSJ3Ij8+/+IMWElDQ19QUk9GSUxFAAEBAAAMSExpbm8CEAAAbW50clJHQiBYWVogB84AAgAJAAYAMQAAYWNzcE1TRlQAAAAASUVDIHNSR0IAAAAAAAAAAAAAAAEAAPbWAAEAAAAA0y1IUCAgAAAAAAAAAAAAAAAAAAAAAAAAAAAAAAAAAAAAAAAAAAAAAAAAAAAAAAAAAAAAAAARY3BydAAAAVAAAAAzZGVzYwAAAYQAAABsd3RwdAAAAfAAAAAUYmtwdAAAAgQAAAAUclhZWgAAAhgAAAAUZ1hZWgAAAiwAAAAUYlhZWgAAAkAAAAAUZG1uZAAAAlQAAABwZG1kZAAAAsQAAACIdnVlZAAAA0wAAACGdmlldwAAA9QAAAAkbHVtaQAAA/gAAAAUbWVhcwAABAwAAAAkdGVjaAAABDAAAAAMclRSQwAABDwAAAgMZ1RSQwAABDwAAAgMYlRSQwAABDwAAAgMdGV4dAAAAABDb3B5cmlnaHQgKGMpIDE5OTggSGV3bGV0dC1QYWNrYXJkIENvbXBhbnkAAGRlc2MAAAAAAAAAEnNSR0IgSUVDNjE5NjYtMi4xAAAAAAAAAAAAAAASc1JHQiBJRUM2MTk2Ni0yLjEAAAAAAAAAAAAAAAAAAAAAAAAAAAAAAAAAAAAAAAAAAAAAAAAAAAAAAAAAAAAAAAAAAFhZWiAAAAAAAADzUQABAAAAARbMWFlaIAAAAAAAAAAAAAAAAAAAAABYWVogAAAAAAAAb6IAADj1AAADkFhZWiAAAAAAAABimQAAt4UAABjaWFlaIAAAAAAAACSgAAAPhAAAts9kZXNjAAAAAAAAABZJRUMgaHR0cDovL3d3dy5pZWMuY2gAAAAAAAAAAAAAABZJRUMgaHR0cDovL3d3dy5pZWMuY2gAAAAAAAAAAAAAAAAAAAAAAAAAAAAAAAAAAAAAAAAAAAAAAAAAAAAAAAAAAAAAZGVzYwAAAAAAAAAuSUVDIDYxOTY2LTIuMSBEZWZhdWx0IFJHQiBjb2xvdXIgc3BhY2UgLSBzUkdCAAAAAAAAAAAAAAAuSUVDIDYxOTY2LTIuMSBEZWZhdWx0IFJHQiBjb2xvdXIgc3BhY2UgLSBzUkdCAAAAAAAAAAAAAAAAAAAAAAAAAAAAAGRlc2MAAAAAAAAALFJlZmVyZW5jZSBWaWV3aW5nIENvbmRpdGlvbiBpbiBJRUM2MTk2Ni0yLjEAAAAAAAAAAAAAACxSZWZlcmVuY2UgVmlld2luZyBDb25kaXRpb24gaW4gSUVDNjE5NjYtMi4xAAAAAAAAAAAAAAAAAAAAAAAAAAAAAAAAAAB2aWV3AAAAAAATpP4AFF8uABDPFAAD7cwABBMLAANcngAAAAFYWVogAAAAAABMCVYAUAAAAFcf521lYXMAAAAAAAAAAQAAAAAAAAAAAAAAAAAAAAAAAAKPAAAAAnNpZyAAAAAAQ1JUIGN1cnYAAAAAAAAEAAAAAAUACgAPABQAGQAeACMAKAAtADIANwA7AEAARQBKAE8AVABZAF4AYwBoAG0AcgB3AHwAgQCGAIsAkACVAJoAnwCkAKkArgCyALcAvADBAMYAywDQANUA2wDgAOUA6wDwAPYA+wEBAQcBDQETARkBHwElASsBMgE4AT4BRQFMAVIBWQFgAWcBbgF1AXwBgwGLAZIBmgGhAakBsQG5AcEByQHRAdkB4QHpAfIB+gIDAgwCFAIdAiYCLwI4AkECSwJUAl0CZwJxAnoChAKOApgCogKsArYCwQLLAtUC4ALrAvUDAAMLAxYDIQMtAzgDQwNPA1oDZgNyA34DigOWA6IDrgO6A8cD0wPgA+wD+QQGBBMEIAQtBDsESARVBGMEcQR+BIwEmgSoBLYExATTBOEE8AT+BQ0FHAUrBToFSQVYBWcFdwWGBZYFpgW1BcUF1QXlBfYGBgYWBicGNwZIBlkGagZ7BowGnQavBsAG0QbjBvUHBwcZBysHPQdPB2EHdAeGB5kHrAe/B9IH5Qf4CAsIHwgyCEYIWghuCIIIlgiqCL4I0gjnCPsJEAklCToJTwlkCXkJjwmkCboJzwnlCfsKEQonCj0KVApqCoEKmAquCsUK3ArzCwsLIgs5C1ELaQuAC5gLsAvIC+EL+QwSDCoMQwxcDHUMjgynDMAM2QzzDQ0NJg1ADVoNdA2ODakNww3eDfgOEw4uDkkOZA5/DpsOtg7SDu4PCQ8lD0EPXg96D5YPsw/PD+wQCRAmEEMQYRB+EJsQuRDXEPURExExEU8RbRGMEaoRyRHoEgcSJhJFEmQShBKjEsMS4xMDEyMTQxNjE4MTpBPFE+UUBhQnFEkUahSLFK0UzhTwFRIVNBVWFXgVmxW9FeAWAxYmFkkWbBaPFrIW1hb6Fx0XQRdlF4kXrhfSF/cYGxhAGGUYihivGNUY+hkgGUUZaxmRGbcZ3RoEGioaURp3Gp4axRrsGxQbOxtjG4obshvaHAIcKhxSHHscoxzMHPUdHh1HHXAdmR3DHeweFh5AHmoelB6+HukfEx8+H2kflB+/H+ogFSBBIGwgmCDEIPAhHCFIIXUhoSHOIfsiJyJVIoIiryLdIwojOCNmI5QjwiPwJB8kTSR8JKsk2iUJJTglaCWXJccl9yYnJlcmhya3JugnGCdJJ3onqyfcKA0oPyhxKKIo1CkGKTgpaymdKdAqAio1KmgqmyrPKwIrNitpK50r0SwFLDksbiyiLNctDC1BLXYtqy3hLhYuTC6CLrcu7i8kL1ovkS/HL/4wNTBsMKQw2zESMUoxgjG6MfIyKjJjMpsy1DMNM0YzfzO4M/E0KzRlNJ402DUTNU01hzXCNf02NzZyNq426TckN2A3nDfXOBQ4UDiMOMg5BTlCOX85vDn5OjY6dDqyOu87LTtrO6o76DwnPGU8pDzjPSI9YT2hPeA+ID5gPqA+4D8hP2E/oj/iQCNAZECmQOdBKUFqQaxB7kIwQnJCtUL3QzpDfUPARANER0SKRM5FEkVVRZpF3kYiRmdGq0bwRzVHe0fASAVIS0iRSNdJHUljSalJ8Eo3Sn1KxEsMS1NLmkviTCpMcky6TQJNSk2TTdxOJU5uTrdPAE9JT5NP3VAnUHFQu1EGUVBRm1HmUjFSfFLHUxNTX1OqU/ZUQlSPVNtVKFV1VcJWD1ZcVqlW91dEV5JX4FgvWH1Yy1kaWWlZuFoHWlZaplr1W0VblVvlXDVchlzWXSddeF3JXhpebF69Xw9fYV+zYAVgV2CqYPxhT2GiYfViSWKcYvBjQ2OXY+tkQGSUZOllPWWSZedmPWaSZuhnPWeTZ+loP2iWaOxpQ2maafFqSGqfavdrT2una/9sV2yvbQhtYG25bhJua27Ebx5veG/RcCtwhnDgcTpxlXHwcktypnMBc11zuHQUdHB0zHUodYV14XY+dpt2+HdWd7N4EXhueMx5KnmJeed6RnqlewR7Y3vCfCF8gXzhfUF9oX4BfmJ+wn8jf4R/5YBHgKiBCoFrgc2CMIKSgvSDV4O6hB2EgITjhUeFq4YOhnKG14c7h5+IBIhpiM6JM4mZif6KZIrKizCLlov8jGOMyo0xjZiN/45mjs6PNo+ekAaQbpDWkT+RqJIRknqS45NNk7aUIJSKlPSVX5XJljSWn5cKl3WX4JhMmLiZJJmQmfyaaJrVm0Kbr5wcnImc951kndKeQJ6unx2fi5/6oGmg2KFHobaiJqKWowajdqPmpFakx6U4pammGqaLpv2nbqfgqFKoxKk3qamqHKqPqwKrdavprFys0K1ErbiuLa6hrxavi7AAsHWw6rFgsdayS7LCszizrrQltJy1E7WKtgG2ebbwt2i34LhZuNG5SrnCuju6tbsuu6e8IbybvRW9j74KvoS+/796v/XAcMDswWfB48JfwtvDWMPUxFHEzsVLxcjGRsbDx0HHv8g9yLzJOsm5yjjKt8s2y7bMNcy1zTXNtc42zrbPN8+40DnQutE80b7SP9LB00TTxtRJ1MvVTtXR1lXW2Ndc1+DYZNjo2WzZ8dp22vvbgNwF3IrdEN2W3hzeot8p36/gNuC94UThzOJT4tvjY+Pr5HPk/OWE5g3mlucf56noMui86Ubp0Opb6uXrcOv77IbtEe2c7ijutO9A78zwWPDl8XLx//KM8xnzp/Q09ML1UPXe9m32+/eK+Bn4qPk4+cf6V/rn+3f8B/yY/Sn9uv5L/tz/bf///+4ADkFkb2JlAGRAAAAAAf/bAIQAAQEBAQEBAQEBAQEBAQEBAQEBAQEBAQEBAQEBAQEBAQEBAQEBAQEBAQEBAQICAgICAgICAgICAwMDAwMDAwMDAwEBAQEBAQEBAQEBAgIBAgIDAwMDAwMDAwMDAwMDAwMDAwMDAwMDAwMDAwMDAwMDAwMDAwMDAwMDAwMDAwMDAwMD/8AAEQgAeAJ0AwERAAIRAQMRAf/dAAQAT//EAaIAAAAGAgMBAAAAAAAAAAAAAAcIBgUECQMKAgEACwEAAAYDAQEBAAAAAAAAAAAABgUEAwcCCAEJAAoLEAACAQMEAQMDAgMDAwIGCXUBAgMEEQUSBiEHEyIACDEUQTIjFQlRQhZhJDMXUnGBGGKRJUOhsfAmNHIKGcHRNSfhUzaC8ZKiRFRzRUY3R2MoVVZXGrLC0uLyZIN0k4Rlo7PD0+MpOGbzdSo5OkhJSlhZWmdoaWp2d3h5eoWGh4iJipSVlpeYmZqkpaanqKmqtLW2t7i5usTFxsfIycrU1dbX2Nna5OXm5+jp6vT19vf4+foRAAIBAwIEBAMFBAQEBgYFbQECAxEEIRIFMQYAIhNBUQcyYRRxCEKBI5EVUqFiFjMJsSTB0UNy8BfhgjQlklMYY0TxorImNRlUNkVkJwpzg5NGdMLS4vJVZXVWN4SFo7PD0+PzKRqUpLTE1OT0laW1xdXl9ShHV2Y4doaWprbG1ub2Z3eHl6e3x9fn90hYaHiImKi4yNjo+DlJWWl5iZmpucnZ6fkqOkpaanqKmqq6ytrq+v/aAAwDAQACEQMRAD8A3+Pfuvde9+691737r3Xvfuvde9+691737r3Xvfuvde9+691737r3Xvfuvde9+691737r3Xvfuvde9+691737r3Xvfuvde9+691737r3Xvfuvde9+691737r3Xvfuvde9+691737r3Xvfuvde9+691737r3Xvfuvde9+691737r3Xvfuvde9+691737r3Xvfuvde9+691737r3Xvfuvde9+691737r3Xvfuvde9+691737r3Xvfuvde9+691737r3Xvfuvde9+691737r3Xvfuvde9+691737r3Xvfuvde9+691737r3Xvfuvde9+691737r3Xvfuvde9+691737r3Xvfuvde9+691737r3Xvfuvde9+691737r3Xvfuvde9+691737r3Xvfuvde9+691737r3Xvfuvde9+691737r3Xvfuvde9+691737r3Xvfuvdf/Q3+Pfuvde9+691737r3Xvfuvde9+691737r3Xvfuvde9+691737r3Xvfuvde9+691737r3Xvfuvde9+691737r3Xvfuvde9+691737r3Xvfuvde9+691737r3Xvfuvde9+691737r3Xvfuvde9+691737r3Xvfuvde9+691737r3Xvfuvde9+691737r3Xvfuvde9+691737r3Xvfuvde9+691737r3Xvfuvde9+691737r3Xvfuvde9+691737r3Xvfuvde9+691737r3Xvfuvde9+691737r3Xvfuvde9+691737r3Xvfuvde9+691737r3Xvfuvde9+691737r3Xvfuvde9+691737r3Xvfuvde9+691737r3Xvfuvde9+691737r3Xvfuvde9+691737r3Xvfuvde9+691737r3VeXcX8y3orpLsrdXVu69p9tZDcG0Kuko8lWbewWzqvDTy1mMosrE1DUZLfmJrZY1p69FYyU8RDggAixONHO/3qPb3kLmnd+Ud42feZNysnVXaGK2aIlo0kGgvdxsRpcA1Rc18skOXvM9hY3UtpNDMZEIqQFpkA4q4Pn6dLb43/ADw6h+UO+MrsDYG3OyMRmcRtSu3hU1O8MRtjH4x8Zj8vgsLNBBNhd4bgqmrmqtwQsqtCsZjVyXBCqx97XfeH5K92uYLzlzlza90gvoLN7lmuY4EjMaSRREAxXMza9UykAqBQN3AgAv7Zv9nus729vFKrqhbuCgUBA8mOcjy6Ov7nno8697917r//0d/j37r3Xvfuvde9+691737r3Xvfuvde9+691737r3Xvfuvde9+691737r3Xvfuvde9+691737r3Xvfuvde9+691737r3Xvfuvde9+691737r3Xvfuvde9+691737r3Xvfuvde9+691737r3Xvfuvde9+691737r3Xvfuvde9+691737r3Xvfuvde9+691737r3Xvfuvde9+691737r3Xvfuvde9+691737r3Xvfuvde9+691737r3Xvfuvde9+691737r3Xvfuvde9+691737r3Xvfuvde9+691737r3Xvfuvde9+691737r3Xvfuvde9+691737r3Xvfuvde9+691737r3Xvfuvde9+691737r3Xvfuvde9+691737r3Xvfuvde9+691737r3Xvfuvde9+691737r3Xvfuvde9+691qY/zBP8AssXu/wD7XuC/943bfvjb95L/AKfdz9/z0Q/9osHUQ8xf8lq//wBMP+Or0Y/+T9/2Utvj/wAQZuX/AN77rP3KH3J/+nqb/wD+K/P/ANplj0Z8m/8AJUn/AOedv+Pp1sf++oXUl9e9+691/9Lf49+691737r3Xvfuvde9+691737r3Xvfuvde9+691737r3Xvfuvde9+691737r3Xvfuvde9+691737r3Xvfuvde9+691737r3Xvfuvde9+691737r3Xvfuvde9+691737r3Xvfuvde9+691737r3Xvfuvde9+691737r3Xvfuvde9+691737r3Xvfuvde9+691737r3Xvfuvde9+691737r3Xvfuvde9+691737r3Xvfuvde9+691737r3Xvfuvde9+691737r3Xvfuvde9+691737r3Xvfuvde9+691737r3XvfuvdFJ+dmazO3fib3Lmtv5bJ4LMUOFwslDlsPX1WMyVHJJu3b0Ej0tdRSwVVO7wyshKOCVYj6E+4Z+8Lf322ezfPF9tt5Lb30cERSSJ2jdSbmEEq6kMpIJBoRgkdE+/u8e0XrxuVcKKEGhHcPMdaun+nfvD/n8va3/AKMPd/8A9ePfJL/XD5//AOm53j/stuf+tnUVfvC//wCU2b/e2/z9bRfwTzWZ3F8Tems1uDLZPO5iuwuakrstmK+qyeSrJI927hgjeqrq2WeqqHSGJUBdyQqgfQD31t+71f325+zfI99uV5LcX0kEpeSV2kdiLmYAs7EsxAAAqTgAdSrsDvJtFk8jlnKmpJqT3HzPRtvczdHHXvfuvde9+691737r3Xvfuvde9+691737r3Xvfuvde9+691737r3Xvfuvde9+691737r3Xvfuvde9+691737r3Xvfuvde9+690Eu4eguit25mu3FuvpXqXc24MnJHLks7uHrjZ2azOQlihjpopK7J5LDVNbVyR08KRqZHYhECjgAewbuXtz7e7zfXG57xyJs13uUpBeWaytpZXIAUF5HiZmIUAAkmgAHAdI5NvsJnaSaxheQ8SUUk/aSK9OWz+m+oevMnPmtgdV9b7GzNVQy4upy2z9j7Y2zk6jGTVFLVzY6evwuLoqqWhlqqKGVoWcxtJCjEXRSFWycj8lctXcl/y5yhte33zxmNpLa0ggkaMlWKF4o1YoWVWKk0JVTSoHV4bKztmL29pFG5FKqqqaelQBjA6Ej2KOlPXvfuvdf/09/j37r3Xvfuvde9+691737r3QY747t6Z6xd4+ye3OsevZIkWSSPfG/tq7TeON4JKpHdc9lqBkRqaJpATwUUt9AT70WUcWA690EH+z4fB3/vMv4pf+lEdRf/AGYe6+JH/vxf2jr1D6de/wBnw+Dv/eZfxS/9KI6i/wDsw9+8SP8A34v7R16h9Ovf7Ph8Hf8AvMv4pf8ApRHUX/2Ye/eJH/vxf2jr1D6de/2fD4O/95l/FL/0ojqL/wCzD37xI/8Afi/tHXqH06FzZPeHSvZckUPXPb/V2/5Z0aSGLZPYG091STIsUEzPEmCy1e0iLDUxuSAQFkU/RhewZTwYHr3Qo+99e697917r3v3Xuve/de697917r3v3Xuve/de6Bfc/yQ+O+yWlTeffXS+0XgjnmmTc/aWx8A0MVLFHPVSyrlc7SGOOmgmR5GNgiMCbAj3Uso4sOvdB1/s+Hwd/7zL+KX/pRHUX/wBmHvXiR/78X9o69Q+nXv8AZ8Pg7/3mX8Uv/SiOov8A7MPfvEj/AN+L+0deofTr3+z4fB3/ALzL+KX/AKUR1F/9mHv3iR/78X9o69Q+nXv9nw+Dv/eZfxS/9KI6i/8Asw9+8SP/AH4v7R16h9OlxtX5R/GbfckUWyPkV0VvKWclYI9q9udf7hkmYTCnKxJiNwVjSEVBCWAPrOn68e9h0PBh+3r3Q6KyuqsrBlYBlZSCrKRcMpFwQQeD7t17rv37r3Xvfuvde9+691737r3XvfuvdY5poqeKWeeWOCCCN5pppnWOKGKNS8kssjlUjjjRSWYkAAXPv3Xui/7n+W/xS2TVvQbz+Tfx72jXRytBJRbn7o63wFWk6rqaF6bK7kpJllVeSpFwPdS6Di4/b16nSW/2fD4O/wDeZfxS/wDSiOov/sw968SP/fi/tHXqH069/s+Hwd/7zL+KX/pRHUX/ANmHv3iR/wC/F/aOvUPp17/Z8Pg7/wB5l/FL/wBKI6i/+zD37xI/9+L+0deofTqXQ/OH4WZOqiocb8vvi7kK2fX4aOh7/wCp6uqm8UbzSeKng3bJLJ44o2ZrA2VSTwPfvEj/AIx+3r1D6dD/ALZ3jtHelD/FNnbp25uzGen/AHI7ZzmMz1D69Wj/ACvF1VVT+vQ1vVzY/wBPdgQeB690o/e+vde9+691737r3XvfuvdRquto6CE1FdV01FAGVTPVzxU8IZuFUyzMiBmP0F+fbU08FuniXEypHXixCj9poOtFgoqxAHTX/ejbP/PRYL/z74//AOqPaT97bV/0c7f/AJyJ/n6p4sX+/F/aOnwEMAykFSAQQbgg8ggjggj2YAggEHHTnXGSSOKN5ZXSOKNGkkkkYJHHGgLO7uxCqiqLkngD3VmVFZ3YBAKknAAHEk+nXiQBU8OguzXevSO25Hi3D3H1XgZYpBFJFmuwto4uSOU6rRuldl4GSQ6G4Ivwf6ewlfe4XIO1sybnzxs9u4NCJby2jIPoQ8gzg4+XSR7+xiJEl7Cp+bqP8J6YP9mf+NP/AHkP0Z/6NrYP/wBkHsu/12fav/wpnL//AHMbP/rd03+9dr/6OVv/AM5E/wA/Xv8AZn/jT/3kP0Z/6NrYP/2Qe/f67PtX/wCFM5f/AO5jZ/8AW7r3712v/o5W/wDzkT/P17/Zn/jT/wB5D9Gf+ja2D/8AZB79/rs+1f8A4Uzl/wD7mNn/ANbuvfvXa/8Ao5W//ORP8/S62x2h1pvZ0i2Z2JsbdskkflSPbG7cBnneIgN5ETFZCrZo9LA3HFj7EG0828q78wTY+ZtvvXIqBBcQzEj1pG7Y+fT8V1az4guY3P8ARYH/AAHpc+xB0o697917r3v3XuuiQoLMQFAJJJsABySSeAAPfiQASTjr3TH/AHo2z/z0WC/8++P/APqj2X/vbav+jnb/APORP8/Tfixf78X9o6J78/M/gav4g92U1Jm8RVVEuDwYigp8lRzTSEbw24xEcUczO5CqTwPoPcJfeO3Hb5vZTnyKG+heQ28VArqSf8Zg4AGvRNzDJG2zXwDgnSPP+kvWqP7489RJ1tcfAPP4Gk+IPSdNV5vEUtRFg84JYKjJUcM0ZO8NxsBJFJMroSrA8j6H32G+7juO3w+ynIcU19Ckgt5ahnUEf4zPxBNepb5ekjXZrEFwDpPn/Sbo4X96Ns/89Fgv/Pvj/wD6o9zb+9tq/wCjnb/85E/z9HPixf78X9o69/ejbP8Az0WC/wDPvj//AKo9+/e21f8ARzt/+cif5+veLF/vxf2jr396Ns/89Fgv/Pvj/wD6o9+/e21f9HO3/wCcif5+veLF/vxf2jr396Ns/wDPRYL/AM++P/8Aqj3797bV/wBHO3/5yJ/n694sX+/F/aOs9NnsHWzpTUeaxNXUy6vHT02Ro555NCNI+iKKZ5H0RoWNhwAT9PbkW4WE8ixQX0LyngFdSTQVNADXhn7OtiSNjQOCft6dvazq/XvfuvdNVVncJQzNTVuYxVHUIFLwVWQpKeZQ6hkLRSzI6hlNxccj2kl3Cwt3MU97Ckg8mdQf2E16oZEU0ZwD9vWSjzGJyMjxY/KY6vlRPI8dHW01VIkdwut0gldlTUwFzxc+7QXtncsUtruKRwKkKysQPWgJx1tXRjRXBPyPTj7U9W6DHcndnTOzatqDd/bnWO1a5H8b0W5N+7VwdWknrGhqfKZalmV7xtwRf0n+h9hPdOfeRtjmNtvXOm02dwDQrPd28TA5xpkkU1wfLyPSWW+soTpmvIkb0Z1H+E9Jr/Zn/jT/AN5D9Gf+ja2D/wDZB7K/9dn2r/8ACmcv/wDcxs/+t3TX712v/o5W/wDzkT/P17/Zn/jT/wB5D9Gf+ja2D/8AZB79/rs+1f8A4Uzl/wD7mNn/ANbuvfvXa/8Ao5W//ORP8/Sr293J1Du6WGHafanW+55qjV4Itvb42xmpZtDOj+GPG5SpaTS8TA2BsVI/B9nG2c8clb06R7Pzftd3I3AQ3cEpNK8AkjV4Hh6H06ejvbOYgQ3cTn5Mp/wHoSPYo6U9e9+691737r3XvfuvdNFRn8DSTSU1Xm8RS1ERAlgqMlRwzRkqGAkikmV0JVgeR9D7Ry7jt8LtFNfwpIOIZ1BH2gmo6oZIwaFwD9o6y0eZw+RlaDH5XG10yxmVoaOupaqVYlZUaRo4JXcRh3UE2tcgfn3aC+srlzHbXkUjgVorqxp60BOMjPz62HRjRXBP29OXtV1br3v3Xuv/1N/j37r3XvfuvdE2+bnzf6d+CnUkvZfaNXJksxlZKrGdeddYmpp4t0dhbhp4oZJaDFrMHShxGLSpilyWSlRqeghkTiSeanp56SSLGtT1sCvWlF8q/wCb181/lLlcpBU9n5fqDrqqkljoOs+oMjX7QxUWPceP7bP7jx80G7t3yVMKqaha6sehaW7Q0tOraAXvNI/nQfLqwA6rFnnnqp5qqqmlqamplknqKieR5p555nMk0000haSWWWRizMxJYm559tdb6xe/de697917r3v3Xuve/de65RySRSJLE7xyxuskckbFJI5EIZHR1IZHRhcEcg+/de6Px8cf5nfza+L9fjT1/wB4bpz21sfLGz9c9lV1Z2BsKrpI76sdHic7VTV236WYm7th6rG1BI4lHPt1ZpE4NjrVB1t4/wAuD+bp1F86lh673Hjqfqf5EUePqK2o2DU15qtv71pMfEJchluuczUiKeuemgDT1GKqAK+lgV3Q1UEMtQq2KZZMcG6qRTq3r291rr3v3Xuve/de61wv5pP87it+O29dyfHH4rUODzXae2pHxfYPamep4M3t7YWbCEVO2dr4Eu1Fnt34h2C1s1d5KDH1CtTNTVMolFOlmuNJKpx6sB1qsdxfK75LfIGsqqzufvPs7sRKuV5mxO4N3ZeXbVK0hJePF7Tp6in2xh6ckk+KkpIYgTwvtGzs3xMT1bov3uvXuve/de697917r3v3Xuve/de697917o0HQHzS+UvxfytHkuke7N9bNpKSSN32suYmzGxcgiSrIYspsXOfxHaleGsVDvSGaNXbxuhYn3dZHT4WPWqdbsP8q/8AmbYP5/bBzeF3XisTsz5Adb0lBNvna+JmqThNy4OqEVJT7/2jDWmSqpcTUZQtT1lA81VJjJ2hDzOlTAzL4ZfEFD8Q6qRTq2T291rr3v3Xuve/de6oZ/mgfzoNufELNZToroPFYTsX5AUtPGm6cxmXmqdidUyVlOs9PSZKmoZ6ap3RvP7aVJf4ek0FNRCRGqZZHD0bJ5pwh0rlutgV61E++fmF8nPk3lavKd4917935HVzvOu363NT0GzMezymXRiNj4f+H7Rw8atbimoor6Re9h7RM7v8TE9Wp0Wz3TrfXvfuvde9+691737r3XvfuvdKHa2792bGzVLuTZO6NxbO3FQnVRZ7a2byW381RtqR9VLlMTU0ldTnXGpukg5UH8e9gkcD17q5b4i/z1/l70FlsNhe483L8k+rIpYqfJ47fVQn+krH0DP+/Wbf7IWJstksnHfXozv8UjlVTErU5YTI8lw64OR1ogdbk3xf+UvTny/6nw/cPSm5Bm9uZCR6DKYysSOj3LtHcFMkb1+2d2YdZp5MTmqJZUfTqeGogkjngklgljldcjq4qpx1Th0Yj3fr3XvfuvdVwfzVP+ySsx/4fWyv/c2p94vfe/8A+nNXv/Swtf8AjzdBnmz/AJI7/wDNRf8AD1rD++TvUW9bNPy6+deJ+Mey9q7L2bS4/c3cOd2ph62noK1nlw2zsTPj0jp81uCOnlimqq2rkjP2dCrxtIimaVkj8az9Wven7wln7UbHtGxbHDFd87XFnG4R6mK2jKALLMFILMxH6cQIJALuVXSJJR3nf02uGKCABr1kBoeCinE/P0H5nHHXx7Q757i7myE+Q7M7E3Ruvzy+ZcbW5KaLb9GwKsq43blGafBYyNSoNoKeO7DUbtc++bHNvuJzvz1cyXPNfM13eamqEZyIV/0kC6Yox/pEGcnOeo6utwvb1i11cu/yJwPsHAfkOgk9gzpH1737r3Xvfuvde9+691yjkkikSWJ3jljdZI5I2KSRyIQyOjqQyurC4I5B97VmRldGIcGoIwQRwIPr14Eg1HHo6HRPz3+RXRldQQ0+8a7fmzaeQLV7I31WVObx8lIzfuRYnLVLy5vb8qKzGL7aYU6yHVJBKLqZ19vfvFe5vt/cWyRb3JuOxqe61u2aVCvmI5GJlhIyV0NoDZaNxgndhzBuVgygTGSAfhY1H5HiPyNPUHrZE+N/yQ2D8m+v4t8bIllpKmknXG7o2tkJIjmtrZnxCX7OtERCVNFVRHyUlXGPFUx3/RKksUfUX2u90OXPdfltOYNgcpKjaLi3cjxbeWldLUwysO6OQdrrXg6uiyZtm52+6W4ngNCMMp4qfQ/L0Pn9tQDA+5I6MemLdH/Hs7i/7UWX/wDdfUey/dv+SVuf/PPJ/wAcPTcv9lJ/pT/g60hffAzqC+ve/de697917r3v3Xuve/de697917r3v3Xuve/de6PN/LZ/7LU6Y/8AKi/++n337yB+61/0/fkX/qN/7t930fcsf8lyx/2//Vt+trH32C6lrr3v3XutWv8Ame/9li7/AP8AtRbC/wDeNw3vkZ97H/p93Mn/ADz2n/aLF1FHNP8AyWrn/Sp/x0dLT+WR2ZtLp7eXevZO+Mh/DttbW6Zlrq6VFElTUyvvPa9LQY2ghLJ9xksrkJ4qanjuoeaVQSouQffdR5q2bkjffcHmnmC58LarPYi7nizE3VuqIg/E8jlUQVFWYVIFSH+VrqGynv7mdqRJBU/70tAPmTgfPoIfkn88O7vkLlchSLn8lsHrl5JYsdsHa2TqaGmmoXAS26MpSfaVm6KmZUDOlR/kaPzFBHySC/dL7w/P3uVeXMI3GXbuWCSEs7eRkUpw/wAYkXS1wxoCQ/6YPwRrmqPc9/vtxdh4hjtvJFNMf0iPi/PHoOiTe4F6I+ve/de697917r3v3XujOdK/ML5BdD11FJsvsDL1mApZE82yN0VVVuHZtXThkMlMMPXVBOK8wjAabHyUdTYWEgHHuV+RPe33J9vLi3bYuZJ325Dm1uGaa2Yea+G7fp1oKtC0clMB6dGljvO47ey+BcMYx+FsqfyPD7RQ/PrZb+KPyi2h8p+uv72YKH+DbmwktNjN87QmqFqKnb2XngaWCWnm0xvW4LLJFI9FUlE8gjkjYLLFKq9UvZ73b2T3d5Y/fO3x+Butuyx3dsTVoZCKgg41RSAExPQatLKQHRwJP2jdYd2tvGjGmVcMvof8oPkf8oPRoPctdGvXvfuvdamP8wT/ALLF7v8A+17gv/eN23742/eS/wCn3c/f89EP/aLB1EPMX/Jav/8ATD/jq9GP/k/f9lLb4/8AEGbl/wDe+6z9yh9yf/p6m/8A/ivz/wDaZY9GfJv/ACVJ/wDnnb/j6dbH/vqF1JfXvfuvdf/V3+Pfuvde9+69186r+aL8t8t8wPl92TvSLLy13XGy8tX9c9RUCSv/AA2l2RtivqKJM1RweSRBUbzyUc2WnkP7jCqSMkJDGiFkz+I5Pl5dXAoOmz+XH8Etz/Prv2DrOjytXtTr/bGJk3Z2pvmlpIqyowG24pko6LHYiGpaOjqNzbmykqU1HHIxEUQnqjHLHSyRNqKMyNTy8+vE063bOh/5X3wW+POJx9Ds349bC3HmaGOPyb27PwuP7K3nW1iBdeR/i266XIQYeqmK3ZMXBQUy8hIkBI9mCwxrwUdVqejvYXa22NtosW3duYHARLTw0ix4XEY/FItJTgLBSqlDTwKKeBVARP0qBwB7uABwHWun73vr3XvfuvdQ6/HY/K0z0WUoaPJUchRpKSvpYKymdo2Dxs8FQkkTFHUEEjgi49+690WjtH4R/ELuiiqaPsz42dNbneqjnifLPsLAYrc8C1RLVBoN3YOjxm6cXJM51M9NWROXAa+oAihjRuKDr1T1rK/zPv5HGI6J2Dur5F/EvIZ/J7C2fR1Ge7D6h3HVy5zM7V25THXkNy7I3C0X8QzGAwNLeeuo8kZqympYpakVc6qYo0ktvpBZOHVgfXrXT2HvrdvWO9Nrdh7Cztftjeey85jtybZz+Ml8NbisxiqmOroqqFrMjhZYwHjcNHKhZHVkZlKYEggg56t19JT4V/JPF/Lj4wdQ9+4+Gkoq3fG2U/vViKJ2anwW+MHVVOA3ph4FlkkqY6Kk3JjKk0hmIklomhlPDgk0jfWit02cdGl93690HPcO9Zetuo+0+xYIfuZ9g9c733rDT6Fk88u1ts5POxw+N5IkfyvQBbF1BvYkfX3omgJ9B17r5eOYy+U3Bl8rn83X1OUzWbyNdl8vk62Vp6zI5TJVMtbkK+rmcl5qmsq5nkkY8s7En2UHOTx6c62QP5HP8svpX5KbO3l8mfkTtxN/bcwW9qnYHXnXeQq6ym23V5TC4rDZnP7s3LTUE1NLnaeN85BR0VHLL9oXiqmqIZv2Ciq3iVgXbI6qT1tcbR6A6I6/o0x+xOleptl0McIgSk2p11tDb9OIQIgI/DicPSIU/ZS4I50j+g9rAqjgo6r0LEMMVPFFBBFHBBBGkMMMKLHFDFGoSOKKNAqRxxooCqAAALD3br3WT37r3XvfuvddMqurKyhlYFWVgCrKRYqwNwQQeR7917ovnafxM+MndmHq8H2r0L1TvWjq6d6Y1GW2TghmqNJFVWkw+46Sjptw4KrCoAs9FVU86gWDj3UojYKjr1etFL+a58HMX8Ffk7LsjZU+SrOpt/7apewOtJcrLJWV+JxtVX1+JzG0K/JSKrZKs23l8c/jla8j0FTStKzSs7Eumj8N6D4T1cGvT3/Jb7HyvXX8xvoEUFXPBjt+VO6+uNx0sTSCPJ4rc20sy1DSVKxsvkgpt0UGOrAGuokpUYj03G4DSVevHh19Bb2ZdU697917omX8wT5OH4g/EbuHvChanbdeDwMWD6+pqmOGeOo7A3bWU+3dqyyUc4MVdSYfIZAZGqgP+co6OYe25X0IzefWxk9fN7zmczG5s3mNybiylfnNwbgymQzmdzWVqpq7J5fMZarmr8nlMjW1DyVFZX5CtqHlmldmeSRyzEkn2V9X62LP5Q38nPZPyZ2FSfJv5Qx5qq6wy2UrqPrTrDF5Gv282+qTC1k2Oy26N1ZvGyUuapNsNlaeako6agqKWqqZaaWZpkgES1CqGAONb8Oqk9bTXW3xC+LHUFFTUPWfx36a2ctKF0VuI672umandCSk1fuCbGzZ3J1K3sJampllCgDVYABYEReCjqtejBUdFR46miosfSU1DRwArBSUcEVLTQqzM7LFBAiRRhnYkgAXJJ92691J9+691737r3Saz2zNn7qV03RtTbW5EkgSmdM9gsXmFemilaeOndchS1AaCOdy6ofSHJIF/eiAeI690QPv7+Uv8CvkLiq6lznQm1OvNwVMTik3t01Q0fWO48bVMmha/wC225SwbXzlQq8acrjq+I/XRqCsG2hjbitD8ut1PWmz/Mf/AJc3Yn8vzs3G4fJZN98dS76/iFX1j2RFQmhavjx7xHIbY3PRI80GL3dhI6mJpFjdqetp5EqISt5oKdDLEYzT8PVga9LP+UF8ysz8SPl3sumyGYlpuou6sthes+1cXNLJ/DI4svWtRbR3nJCH8UNdsrcGRWZqjQ8i4yeuhQXnJG4JNDj+E8evEVHX0FPZl1Tr3v3Xuq4P5qn/AGSVmP8Aw+tlf+5tT7xe+9//ANOavf8ApYWv/Hm6DPNn/JHf/mov+HrWH98neot6OF0t0f3F86u4dx1qZKKGWWWmzO/995SCaTEbboJ9NBi6KmpInRqqr+zovt8Zjkkj1QUpBeOKJ5Em3kTkDnf7wfO+6TrdBXLLLeXcgJjgQ9kaqoPc2ldEEIYVSM9yojMDmxsL3f72VtWeLueCjgB/kUeg9B1eV1Z/LI+LfXlJRyZ/bNf2juCBI2qMxvbJVbUMlR9ZjT7YxM1Bglo3f9EdTFWSIoAMjG7N0B5Q+6j7R8swwNuW1SbvuSgVkunbQT56YIykOmvBZFkIGC5ySPLTlbarYL4kRlk9WOP95FB+2v29G7wHSPTO1I4ots9S9a4BYDE0X8H2NtnHOrwN5IpTLS4yKR5kkJfWSX1kte5J9zRtvIPI2zqi7VybtVsFpTw7SBDUZBqsYNQc1JrXNa9HMdjZQgCKziWnoqj/ACdCFRYzG40SLjsfQ0CylTKKKkgpRKUBCGQQRxhyoY2ve1/YmgtbW1DC2to4weOlQtaetAK9KFVVrpUD7OppAYFWAKkEEEXBB4IIPBBHt8gEEEY6t0iM11l1tuSBqXcXXux8/SvGYnps1tPA5SBomOpo2hrqCeNoyeSCLX9kF/ypytusZh3Plrb7mIimmW3hkFPSjoRT5dMPa20opLbxsPmoP+EdEz7l/lq/GftHHVr7c2snU+6ZIpDQ53YoajxcdRZfCK/aMkp2/UUSsvrSmjo5mBNplNiIN55+6x7Vc22s7bZtA2bdyDoltO2MN5a7YnwWT1CLGxqaOOiS95Y2u7VvCi8GXyKYH5rwp9lD8+tcTu/pzd3QnZm5er96RRfxfb9Sngr6TU2OzeJrI1qcVnMbI4DNRZKjkVwrWkhfVFIFkjdRy+5+5H3r265r3XlLfUX622cUdfgljYao5UJ/C6kGhypqjAMrARpfWU233UtrOO9Tx8iPIj5Ef5uPRm/5cfcuR6o+TezcT9067a7VqqfrncNCXbwz1WanEe06xIyfGK2i3O1OiSEFhT1E6LbyH3K/3X+ebrk73X2Oy8Yjat4cWUyVwWlNLdgOGpZ9AB4hHkUfEejXlq9a03SFK/pTHQR9vwn7Q1PyJ9etqT3176ljrHLFFPFJBPHHNDNG8U0MqLJFLFIpSSOSNwUeN0JBBBBBsfdXRJEaORQyMCCCKgg8QR5g+Y68QCCCMdAh/ssHxp/7x46M/wDRS7B/+x/2Af8AWm9q/wDwmfL/AP3LrP8A609IP3Vtf/Rtt/8AnGn+bop/zk6C6K2l8U+4dxbU6V6l2zuDGYbDS43O7e642dhczj5Zd2YCmlkocnjcNTVtJJJTzPGxjdSUcqeCR7hz7wHtz7e7N7Pc77ns/ImzWm5RQRFJYbK2ilQm4hUlJEiVlJUkEgioJHA9FG/bfYQ7ReyQ2MKSBRQhFBHcOBAr1rF++T/UW9bOnwb6C6K3b8U+ntxbr6V6l3NuDJ4bMy5LO7h642dmszkJYt2Z+mikrsnksNU1tXJHTwpGpkdiEQKOAB76wfd/9ufb3efZ7kjc945E2a73KWCUvLNZW0srkXEygvI8TMxCgAEk0AA4DqUth2+wm2iykmsYXkKmpKKSe48SRXo2H+ywfGn/ALx46M/9FLsH/wCx/wBzH/rTe1f/AITPl/8A7l1n/wBaejf91bX/ANG23/5xp/m69/ssHxp/7x46M/8ARS7B/wDsf9+/1pvav/wmfL//AHLrP/rT1791bX/0bbf/AJxp/m69/ssHxp/7x46M/wDRS7B/+x/37/Wm9q//AAmfL/8A3LrP/rT1791bX/0bbf8A5xp/m69/ssHxp/7x46M/9FLsH/7H/fv9ab2r/wDCZ8v/APcus/8ArT1791bX/wBG23/5xp/m6fdtdD9HbMzdFuXZ/TXVO1Nx437n+HZ/bXXe0MFm6D7yknoKv7LK4vD0tdS/dUNVLDJokXXFIyNdWIJhtXt5yBsV/BuuycjbPZ7nFq0TQWVtFKmpSjaZI41ddSMytQiqsVOCR05Ft9hA6yw2UKSjgVRQRXGCBXhjoVvYw6V9e9+691q1/wAz3/ssXf8A/wBqLYX/ALxuG98jPvY/9Pu5k/557T/tFi6ijmn/AJLVz/pU/wCOjoh2Ply0wfC4tq6Y5yeipXxlAJpJMtUJUA4+kNLThpK2T7uQGKKzXl0kAsFtjzbPePqsLQyMbhkUxpUmQ17F0jLHURpWhq1KCoHRApc9iV7qYHn6fb1sO/E7+WN1zsnb+G3h39hqXfnYVdDBkX2jXyvPs3aRlAlixtXj4mSn3RlYY201TVXloRISkcThBPJ0v9nPun8sbDttjvfuPYpuPMsihzbOSba3rkIyCgnkAxIZNUWqqqjBRI0j7RytbQRpNuCCS5OdJ+FflT8R9a4+Xn1aHt7Zmz9owR0u1Nqba2xSxIY4qbb2CxeFgjjKxqUjhxtLTRohWJRYC1lH9B7y123Y9k2WNYdn2e1tIQKBYYo4gBjACKo8h+wenQqjghhAEMKoPkAP8HSl9mvTvTBktqbXzPl/jG28BlfuGR5/4lh8dXeZo9PjaX7qnl8jJoFib2sLey662fab7X9btdtNqIrrjR604V1Ka08q9NtFE9dcSn7QD0Wvs34OfF3tTH1NLmepdsbeyE8bLDuHYVBS7KzlJMVCJVLNgoKWgyE0SqAq11PVQ/1Q+4s5r9gPaTm+2lhvuTLS2uWGJrRFtZVPANWIKjkeQlSRfVT0WXWw7VdqQ9mit6oNJ/lg/mCOtaD5Q/H/ADfxp7gz3WWVrGytDDBS5va2eaAUv8f2tlDMMdkGpg8ggqYaimnpKhQSoqqaTQSmljyq92vbe/8AavnbceVLyYzW6qstvNTT41vJXQ+mpowZXjccPERtNVoTF+67c+13klq7VXip9VPA/wCEH5g9D9/LN7Rq+u/lRtPDNVPFguzqHJ7EzUBa8T1NTSyZTbc4hIKNVLuPG08Cvw6RVMoBszK0j/dU5tm5Z93tmsTKV2/do5LSUeRZlMkBpw1eOiIDghXehoSCY8r3Ztt2hSv6coKH/Cv/ABoAfmetpT31y6lbr3v3XutTH+YJ/wBli93/APa9wX/vG7b98bfvJf8AT7ufv+eiH/tFg6iHmL/ktX/+mH/HV6Mf/J+/7KW3x/4gzcv/AL33WfuUPuT/APT1N/8A/Ffn/wC0yx6M+Tf+SpP/AM87f8fTrY/99QupL697917r/9bf49+690BHyl3pXdbfGT5GdiYtnTJ7B6I7d3pjnjGp1rtrdf7hzlIyDyQ3daihUga05/I+vurmiMfQHr3XzEfZT051u1f8J1+pcfs/4Zbw7SakRc/3F25nHlyASRJJ9q9f0FFtrA49i6KsqUG4Zs5KrIWW9WVvdSAvtVohbzJ6o3Hq/v2p611737r3Xvfuvde9+691737r3XvfuvdQcnjcfmcbkMPlqOnyOLytDV43JY+riWakrsfXQSUtZR1MLgpLT1NPKyOpFmViD7917r5b/Zu3aLaHZHYO08a0jY7a+9917doGmYtK1Fhc9X42laViWLSGCmXUbm59lBFCR8+nOtvn/hNt2FVZv4yd5da1VTJUJsHuWl3Fj0lMzfZY3f8AtLGwijgLL4EpTlNm1c4RGLCWeRmA1AsttT2MPn1VutjX2q6r0A3yopKmv+MHyPoaOF6irrehu36SlgjsXnqajr3cMMEKAkDXJK4Uf4n3V/gb7D17r5ifsp6c63kP+E8+7MPnfgTWbfoaqJ8rsnuzf2KzdF5V+5p3y1BtrcmPqXgIWRaSro8uFjksY5JIJVDFo3VTC2P6dPn1RuPV6vtR1rr3v3Xuve/de697917r3v3Xuve/de6rp+cv8sjoT+YBmeu873HuntnbNd1pjNw4nBnrHObMwqV1JuSqxdZVjMndOwd5zVL0s2JT7fwvAqCSTUGLAhqSJZKFicdbBp0XD4//AMin4kfHDubrzvLY/YnyMyu7OtNwQ7kwWO3Xu7rOu27V10EFRTpFlqTEdRYPJT0hSoYlYauB7ger8Gq26KwYE1H+r069U9XS+3+tde9+691ref8AClDfFTjPjj8f+u4Z5Iod49y5TdNXHGZEFTFsPZmRx0cMxRNEkC1G+0k8bMAZI0YKxQFEt0e1R8+rL1p14rG1WZymNxFCgkrcrX0eNo0Y6VeqrqiOlp0ZrHSGmlAJsbe0PVuvqLdTdc4Hp/q/rvqna8CU+3et9k7Y2Rho0RUvj9sYajw9PNIFA1VFSlJ5JXPqeRmZiSSfZuoCqFHAdN9CD7317r3v3Xuve/de697917r3v3Xuve/de6pl/n2bBxW7/wCXL2HuSupIp67qzffVm9sLUO+iWircpvTGda1MkNo3Mvmxe/542S6AhtVyUALFyKxE+hHWxx60NVZkZWVirKQyspIZWBuGUixBBHB9l3V+vp8fGrf1X2r8c+guz8hK8+Q7G6W6t31XzSafLJX7s2Pg89WNKFLKsxqa9tYB4a49myGqqfUdN9DZ7t17quD+ap/2SVmP/D62V/7m1PvF773/AP05q9/6WFr/AMeboM82f8kd/wDmov8Ah61h/fJ3qLetqv8Alx9XY7rb4q7BrIqWOPN9jR1PYW4KwL+7WNnJWXAIXbU4hpNr01GipfQJDI4AMjX6/wD3YOUrblb2g5cnSEC/3MNeTN5t4p/RFeNFgWIAcNWpgAWPUs8tWi22027AfqS95PrXh+xafz6PZ7yE6P8Ar3v3Xuve/de697917r3v3Xuve/de6oY/nKbPpabcnR+/oIEFbmMLvHaWTqAsSuafb1bhMxhInbX5pgX3NXkenTHbk3YD3zu+/HskMW6cgcxRxjx54Lm3kbHwwvFJEONTmebyoPXPUf8AOsIEthcAdzKyn8iCP+PHqo7qieal7S61qaeRop6ff+zp4JV/VHNDuLHSRyLe41I6gj/W94YcnSPDzdytLExEi7lbEH0ImQg/kegfZki7tSDkSL/hHW6x77wdTh1737r3XvfuvdE2/mCf9kdd3/8AaiwX/vZbb9wd95L/AKcjz9/zzw/9pUHRJzF/yRb/AP0o/wCPL1qY++NvURdbZ38vv/sjrpD/ALUWd/8Aey3J77Jfdt/6cjyD/wA883/aVP1LvLv/ACRbD/Sn/jzdHJ9zj0d9e9+691737r3Xvfuvde9+691737r3Xvfuvdatf8z3/ssXf/8A2othf+8bhvfIz72P/T7uZP8AnntP+0WLqKOaf+S1c/6VP+OjpM/y69j0G+vlz1ZTZWmWrx22p81vaaFljZfvdr4WuyGBnPkuB9puVaOXgMfRYW/UpX92TYLfmH3o5RivItdtatLdEY+K3id4Tn+Gfwm4E48uIb5bgW43i0DiqrVvzUEj/jVOtrr32H6lvr3v3Xuve/de697917r3v3XuqK/5zG26RKrobd8SotdU0+/dt1zn9c1JQybYymKVbJ+immyFYWu31lFh+o++fP35drhWb273pABcOt3A58yqGCSPy/CXlrn8QoOPQC51iWu3zD4iHU/YNJH+E9VZ/FqaWD5M/Hl4ZHidu7uq4SyMVJiqN8YOnnjJH9iaCVkYflWI94i+0bvH7q+2jIxDfv8A28Y9Gu4gR+YJB+R6Ce0kjdNtp/v+P/jw63IPfcDqaeve/de61Mf5gn/ZYvd//a9wX/vG7b98bfvJf9Pu5+/56If+0WDqIeYv+S1f/wCmH/HV6Mf/ACfv+ylt8f8AiDNy/wDvfdZ+5Q+5P/09Tf8A/wAV+f8A7TLHoz5N/wCSpP8A887f8fTrY/8AfULqS+ve/de6/9ff49+690VL54f9kO/Mv/xVL5Ef++i3h7pJ/Zyf6U/4OvDiOvmj+yrpzo3XU3z1+YnROyMb1t1D8gd/bB2Lh6jI1eM2zgauhhxtHUZeunyeSmhSegnkD1lfUySvdjdmPu6yOoorEDrVB0JP/Dqv8xD/ALyz7W/8+GM/+tfvfjS/xnr1B6de/wCHVf5iH/eWfa3/AJ8MZ/8AWv37xpf4z16g9Ovf8Oq/zEP+8s+1v/PhjP8A61+/eNL/ABnr1B6de/4dV/mIf95Z9rf+fDGf/Wv37xpf4z16g9Ovf8Oq/wAxD/vLPtb/AM+GM/8ArX7940v8Z69QenXv+HVf5iH/AHln2t/58MZ/9a/fvGl/jPXqD069/wAOq/zEP+8s+1v/AD4Yz/61+/eNL/GevUHp0QzLZXI57K5POZirlyGWzOQrcrlK+cgz1uRyNTJWVtXMVCqZampmZ2sALt7b45631tWf8JkKypej+amPeUmjpan471kEFl0x1NdF3hBVyhgusmaLHQggkgeMWAubrLT/AET8v8vVW8utqn2s6r1FraKlyVHV46ugjqqGvpZ6Ksppl1RVFLVRPBUQSr/ajmhcqw/IPv3XuvmufOH4o7y+GvyQ7D6Y3PjMjBhcfmq7Kdb5+sgkFLvHrfI1k8u1Nw0FYV+3rZGx+mnrhE7/AGuRgqKdzriYeyqRDG5UjHl1cGvTZ8VPmd8hvhhvKv3n0HvmTbU2cgpKTdW3cjQ0mc2ju+ioJJpaKm3DgK9Hp6iSiepl+3qoTBXUwmlEM8YlkDeSRozVT16lerkdt/8ACk75QUdKkW7ehuiM/VJFoaqwT7+2wksoka0z01bujdIGqHSGVWUGQFhpUhFfF0/mo61p6U3/AEEtd4/94z9U/wDoW7v/AOvXv31TfwDr2nr3/QS13j/3jP1T/wChbu//AK9e/fVN/AOvaevf9BLXeP8A3jP1T/6Fu7/+vXv31TfwDr2nr3/QS13j/wB4z9U/+hbu/wD69e/fVN/AOvaenfD/APCmDtOCp1bg+KvX+To7xfsYfsjcWCqdIkBmH3VbtrcUV5IrhT4fQ3JDD0+9/VnzQde09HC6e/4Ug/GjdlbSY/uXprs/p9qqSKNszgMhiO1NtY7UF8s+TnpqbZ25xTRG9jSYislaw/bF+LrdIfiUjr2nq9fpbvbp/wCROxqDsjpLsLbnY+y8g7Qx5jb1W0po6xESSXGZnGVMdNl9v5iCORWkoq6npquNXUtGAwuoVlYVU1HVehZ92691737r3Wrv/wAKZv8Ajx/iL/4dfcH/ALqOvvaS74J9vVl61MsTlcjgcrjM5h6uXH5bDZCiyuLr4CBPRZHHVMdZRVcJYMolpqmFXW4IuvtFwz1bo+f/AA6r/MQ/7yz7W/8APhjP/rX7c8aX+M9aoPTr3/Dqv8xD/vLPtb/z4Yz/AOtfv3jS/wAZ69QenXv+HVf5iH/eWfa3/nwxn/1r9+8aX+M9eoPTr3/Dqv8AMQ/7yz7W/wDPhjP/AK1+/eNL/GevUHp17/h1X+Yh/wB5Z9rf+fDGf/Wv37xpf4z16g9Ovf8ADqv8xD/vLPtb/wA+GM/+tfv3jS/xnr1B6de/4dV/mIf95Z9rf+fDGf8A1r9+8aX+M9eoPToPu0/5gHzM7t2HnesO1/kN2DvnYG5v4Z/H9rZysoZcXlP4LmcduHF/dRw0EMjfZZrE01SlmFpIVPI496MkjAhmNOvUHRPfdOt9fSN/lu/9kDfED/xX7rP/AN5qh9mkX9mn2dUPE9HY9uda6rg/mqf9klZj/wAPrZX/ALm1PvF773//AE5q9/6WFr/x5ugzzZ/yR3/5qL/h61h/fJ3qLetyT4wf9k0/Hj/xBnUv/vA7f99w/ab/AKdX7Z/+K/t3/aHD1NO1f8kvbf8Annj/AOODoc/cgdL+ve/de697917r3v3Xuve/de697917qlD+cx/x7PQn/a97A/8AdftT3gb9+X/kle3P/PRef8ct+gNzt/Zbf/pn/wAC9UodX/8AMy+vP/D52l/7v8f7wO5T/wCVq5Z/6WFv/wBXk6A9r/uVbf8ANRf8I63XvfePqceve/de697917om38wT/sjru/8A7UWC/wDey237g77yX/Tkefv+eeH/ALSoOiTmL/ki3/8ApR/x5etTH3xt6iLrbO/l9/8AZHXSH/aizv8A72W5PfZL7tv/AE5HkH/nnm/7Sp+pd5d/5Ith/pT/AMebo5Pucejvr3v3Xuve/de697917r3v3Xuve/de697917rVr/me/wDZYu//APtRbC/943De+Rn3sf8Ap93Mn/PPaf8AaLF1FHNP/Jauf9Kn/HR0+fyq/wDsrXD/APhjb1/9wqb2Y/dB/wCnzWP/AEr7r/ji9Ocpf8lhP+abf4Otnj31i6lPr3v3Xuve/de697917r3v3Xuq3f5kHxz7V+ReyutsP1VgqHOZHbe6Mvk8rHW5rE4UU9FWYmOlieObLVdIkxedLFUJItcj3i596L2x5w9zth5WseT9vjuLq1u5HkDSxxUVowoIMjKDUjgM9BnmbbbvcoLVLSMMyuSakDBHzp1W/wBGfy6flZsjuzp7em4tkYak2/tDtPr7dGdqot67Tq5abDYDduIyuTqI6Wmy0lRUyQ0VI7CONWdyLKCSB7xe9v8A7snvDsHPvJO+7ny/Am22W72c8rC6t2KxQ3EckjBVkLMQqkgAEngBXoM2HLe7wX1lPJbqI0lRj3LwDAnz9OtkL31E6kzr3v3XutTH+YJ/2WL3f/2vcF/7xu2/fG37yX/T7ufv+eiH/tFg6iHmL/ktX/8Aph/x1ejH/wAn7/spbfH/AIgzcv8A733WfuUPuT/9PU3/AP8AFfn/AO0yx6M+Tf8AkqT/APPO3/H062P/AH1C6kvr3v3Xuv/Q3+PfuvdFS+eH/ZDvzL/8VS+RH/vot4e6Sf2cn+lP+Drw4jr5o/sq6c62qv5W/wDKQ+Hfyw+GnXvdvb2F39Wb63Hnt/4/J1GB31XYPGvT7d3pmsHjRDjoKWWOF1oKGMOQfWwJ/PtZDCjoGateqkkHqwv/AIYB/l3/APPN9rf+jQyf/wBRe3PpovQ9aqevf8MA/wAu/wD55vtb/wBGhk//AKi9++mi9D16p69/wwD/AC7/APnm+1v/AEaGT/8AqL376aL0PXqnr3/DAP8ALv8A+eb7W/8ARoZP/wCovfvpovQ9eqevf8MA/wAu/wD55vtb/wBGhk//AKi9++mi9D16p69/wwD/AC7/APnm+1v/AEaGT/8AqL376aL0PXqnr3/DAP8ALv8A+eb7W/8ARoZP/wCovfvpovQ9eqevf8MA/wAu/wD55vtb/wBGhk//AKi9++mi9D16p6Ox8O/gB8d/gx/pF/0CY3deP/0o/wB0f71/3n3RVbk839yf7z/wL7H7mCH7Lx/3urPLpv5NSX/SPbiRrHXT59eJr0dj251rr3v3Xuix/KT4efHz5kbJg2N35sOk3VSY16uo2zn6WoqMPu/Z1fWRxJUV+19yUDR12Pec00Rnp2MtFV+GMVMEyIF90dFcUYderTrX77Q/4TQYaasqKvpb5S5PHY8u/wBpgO0Ov6XNVkcZLGP7jd21M3gYZnUWVtOEQE3YW/T7TG0/hfq2roudX/wmv+T6VMy0PfnQ1RSK9oJ6uPsKiqZEsLNNSw7Tr4oHv/ZWaQf4+6/Sv/EOvauo/wD0DY/Kn/n+3x+/6m9jf/YR799K/wDEOvauvf8AQNj8qf8An+3x+/6m9jf/AGEe/fSv/EOvauvf9A2Pyp/5/t8fv+pvY3/2Ee/fSv8AxDr2rr3/AEDY/Kn/AJ/t8fv+pvY3/wBhHv30r/xDr2rpJbq/4Tj/ADVw9LJV7a7I+O+72igZzjot077weVnnHkIgpFyvXa4hgyqoDzVsA1NYgAFvejayeRHXtQ6p9+RnxW7++Jm8oNifIDrbNdfZ2vpZa7DSVkuPymC3Fj4JFimrtublwdZktv5yCneRBMKepkkpmdVmWNyF9sOjIaMKdW49Dr/Lo+bu8/g58itq7+x+WyJ6u3FlMTt/uvZ8LT1GP3HsWes8NZk1xaNon3PtGGrlrsVMumZZ0aDX4KmoSS0UhjcHy8+tEV6+jNSVdLX0lLXUVRFV0VbTw1dJVQOssFTS1MazU9RDIhKyRTROGVgbEG/s06p1I9+691q7/wDCmb/jx/iL/wCHX3B/7qOvvaS74J9vVl61Xerdv47dnZ3XO1cwsr4nc2+9obfyiQSmCd8dmdwY/HVqwzqC0MrU1SwVwLqefaMCpA+fVut3r/hgH+Xf/wA832t/6NDJ/wD1F7X/AE0XoeqVPXv+GAf5d/8Azzfa3/o0Mn/9Re/fTReh69U9e/4YB/l3/wDPN9rf+jQyf/1F799NF6Hr1T17/hgH+Xf/AM832t/6NDJ//UXv300XoevVPXv+GAf5d/8Azzfa3/o0Mn/9Re/fTReh69U9e/4YB/l3/wDPN9rf+jQyf/1F799NF6Hr1T17/hgH+Xf/AM832t/6NDJ//UXv300XoevVPXv+GAf5d/8Azzfa3/o0Mn/9Re/fTReh69U9e/4YB/l3/wDPN9rf+jQyf/1F799NF6Hr1T1bZ1J1ftTpTrHYfUexoa6DZ3XG18Ps/bMOSrHyOQiwuDo46GgSsrpFR6uoWCIBpCAWPPt9QFAUcB1roRPe+vdVwfzVP+ySsx/4fWyv/c2p94vfe/8A+nNXv/Swtf8AjzdBnmz/AJI7/wDNRf8AD1rD++TvUW9bknxg/wCyafjx/wCIM6l/94Hb/vuH7Tf9Or9s/wDxX9u/7Q4epp2r/kl7b/zzx/8AHB0OfuQOl/Xvfuvde9+691737r3Xvfuvde9+691Sh/OY/wCPZ6E/7XvYH/uv2p7wN+/L/wAkr25/56Lz/jlv0Budv7Lb/wDTP/gXqlDq/wD5mX15/wCHztL/AN3+P94Hcp/8rVyz/wBLC3/6vJ0B7X/cq2/5qL/hHW6977x9Tj1737r3XvfuvdE2/mCf9kdd3/8AaiwX/vZbb9wd95L/AKcjz9/zzw/9pUHRJzF/yRb/AP0o/wCPL1qY++NvURdbZ38vv/sjrpD/ALUWd/8Aey3J77Jfdt/6cjyD/wA883/aVP1LvLv/ACRbD/Sn/jzdHJ9zj0d9e9+691737r3QS9878y/V3S/Z/Yu36bG1mb2VsnP7kxVLmIaqoxVRXYqgmqqeLIQUVZj6uWkeSMB1jnicr9GB59g33D5iveUuRebeZ9tiie/sLCaeNZAxjLxoWUOFZGKkjIV1NOBHSPcLh7WyurmMAyJGWFeFQPOhH+Hqhr/h4H5Lf88P0Z/6DW/v/tme+d//AAbHup/0YOX/APnBef8Abd0AP65bp/vi3/3l/wDoPrY/99QupL697917rVr/AJnv/ZYu/wD/ALUWwv8A3jcN75Gfex/6fdzJ/wA89p/2ixdRRzT/AMlq5/0qf8dHT5/Kr/7K1w//AIY29f8A3CpvZj90H/p81j/0r7r/AI4vTnKX/JYT/mm3+DrZ499YupT697917r3v3Xuve/de697917r3v3Xuve/de697917r3v3XutTH+YJ/2WL3f/2vcF/7xu2/fG37yX/T7ufv+eiH/tFg6iHmL/ktX/8Aph/x1ejH/wAn7/spbfH/AIgzcv8A733WfuUPuT/9PU3/AP8AFfn/AO0yx6M+Tf8AkqT/APPO3/H062P/AH1C6kvr3v3Xuv/R3+PfuvdFw+Y23q7d3xE+VG1MWuvJ7n+OHeG3sctr6q7NdZbnxtIttS3vUVKj6j/X90cVRx8j14cevmU+yrpzrd7/AOE8HaeO3h8Is71yKyNs51B27unH1ON1J54Nv71psfu/CZIqo1CmyOXrMtDGW9Rko5PwB7MLY1jp6Hqjcer6vajrXXvfuvde9+691737r3Xvfuvde9+691737r3WvVuf/hRl8Wdsbl3DtuTpbvXJSbezmWwb5HHL15Jj8g+Jr6igatoZJN6RyPR1TU/kiLKrFGBIB49pjdICRpPVtPR//gD/ADI+rv5hUfa8vWewew9kxdSPsePMSb7i26keVk30N3tQpiHwGbzKu+PXZ8pqBL4yoqItOq5s5FKJdVARTrRFOrFvbvWuiL/zLe0Oxul/g18hO0epdwV21ewtnbZwWS27uHHUVDkKvEyS722xQ5GqjpMnRZGgkQYirqBIZYXVIyzcWuG5SVjYg562OPWlh/w8R/Mo/wC8p91/+gn1n/8AYT7QePL/ABnq1B1vW/EHeu4eyPib8Yewt35h9w7u3z8e+md27szsiUkU2Y3TuHrrbmW3Fkp4aCGmooKiszNVPJJHFHHHG7FVRQNIMUJKITxoOqHj0Yr3br3Xvfuvde9+691737r3Xvfuvde9+691SJ/woB6/23un+X9nN35Whhlz/WPZPXue2tkfGv3VHNuDORbLy9Is/Ei0Vfi9wM0sd9EktPCxBMakJ7kAx18wetjj1oq+y/q/X0s/gZueu3l8JviXuTJySz5PJfHXp/8AidVO6PNW5Gk2Jg6GvyEjRxxIHyFXSvMQFAXyW/F/ZrGaxofl1Q8T0bL3frXWtB/wpb2xV1fSXxl3miTGhwHam8dsVMiqvgWr3dtKmytEkjfqE0kOyagoBwQr3+g9pbodqH59WXrUNweYrNvZvD5/HMEyGDymPzFA7GVVSsxlXDW0rM0EsE6hZ4FJKOjj8MDz7QjGerdfUf6631t/tDYGyOydqVcdftjf+0tvbz2/WRSJKlRhtzYmkzOOlEkZKMWpKxb2+huPZuCCARwPTfSy97691737r3Xvfuvde9+691737r3XvfuvdFe+Ynyr2R8L+iNx999gYTcW5Nv7eym2sO2D2r/CDnchWbmzdHhqZaJc3ksVROKb7pp5R5dfiiYhTY2o7iNSxGOvDPVN/wD0EnfFb/nxPyB/6ldc/wD2b+2Pqk/hPVtPV7PRPbmF786a6x7q23jcphsD2lsrAb3xGKzYpBl8fj9wUEOQpqTJCgqauiFZDFMFk8UsiahwxHPtQralDDgeq9Cx7t17quD+ap/2SVmP/D62V/7m1PvF773/AP05q9/6WFr/AMeboM82f8kd/wDmov8Ah61h/fJ3qLetyT4wf9k0/Hj/AMQZ1L/7wO3/AH3D9pv+nV+2f/iv7d/2hw9TTtX/ACS9t/554/8Ajg6HP3IHS/r3v3Xuve/de697917r3v3Xuve/de6pQ/nMf8ez0J/2vewP/dftT3gb9+X/AJJXtz/z0Xn/ABy36A3O39lt/wDpn/wL1Sh1f/zMvrz/AMPnaX/u/wAf7wO5T/5Wrln/AKWFv/1eToD2v+5Vt/zUX/COt1733j6nHr3v3Xuve/de6J1/MAilm+HneCRRySuNvYeUrGjOwig3bt6aaQqoJEcMMbOx+iqpJ4B9wh95BHf2S5/VFJP00RwK4FzCSfsABJPkASeiXmIE7Lf0H4R/x4dalvvjX1EPW19/LqydJlPhv009I+o0NFurGVUZKeSCroN87mhlSRUd9HkULIgJDGKRWIF7e+xP3Y7uG79j+RjC1TGlxGwxUMl3OCDQmlcMPPSQaCvUt8tOH2Wyp5Bh+x26Oz7nro9697917r3v3XuiwfNPI0+L+KPfdTVMFjl64zuOUl0T/KMxEmJpFvIyqS1XWoAL6mJsoJIBib32uorP2e9xZZTRDtcqcQO6UCNeP9JxjieAqaDoq3xgm0bgTw8Ij9uB/h61B/fFXqHOt5f39AfU8de9+691q1/zPf8AssXf/wD2othf+8bhvfIz72P/AE+7mT/nntP+0WLqKOaf+S1c/wClT/jo6fP5Vf8A2Vrh/wDwxt6/+4VN7Mfug/8AT5rH/pX3X/HF6c5S/wCSwn/NNv8AB1s8e+sXUp9e9+691737r3Xvfuvde9+691737r3Xvfuvde9+691737r3Wpj/ADBP+yxe7/8Ate4L/wB43bfvjb95L/p93P3/AD0Q/wDaLB1EPMX/ACWr/wD0w/46vRj/AOT9/wBlLb4/8QZuX/3vus/cofcn/wCnqb//AOK/P/2mWPRnyb/yVJ/+edv+Pp1sf++oXUl9e9+691//0t/j37r3WOaGKoilgnijngnjeGaGZFkimikUpJFLG4ZJI5EYhlIIINj7917r5pnzf+Nma+Jfyk7f6OylNPHjdsbqrazZVdKjBM315nZGy+x8vFIS6SST7eq4Y6kI8ghrYpoSxaJvZVImh2Xq4z0J/wDLp+em9PgH3iOwsPjH3X1/u2ipttdr7EFSKWTcO24qwVVLksNUyXp6Pde26h3moJZQY3WWancpHUO67ikMbV8vPrxFet5D45fzEvh18psTj6zqru/Z5z9bTwSz9e7wydHszsbG1Eqjz0U+0s/UUlbknopj4pKjHGuoC9vHUSKyMxgssb8G6rQ9HY9uda697917r3v3Xuve/de697917qnz+Zt/NP6Z+JnUu+tk9eb/AMBvD5ObhwuQ25s7aO1MrTZiq6+yeUp5KJ9674rMc1XSbaO1oZ/u6TH1LLXZCqWFEhFO09TAxLMqKQD39bAr1oO+y7q/W7P/AMJ4Ohc51r8SN6du7io6jH1HfvYP8S23T1CvGanYuwqOfbuHy/ieS8X8S3JWZnx3jXyU0UMqs8ciEL7ZSELHzPVG49X/AHtT1rorXze6syfdnxB+SfVmCp3q9w7w6b33QbZo0MgNbummwVXktsUJMX7gSsz9FTxNYN6XPpb9JpIupGUcadeHHr5n/sq6c63U/wCSB/MU6o3/APHzY/xU7K3phdod09TQTbV2dQ7lyVNioeydiismqdsDa9ZXTQ01duLbdHU/w2fFoxqmpaSKpiWRGn8C+3lUqEJ7h1QjrYS9qetde9+691737r3Xvfuvde9+691jmmip4pZ55Y4III3mmmmdY4oYo1LySyyOVSOONFJZiQABc+/de61c/wCfp8+entzdP4r4j9R76292BuzO7zw+5u06zaWVps7g9qYDabVNXjNtZDL4yebGSblym5jTTvSJLLLRQ0DfcJG00N0lzIpXQDnqwHn1qZUlJV5CrpaCgpaitrq2ohpKKipIZKmrq6upkWGnpaWnhV5qioqJnCIiAs7EAAk+0XVuvp2/GXrSo6a+OXQvUtbHHHketenettj5UReIrJmNsbPw+Iy9QWgAhkkqsnSSyOy8O7k/n2bINKqvoOm+hw92691W5/Nm+NGT+U3wc7a2RtjGy5ffm0IaHtbr/HU0ElVW5DcmwzUVtXiMbSxK0tTldw7UqcnjqSNeXqaxB+fbUya4yBx62OPXzvfZZ1frZI/lG/zldqfHPY+M+Mfypqc1H1jhayoPWPatFRVu4J9h47JVTVdVtDdmJoIqrN120qWtnlnoKqjiqqqgErUxhelEJpVUM4UaH4evVSOtsjq3vTpfvDFLm+ne1uvezsYYFqJKnY27sHuU0kbMqachT4qtqanGzxyMEeKoSKSN/SyhuPa0MrfCwPVehV97691737r3Xvfuvde9+690z5/cW39qYit3BunO4fbWBxsRnyObz+TosNiMfACAZq3JZGemo6WIE/qkdR79WmTw691pxfzy/wCZb118lf7sfGH4/wC4abeHW2xd1DeXYHYeKdZdvbv3lj8fX4jB4XaOQQ2zG29vU2XrJKitTVSV9ZJE1OXjp0mlQ3EoaiKcDqwHWvhtDae4d+br2zsfaOLqc5ureOfw+19tYWiUPV5bPZ7IU+LxOOplJAM9bX1Uca3IF25IHtMASQBx6t19OzobrKDpXpDp7p6nmgqYurOr9h9e/eUylYa6TZ+18XgJsguqKCRzXzUDTMzIruzlmGon2aqNKqvoOm+hY92691XB/NU/7JKzH/h9bK/9zan3i997/wD6c1e/9LC1/wCPN0GebP8Akjv/AM1F/wAPWsP75O9Rb1uSfGD/ALJp+PH/AIgzqX/3gdv++4ftN/06v2z/APFf27/tDh6mnav+SXtv/PPH/wAcHQ5+5A6X9e9+691737r3Xvfuvde9+691737r3VKH85j/AI9noT/te9gf+6/anvA378v/ACSvbn/novP+OW/QG52/stv/ANM/+BeqUOr/APmZfXn/AIfO0v8A3f4/3gdyn/ytXLP/AEsLf/q8nQHtf9yrb/mov+Edbr3vvH1OPXvfuvde9+690EnfWwZe0+le0+vKW33+7ti7kw+KJKBVzU+MqGwjyeQqnjjyyQswLLdQfUv1AM9xeXH5u5E5v5Zi/wByL3b54o+H9qYz4RNcUEgUnIx5jj0j3C3N3Y3dsPieNgPtpj+dOtMieCelnmpaqGWmqaaWSCop543hngnhcxzQzQyBZIpYpFKsrAFSLHn3wykjkhkkiljZZVYhlIIIINCCDkEHBByD1CZBBIIoR1b5/LN+ZWzOoqXM9JdsZiHbm187nH3Fs/d2RkMeGw2Zraelosrhc3VMCmLxmRFHFPBUuVpoJ/N5mUShhmr91T3y2LkuG+5C5xvVtdouLgzW1y5pFFK6qskUrcI430q6OaIja9ZAcEDLlfe4LMPY3j6YmaqseAJwQfQGlQeANa8etgnG5PG5mhpspiMhRZXG1sYmo8jjauCuoauEkqJaarpZJaeeMlSNSMRce+kdrdWt9bxXdlcxzWsgqrowdGHqrKSCPmD1IisrqHRgVPAjI6m+1HVuuLMqKzuyoiKWd2IVVVRdmZjYKqgXJP096JCgsxAUDJ691TD/ADRPlfsCr6zk6B2BujE7q3HufNY6o33JgK6nymP25g9uV8GWgxNfX0by0q5zI5+jpm+3R2kghpZfOsfki14L/e294uXJuVG9uOXN2hvN0u50a7MLrIkEUDiQRu6kr4rzKh0AlkWN/EC6k1Anmrd7c2p263lDyuw10NQADWhI8yQMeQBr5dUt9HbFquzO4+sNg0kJmbdW+dt4mp9AkWDGz5SmbL1s0bAh6fH4pJp5RY3jjPB+nvBTkDl6bmvnflPlyFNRvNwgjbFaIZF8RiPNUjDO3yU4PQIsLc3V7a24HxyKPyrk/kKnrdE991Opt697917rVr/me/8AZYu//wDtRbC/943De+Rn3sf+n3cyf889p/2ixdRRzT/yWrn/AEqf8dHT5/Kr/wCytcP/AOGNvX/3CpvZj90H/p81j/0r7r/ji9Ocpf8AJYT/AJpt/g62ePfWLqU+ve/de697917r3v3Xuve/de697917r3v3Xuve/de697917rUx/mCf9li93/8Aa9wX/vG7b98bfvJf9Pu5+/56If8AtFg6iHmL/ktX/wDph/x1ejH/AMn7/spbfH/iDNy/+991n7lD7k//AE9Tf/8AxX5/+0yx6M+Tf+SpP/zzt/x9Otj/AN9QupL697917r//09/j37r3XvfuvdVZ/wAzj+WVsf8AmAbDx2Qx2Qodjd+7DoZ6fr3sCogmlx2RxTyVFXNsPesNMslTU7Wra6oaeCoiR6rF1btNCskctTT1LMsQlAzRh1sGnWkF8kvhv8k/iVuSp273t1TubZ8S1b02M3WKN8psPcah5BDPtzeuNFRt/J/cRIJPAJ1rIFYCeGJ7oEDxuhow6tWvRY/dOt9CltTvLuzYlOlJsfuHtLZtLHB9tHTbU7B3bt6njprQL9ukOIy9HGsFqWIaANNo149ItsMw4MevdCrB86Pm3SwQ0tL8xflPTU1NFHBT08HyD7bhggghQRwwwwx7uWOKKKNQqqoAUCw4928ST+M/tPWqD06y/wCz4fOL/vMv5W/+lEdu/wD2Ye/eJJ/vxv2nr1B6de/2fD5xf95l/K3/ANKI7d/+zD37xJP9+N+09eoPToPd2/JT5F7/AKeppN99+9171pa0u1ZTbt7U31uSnq2kCiRqmHM52sjnLhQCWBuAL+9F2PFiet9BjtvbG5d5Zqg23tDb2c3VuLKTpTYzA7bxNfnM1kamVlSOnoMXi6eqrqueR2AVI42YkgAe60rgcevdbAfwD/kMdy9r5/b/AGL8vsZkum+o6aSnyv8Ao4lqIabtjfUanywYvI49FqT13hZ5FC1prhHmfEGiipYGkWrhUx27NQvhf59VJ9Otyzbm3MDs/b+D2ntXD43b22ds4jHYDb2Bw9JDj8ThcJiKSGgxeKxlDTJHT0dBj6KnSKKJFCoigAWHtcAAABw6r09e99e697917rTM/m0fyd+09gdmb0+RXxc2Jkt+9Pb0r6zde7Ng7OoZcnuvrHcOQlmrdxSY7a9BC1dlthVdWz1cD0Mcr4tZJIZoo6aGOd0M0BBLIKqerA9a6M0MtPLLBPFJBPBI8M0MyNHLDLGxSSKWNwrxyRupDKQCCLH2l6t0Om0PlN8nevqWGh2F8je+NkUVPG8MFHtDt7sHbVLBFJ49cUNPhtw0UMcb+JLqoAOkf0HuwdxwY/t690tP9nw+cX/eZfyt/wDSiO3f/sw978ST/fjftPWqD069/s+Hzi/7zL+Vv/pRHbv/ANmHv3iSf78b9p69QenXv9nw+cX/AHmX8rf/AEojt3/7MPfvEk/3437T16g9Oodf83/mllaZ6LKfL35Q5KjkKNJSV/f3a9ZTO0bB42eCo3ZJExR1BBI4IuPfvEk/jP7evUHp0Eu7u4e3OwI5It+dpdjb2il0eWPd299zbkjk8aosfkTM5OtV9CxqBe9got9B7qWY8Set9JLb229xbuzNBt3amBzW59wZWdabGYLb2Lrs1mcjUt+mnoMZjYKmtrJ2/CRozH+nvVK4HHr3W0h/KR/kw9i7W7F2h8ovlztwbQj2TX025Or+mcusE+5ardNG0NXgd575p4Zpotv023asCposXL/uQevijkqUp0hEVQshgIIdx+XVSfTra89rOq9e9+691737r3Wqx/NK/kebn3Xu/dXyL+GGIoMhPuSqrNw9gdDRzU2LqjnaqWWry+4er5ahoMZLBlZnM8+DleFopy5oWkWSKjhRzW5JLRj8urA+vWrZvXYe9+ttxV20exNnbo2HuvGOY8jtreOAyu2s9QuskkRFXiczS0VfB+5Ey+qMAlT/AE9pCCDQih6t0nKSrq6CphrKGqqKKrp38kFVSTSU9TA4BAeGeFkljcA/VSD7117odsJ8sPlNtn7f+7nyV7/2/wDaPJJSfwTuTsXFfayTa/K9P9huODwvL5G1FbFtRv8AU+7a3HBj+3r3Su/2fD5xf95l/K3/ANKI7d/+zD3vxJP9+N+09aoPTr3+z4fOL/vMv5W/+lEdu/8A2Ye/eJJ/vxv2nr1B6dYKn5zfNmtp5qSs+Yfymq6WojaGopqn5BdtT088TjS8U0Mu7njljcGxVgQR794kn8Z/aevUHp0CO8+zeyOx6iOr7D7B3vvyriKtFVbz3Xnt0VEbJEIFaObOV9dIhWFQgIIsot9PdSSeJ630u+jvjN3/APJTPrtronqPe/ZuSE6QVc228LPLhMQz+PTJuHc9V9rtrbVNeZAZshV00ILrdvUL7VGc0VSevdbhH8rH+TRifiDl8f333/kcJvj5BRUlSm1cFhGeu2X1OmQglpaqroq+pgp5dy72qMfM0L1oiipKFZZY6ZZjpqythg0dzfF1QmvV9ftT1rr3v3Xuq4P5qn/ZJWY/8PrZX/ubU+8Xvvf/APTmr3/pYWv/AB5ugzzZ/wAkd/8Amov+HrWH98neot63JPjB/wBk0/Hj/wAQZ1L/AO8Dt/33D9pv+nV+2f8A4r+3f9ocPU07V/yS9t/554/+ODoc/cgdL+ve/de697917r3v3Xuve/de697917qlD+cx/wAez0J/2vewP/dftT3gb9+X/kle3P8Az0Xn/HLfoDc7f2W3/wCmf/AvVKHV/wDzMvrz/wAPnaX/ALv8f7wO5T/5Wrln/pYW/wD1eToD2v8AuVbf81F/wjrde994+px697917r3v3Xuve/de6o3+fX8u/c2f3PnO7+g8O2bmz0s+W3511QhRlTmZCJK3cW0qckDJ/wAWctNV0Cn7gVJZ6cSiXxRYAfeM+7Nuu47tuHP3tzZfUPcMZLuyT+08U5aa2H+ieIatJCO/XVow+vQgD5h5blklkvtvTUWy6DjXzK+teJHGvCtaCj3JYzJYavq8Vl8fW4rJ0Ez01djslST0NfR1EZtJBV0dVHFUU8yH6q6hh/T3gFdWt1Y3E1ne20kN3GxV0dSjqw4hlYAqR5ggHoCMrIxR1IccQcEfl0+7c31vfZ/kO0d5bq2sZjeb+7m4cvhPKbFbyfwyspdZ0kjm/B9mO18w7/smo7Lvl5ZluPgTSRV+3w2WvTkVxPDXwZ3T/Skj/AehJ/2Z/wCS3/eQ/ef/AKNrf3/2QexR/rs+6n/hTOYP+5jef9bulX713T/o5XH/ADkf/P0h9xdpdm7vgkpt29jb73RTSs7S0+4t3bgzcErSOJJGkiyWQqY3Z5BqJINzz9fZBufN3Nm9xtFvPM+43cRrUTXM0oNTU1DuwNTk/PpPJd3UwpNcyOPmxP8AhPSYwuEzW5MnR4Tb2IymezOQlEFBiMLj6vKZOunb9MNHQUMU9VUytbhURifZTY2F9ul3BYbZZTXF9KaJHEjSSOfRUQFmPyAJ6aSN5XCRoWc8ABUn8h1sGfy6fgpn+nK//Tf3DQR47f1TjarH7M2hIYp6rZ9Bk4ft8hm8vPDJJFFuLKY+SSmSmQn7SkmlEpM0pjg6Tfdj+73uPJFz/X7na3EXMbxMlrbGha2SQUeWQgkCaRCYwg/s42cOdblY5F5b2CSyb669WlwRRV/hB4k/MjFPIVrk4t395pdDHr3v3XutWv8Ame/9li7/AP8AtRbC/wDeNw3vkZ97H/p93Mn/ADz2n/aLF1FHNP8AyWrn/Sp/x0dPn8qv/srXD/8Ahjb1/wDcKm9mP3Qf+nzWP/Svuv8Aji9Ocpf8lhP+abf4Otnj31i6lPr3v3Xuve/de697917r3v3Xuve/de697917r3v3Xuve/de61Mf5gn/ZYvd//a9wX/vG7b98bfvJf9Pu5+/56If+0WDqIeYv+S1f/wCmH/HV6Mf/ACfv+ylt8f8AiDNy/wDvfdZ+5Q+5P/09Tf8A/wAV+f8A7TLHoz5N/wCSpP8A887f8fTrY/8AfULqS+ve/de6/9Tf49+691737r3XvfuvdQcljMbmaCqxeXx9DlcZXQtT1uOyVJBXUFZA9tUNVSVUctPUQtblXUg/09+690SHff8ALG/l/wDY9RNV7m+JvTkVVUyPNUVG09tjr2aeaQhpZ5pev6jbDyzyuNTuxLOxLEkkktmKM8UHW6noEv8AhkT+WB/3jJ/7Gj5Cf/bY91+nh/g/mf8AP16p69/wyJ/LA/7xk/8AY0fIT/7bHv308P8AB/M/5+vVPXv+GRP5YH/eMn/saPkJ/wDbY9++nh/g/mf8/Xqnr3/DIn8sD/vGT/2NHyE/+2x799PD/B/M/wCfr1T0t9q/yhf5b2zZIpMR8VNkVjQksg3Vm9+b7jJMwn/di3vu3cMU41i1nDDR6P0en3sQxD8A69U9Hc686e6k6ioXxfVPV3XnWeNlRY5aHYGy9ubOpJkS2kTQbexuPimsVB9QPPPtwKq/CAOtdCN7317r3v3Xuve/de697917r3v3Xui6ds/EP4t97VEld2/8feouwcvKCrbh3FsTb1VuhUJ1MkW6koYtxQRu3LKlUqsQCQbD3VkRviUHr1eigZL+St/LIytU9ZVfF+gimcBSmN7T7xw1KAt7aKHEdmUNFGeeSsYJ/PtvwIv4P8PW6nqB/wAMifywP+8ZP/Y0fIT/AO2x799PD/B/M/5+vVPXv+GRP5YH/eMn/saPkJ/9tj376eH+D+Z/z9eqevf8MifywP8AvGT/ANjR8hP/ALbHv308P8H8z/n69U9e/wCGRP5YH/eMn/saPkJ/9tj376eH+D+Z/wA/XqnpXbY/k9fy2dpTRT4r4r7Rq3hlMyLufdHZG9YS7GMkS0+8t6Z6nni/bFo3VkHNh6mvsQRD8HXqno7PWnR3S/TFG1B1D1J1r1fSSQCnnh6/2PtraAqoQ6ylaxsDjaB6wyTKJHaUuzyepiW593CqvwqB1roUvduvde9+691737r3Xvfuvde9+690H3YXUvVfbmLXB9q9a7B7LwyeTx4rf+z9vbwx0Rl0+RoqPcGPyFPE76FuVUG6j+g96KhsMAR17oi26/5Pn8treVQ9Tl/ivtCjkef7hl2pubsbYlOJLznSlJsfee3aWOC9Q37SoI7BRpsiaWzBEfwdbqekh/wyJ/LA/wC8ZP8A2NHyE/8Atse9fTw/wfzP+fr1T17/AIZE/lgf94yf+xo+Qn/22Pfvp4f4P5n/AD9eqevf8MifywP+8ZP/AGNHyE/+2x799PD/AAfzP+fr1T1yj/kkfywY5EkX4xoWjdXUSdyfIGWMlCGAeKXtZ4pEJHKsCpHBBHv308P8H8z/AJ+vVPQ4bH/lmfALryaCp238TOl5amlkSamqN07Tp9+1EE0cs00U8U++5NySxzxSzko4IZCqWI8cemwijHBB16p6OriMPiNv42kw2BxWNwmIoIzDQ4rEUNLjcbRRF2kMVJQ0cUNLTRmR2bSigaiT9T7c4cOtdOXv3Xuve/de697917pJb12HsvsfBybZ37tfCbv29LU09ZJhtwY+nyeOeqpGL0tQ1LUo8RlgZiVa1wT7Jt+5d2Lmjb22rmLabe920urGKZBIhZfhOlgRUeR8umZ7eC5j8K4iV461oRUdA5/sn3xZ/wCfAdU/+gbh/wD6m9gj/WT9ov8AwnGz/wDZLF/0D0i/c20/9G6H/eR0P2Gw+K27iMVt/BY+kxOEweNocPh8VQQpTUOMxWMpYqLH4+ip4wscFJR0kCRxooCqigDge5GsbKz2yys9t2+2SGwt4kjijQBUSONQqIqjAVVAVQMAADoxREjRI41AjUAADgAMAD7OnL2q6t1737r3Xvfuvde9+691737r3XvfuvdB52B1J1j2tDjKfsrYe198QYWWqmxMW5sRSZaPHS1qwJVyUa1ccggepSmjDlbaggv9PYZ5k5M5T5wS0j5p5etNwjgLGMTxrIEL0DFdQNCwUVpxoOk1xZ2t2EF1bpIF4agDSvGleg7oviV8ZMdWUmQoeiOrqSuoamCso6qDaGIjnpqqllWenqIZFpw0csMyBlYcgi/sNQezXtRbTQ3Nv7ebQk8bBlYW0YKspqCDpwQQCD69J12fa1IZdviDA1HaOjD+5L6Meve/de697917r3v3Xuve/de6DnffUHVXZ8ax9idcbJ3qY4zHBUbl21iMvW0iG4/yGvrKSWuoWsSNUMiNYnnk+wxzDyTyfzYoXmblewvyBQGeCORlH9B2Uun2qQek1xZWl1/uTbRv/plBP5E5HRbsj/Lp+GeUqWq6npShilfVdMdvHsXD0w1SPKdNFid30VGnqkIGmMWWyj0qAItufux+xl3KZpeQ4w5/gub2NeJPwx3KqOPkOFBwAHRY3LeyOamxFfkzj+QYDqB/w2z8K/8AnzH/ALEXtj/7O/af/gWvYj/phf8As93D/tr6r/VjY/8AlB/43J/0H044z+Xb8NMTUCppek8dLICp05PdvYWap/Q2oXpcxu2vpSCfqNFmHBuPaq1+7L7G2cniw8hRFv6dzeSjH9GW4df5Z8+rLy3siGosRX5s5/wsejMbH6s606zpnpOvNgbP2TDLGIqgbX27isLLVoGDD72ooKWCorW1KCWlZ2JF7+5V5f5Q5V5UiaHlnlyxsI2FD4EMcRYce4ooLfaxJ6NILS1tRS2t0jH9EAftpx6XvsRdKOve/de697917oGN5fHTojsPP1W6d89SbB3ZuOtipYavN57beNyOSqYqKnjpaSOarqIXldKemiVEBPpVQB7Au+e2Pt5zLuM278wcmbdebpIFDSzQI7sFAVQWYEkKoAHoBTpFNtu33Mhlns43lPElQTjHWTZXx66N63zke5thdUbE2huGKmqKOPM7f27jsbkUpatQlVTrVU0KSiKdVAZb2IHu+w+2vt/yvuC7ry7ydt1luQVlEsMCRuFbDDUoBofMefXoNusLaQS29pGklKVCgHoY/Y36W9e9+691737r3Xvfuvde9+691737r3Xvfuvde9+691737r3QH7p+NHx93vn8jund/TnXm5Nx5eWKbKZvMbYxldkq+WGnhpIpKqrngeWZ46anRASTZVA/HsAbv7V+2+/7jdbvvXI+2XW6TkGSWWCN3cgBQWYgk0UACvkAOkEu17dPI0s1lG0rcSVBJ/Pp22H0N0v1dl6ncHXXWGydlZusxs2HqsrtvAUGKrqjFVFVR1s+PlqKWGOR6SWrx8EjITpLxKfqB7W8u+3nIvKV7LuXLHKVhYX7xGNpIIUjcxllYoWUAlSyIxHCqg+XV7fb7K1cyW1rGkhFKqADTBp/IdC17GXSzr3v3Xuv/9Xf49+691737r3Xvfuvde9+691737r3Xvfuvde9+691737r3Xvfuvde9+691737r3Xvfuvde9+691737r3Xvfuvde9+691737r3Xvfuvde9+691737r3Xvfuvde9+691737r3Xvfuvde9+691737r3Xvfuvde9+691737r3Xvfuvde9+691737r3Xvfuvde9+691737r3Xvfuvde9+691737r3Xvfuvde9+691737r3Xvfuvde9+691737r3Xvfuvde9+691737r3Xvfuvde9+691737r3Xvfuvde9+691737r3Xvfuvde9+691737r3Xvfuvde9+691737r3Xvfuvde9+691737r3Xvfuvde9+691737r3Xvfuvde9+691737r3Xvfuvde9+691737r3Xvfuvde9+691737r3Xvfuvde9+691737r3Xvfuvde9+691/9k=;" parent="zFPFfLbI-kDsFVuQKsyc-1" vertex="1">
          <mxGeometry x="100" y="831" width="130" height="24.84" as="geometry" />
        </mxCell>
      </root>
    </mxGraphModel>
  </diagram>
  <diagram name="Headerline-Transparent" id="QKEpjxAbAI5c_-yXNTlL">
    <mxGraphModel dx="1378" dy="1020" grid="1" gridSize="10" guides="1" tooltips="1" connect="1" arrows="1" fold="1" page="1" pageScale="1" pageWidth="1600" pageHeight="900" background="none" math="0" shadow="0">
      <root>
        <mxCell id="J9CvKKbj4jJhiUByF0RN-0" />
        <mxCell id="J9CvKKbj4jJhiUByF0RN-1" parent="J9CvKKbj4jJhiUByF0RN-0" />
        <mxCell id="J9CvKKbj4jJhiUByF0RN-2" value="" style="endArrow=none;html=1;rounded=0;strokeWidth=6;strokeColor=#82B941;" edge="1" parent="J9CvKKbj4jJhiUByF0RN-1">
          <mxGeometry width="50" height="50" relative="1" as="geometry">
            <mxPoint x="100" y="50" as="sourcePoint" />
            <mxPoint x="320" y="50" as="targetPoint" />
          </mxGeometry>
        </mxCell>
      </root>
    </mxGraphModel>
  </diagram>
</mxfile>
